<?xml version="1.0" encoding="us-ascii" standalone="no"?><svg xmlns="http://www.w3.org/2000/svg" xmlns:xlink="http://www.w3.org/1999/xlink" contentStyleType="text/css" height="2456px" preserveAspectRatio="none" style="width:616px;height:2456px;background:#FFFFFF;" version="1.1" viewBox="0 0 616 2456" width="616px" zoomAndPan="magnify"><defs/><g><text fill="#000000" font-family="sans-serif" font-size="14" font-weight="bold" lengthAdjust="spacing" textLength="180" x="216.5" y="36.0439">&#25945;&#23398;&#36741;&#21161;&#24179;&#21488;&#21151;&#33021;&#27169;&#22359;&#35774;&#35745;</text><rect fill="#F1F1F1" height="39.1201" style="stroke:#181818;stroke-width:1.5;" width="104" x="10" y="1227.7424"/><text fill="#000000" font-family="sans-serif" font-size="14" lengthAdjust="spacing" textLength="84" x="20" y="1253.7864">&#25945;&#23398;&#36741;&#21161;&#24179;&#21488;</text><rect fill="#F1F1F1" height="39.1201" style="stroke:#181818;stroke-width:1.5;" width="104" x="164" y="119.2402"/><text fill="#000000" font-family="sans-serif" font-size="14" lengthAdjust="spacing" textLength="84" x="174" y="145.2842">&#29992;&#25143;&#21521;&#23548;&#21151;&#33021;</text><rect fill="#F1F1F1" height="39.1201" style="stroke:#181818;stroke-width:1.5;" width="146" x="318" y="60.1201"/><text fill="#000000" font-family="sans-serif" font-size="14" lengthAdjust="spacing" textLength="126" x="328" y="86.1641">&#22312;&#32447;&#38405;&#35835;&#25991;&#26723;&#21644;&#25945;&#31243;</text><path d="M268,138.8003 L278,138.8003 C293,138.8003 293,79.6802 308,79.6802 L318,79.6802 " fill="none" style="stroke:#181818;stroke-width:1.0;"/><rect fill="#FFA07A" height="39.1201" style="stroke:#181818;stroke-width:1.5;" width="118" x="318" y="119.2402"/><text fill="#000000" font-family="sans-serif" font-size="14" lengthAdjust="spacing" textLength="98" x="328" y="145.2842">&#25216;&#26415;&#38382;&#31572;&#26426;&#22120;&#20154;</text><path d="M268,138.8003 L278,138.8003 C293,138.8003 293,138.8003 308,138.8003 L318,138.8003 " fill="none" style="stroke:#181818;stroke-width:1.0;"/><rect fill="#FFA07A" height="39.1201" style="stroke:#181818;stroke-width:1.5;" width="136" x="318" y="178.3604"/><text fill="#000000" font-family="sans-serif" font-size="14" lengthAdjust="spacing" textLength="116" x="328" y="204.4043">&#25216;&#26415;&#20132;&#27969;/&#38382;&#31572;&#31038;&#21306;</text><path d="M268,138.8003 L278,138.8003 C293,138.8003 293,197.9204 308,197.9204 L318,197.9204 " fill="none" style="stroke:#181818;stroke-width:1.0;"/><path d="M114,1247.3025 L124,1247.3025 C139,1247.3025 139,138.8003 154,138.8003 L164,138.8003 " fill="none" style="stroke:#181818;stroke-width:1.0;"/><rect fill="#F1F1F1" height="39.1201" style="stroke:#181818;stroke-width:1.5;" width="76" x="164" y="326.1606"/><text fill="#000000" font-family="sans-serif" font-size="14" lengthAdjust="spacing" textLength="56" x="174" y="352.2046">&#29992;&#25143;&#31649;&#29702;</text><rect fill="#F1F1F1" height="39.1201" style="stroke:#181818;stroke-width:1.5;" width="90" x="290" y="237.4805"/><text fill="#000000" font-family="sans-serif" font-size="14" lengthAdjust="spacing" textLength="70" x="300" y="263.5244">&#27880;&#20876;&#26032;&#29992;&#25143;</text><path d="M240,345.7207 L250,345.7207 C265,345.7207 265,257.0405 280,257.0405 L290,257.0405 " fill="none" style="stroke:#181818;stroke-width:1.0;"/><rect fill="#F1F1F1" height="39.1201" style="stroke:#181818;stroke-width:1.5;" width="80" x="290" y="296.6006"/><text fill="#000000" font-family="sans-serif" font-size="14" lengthAdjust="spacing" textLength="60" x="300" y="322.6445">&#30331;&#24405;/&#30331;&#20986;</text><path d="M240,345.7207 L250,345.7207 C265,345.7207 265,316.1606 280,316.1606 L290,316.1606 " fill="none" style="stroke:#181818;stroke-width:1.0;"/><rect fill="#F1F1F1" height="39.1201" style="stroke:#181818;stroke-width:1.5;" width="132" x="290" y="355.7207"/><text fill="#000000" font-family="sans-serif" font-size="14" lengthAdjust="spacing" textLength="112" x="300" y="381.7646">&#29992;&#25143;&#20010;&#20154;&#36164;&#26009;&#31649;&#29702;</text><path d="M240,345.7207 L250,345.7207 C265,345.7207 265,375.2808 280,375.2808 L290,375.2808 " fill="none" style="stroke:#181818;stroke-width:1.0;"/><rect fill="#F1F1F1" height="39.1201" style="stroke:#181818;stroke-width:1.5;" width="104" x="290" y="414.8408"/><text fill="#000000" font-family="sans-serif" font-size="14" lengthAdjust="spacing" textLength="84" x="300" y="440.8848">&#29992;&#25143;&#26435;&#38480;&#31649;&#29702;</text><path d="M240,345.7207 L250,345.7207 C265,345.7207 265,434.4009 280,434.4009 L290,434.4009 " fill="none" style="stroke:#181818;stroke-width:1.0;"/><path d="M114,1247.3025 L124,1247.3025 C139,1247.3025 139,345.7207 154,345.7207 L164,345.7207 " fill="none" style="stroke:#181818;stroke-width:1.0;"/><rect fill="#F1F1F1" height="39.1201" style="stroke:#181818;stroke-width:1.5;" width="104" x="164" y="547.8611"/><text fill="#000000" font-family="sans-serif" font-size="14" lengthAdjust="spacing" textLength="84" x="174" y="573.905">&#32534;&#31243;&#23454;&#36341;&#21151;&#33021;</text><rect fill="#F1F1F1" height="39.1201" style="stroke:#181818;stroke-width:1.5;" width="118" x="318" y="503.521"/><text fill="#000000" font-family="sans-serif" font-size="14" lengthAdjust="spacing" textLength="98" x="328" y="529.5649">&#22312;&#32447;&#20195;&#30721;&#32534;&#36753;&#22120;</text><rect fill="#F1F1F1" height="39.1201" style="stroke:#181818;stroke-width:1.5;" width="118" x="486" y="473.9609"/><text fill="#000000" font-family="sans-serif" font-size="14" lengthAdjust="spacing" textLength="98" x="496" y="500.0049">&#32534;&#36753;&#22120;&#26684;&#24335;&#35774;&#32622;</text><path d="M436,523.0811 L446,523.0811 C461,523.0811 461,493.521 476,493.521 L486,493.521 " fill="none" style="stroke:#181818;stroke-width:1.0;"/><rect fill="#F1F1F1" height="39.1201" style="stroke:#181818;stroke-width:1.5;" width="104" x="486" y="533.0811"/><text fill="#000000" font-family="sans-serif" font-size="14" lengthAdjust="spacing" textLength="84" x="496" y="559.125">&#35821;&#27861;&#38169;&#35823;&#25552;&#31034;</text><path d="M436,523.0811 L446,523.0811 C461,523.0811 461,552.6411 476,552.6411 L486,552.6411 " fill="none" style="stroke:#181818;stroke-width:1.0;"/><path d="M268,567.4211 L278,567.4211 C293,567.4211 293,523.0811 308,523.0811 L318,523.0811 " fill="none" style="stroke:#181818;stroke-width:1.0;"/><rect fill="#F1F1F1" height="39.1201" style="stroke:#181818;stroke-width:1.5;" width="118" x="318" y="562.6411"/><text fill="#000000" font-family="sans-serif" font-size="14" lengthAdjust="spacing" textLength="98" x="328" y="588.6851">&#31243;&#24207;&#20445;&#23384;&#21644;&#23548;&#20986;</text><path d="M268,567.4211 L278,567.4211 C293,567.4211 293,582.2012 308,582.2012 L318,582.2012 " fill="none" style="stroke:#181818;stroke-width:1.0;"/><rect fill="#F1F1F1" height="39.1201" style="stroke:#181818;stroke-width:1.5;" width="180" x="318" y="621.7612"/><text fill="#000000" font-family="sans-serif" font-size="14" lengthAdjust="spacing" textLength="160" x="328" y="647.8052">ImLP/ASP&#20195;&#30721;&#36816;&#34892;&#21644;&#35843;&#35797;</text><path d="M268,567.4211 L278,567.4211 C293,567.4211 293,641.3213 308,641.3213 L318,641.3213 " fill="none" style="stroke:#181818;stroke-width:1.0;"/><path d="M114,1247.3025 L124,1247.3025 C139,1247.3025 139,567.4211 154,567.4211 L164,567.4211 " fill="none" style="stroke:#181818;stroke-width:1.0;"/><rect fill="#F1F1F1" height="39.1201" style="stroke:#181818;stroke-width:1.5;" width="132" x="164" y="887.8018"/><text fill="#000000" font-family="sans-serif" font-size="14" lengthAdjust="spacing" textLength="112" x="174" y="913.8457">&#36923;&#36753;&#25512;&#29702;&#23454;&#36341;&#21151;&#33021;</text><rect fill="#F1F1F1" height="39.1201" style="stroke:#181818;stroke-width:1.5;" width="118" x="346" y="680.8813"/><text fill="#000000" font-family="sans-serif" font-size="14" lengthAdjust="spacing" textLength="98" x="356" y="706.9253">&#22312;&#32447;&#36923;&#36753;&#32534;&#36753;&#22120;</text><path d="M296,907.3618 L306,907.3618 C321,907.3618 321,700.4414 336,700.4414 L346,700.4414 " fill="none" style="stroke:#181818;stroke-width:1.0;"/><rect fill="#FFA07A" height="39.1201" style="stroke:#181818;stroke-width:1.5;" width="131" x="346" y="740.0015"/><text fill="#000000" font-family="sans-serif" font-size="14" lengthAdjust="spacing" textLength="111" x="356" y="766.0454">CNL&#27169;&#26495;&#27169;&#22411;&#36873;&#25321;</text><path d="M296,907.3618 L306,907.3618 C321,907.3618 321,759.5615 336,759.5615 L346,759.5615 " fill="none" style="stroke:#181818;stroke-width:1.0;"/><rect fill="#FFA07A" height="39.1201" style="stroke:#181818;stroke-width:1.5;" width="159" x="346" y="799.1216"/><text fill="#000000" font-family="sans-serif" font-size="14" lengthAdjust="spacing" textLength="139" x="356" y="825.1655">CNL&#35821;&#27861;&#26816;&#27979;&#25552;&#31034;&#21151;&#33021;</text><path d="M296,907.3618 L306,907.3618 C321,907.3618 321,818.6816 336,818.6816 L346,818.6816 " fill="none" style="stroke:#181818;stroke-width:1.0;"/><rect fill="#F1F1F1" height="39.1201" style="stroke:#181818;stroke-width:1.5;" width="146" x="346" y="858.2417"/><text fill="#000000" font-family="sans-serif" font-size="14" lengthAdjust="spacing" textLength="126" x="356" y="884.2856">&#36923;&#36753;&#20869;&#23481;&#20445;&#23384;&#21644;&#23548;&#20986;</text><path d="M296,907.3618 L306,907.3618 C321,907.3618 321,877.8018 336,877.8018 L346,877.8018 " fill="none" style="stroke:#181818;stroke-width:1.0;"/><rect fill="#F1F1F1" height="39.1201" style="stroke:#181818;stroke-width:1.5;" width="104" x="346" y="917.3618"/><text fill="#000000" font-family="sans-serif" font-size="14" lengthAdjust="spacing" textLength="84" x="356" y="943.4058">&#36923;&#36753;&#20869;&#23481;&#25512;&#29702;</text><path d="M296,907.3618 L306,907.3618 C321,907.3618 321,936.9219 336,936.9219 L346,936.9219 " fill="none" style="stroke:#181818;stroke-width:1.0;"/><rect fill="#F1F1F1" height="39.1201" style="stroke:#181818;stroke-width:1.5;" width="104" x="346" y="976.4819"/><text fill="#000000" font-family="sans-serif" font-size="14" lengthAdjust="spacing" textLength="84" x="356" y="1002.5259">&#25512;&#29702;&#36807;&#31243;&#23637;&#31034;</text><path d="M296,907.3618 L306,907.3618 C321,907.3618 321,996.042 336,996.042 L346,996.042 " fill="none" style="stroke:#181818;stroke-width:1.0;"/><rect fill="#FFA07A" height="39.1201" style="stroke:#181818;stroke-width:1.5;" width="132" x="346" y="1035.6021"/><text fill="#000000" font-family="sans-serif" font-size="14" lengthAdjust="spacing" textLength="112" x="356" y="1061.646">&#36923;&#36753;&#38382;&#39064;&#33258;&#21160;&#29702;&#35299;</text><path d="M296,907.3618 L306,907.3618 C321,907.3618 321,1055.1621 336,1055.1621 L346,1055.1621 " fill="none" style="stroke:#181818;stroke-width:1.0;"/><rect fill="#FFA07A" height="39.1201" style="stroke:#181818;stroke-width:1.5;" width="76" x="346" y="1094.7222"/><text fill="#000000" font-family="sans-serif" font-size="14" lengthAdjust="spacing" textLength="56" x="356" y="1120.7661">&#35770;&#35777;&#25552;&#21462;</text><path d="M296,907.3618 L306,907.3618 C321,907.3618 321,1114.2822 336,1114.2822 L346,1114.2822 " fill="none" style="stroke:#181818;stroke-width:1.0;"/><path d="M114,1247.3025 L124,1247.3025 C139,1247.3025 139,907.3618 154,907.3618 L164,907.3618 " fill="none" style="stroke:#181818;stroke-width:1.0;"/><rect fill="#F1F1F1" height="39.1201" style="stroke:#181818;stroke-width:1.5;" width="131" x="164" y="1183.4023"/><text fill="#000000" font-family="sans-serif" font-size="14" lengthAdjust="spacing" textLength="111" x="174" y="1209.4463">&#36923;&#36753;CNL&#36716;&#21270;&#21151;&#33021;</text><rect fill="#F1F1F1" height="39.1201" style="stroke:#181818;stroke-width:1.5;" width="137" x="345" y="1153.8423"/><text fill="#000000" font-family="sans-serif" font-size="14" lengthAdjust="spacing" textLength="117" x="355" y="1179.8862">CNL&#36716;&#20026;ASP/ImLP</text><path d="M295,1202.9624 L305,1202.9624 C320,1202.9624 320,1173.4023 335,1173.4023 L345,1173.4023 " fill="none" style="stroke:#181818;stroke-width:1.0;"/><rect fill="#FFA07A" height="39.1201" style="stroke:#181818;stroke-width:1.5;" width="92" x="345" y="1212.9624"/><text fill="#000000" font-family="sans-serif" font-size="14" lengthAdjust="spacing" textLength="72" x="355" y="1239.0063">NL&#36716;&#20026;CNL</text><path d="M295,1202.9624 L305,1202.9624 C320,1202.9624 320,1232.5225 335,1232.5225 L345,1232.5225 " fill="none" style="stroke:#181818;stroke-width:1.0;"/><path d="M114,1247.3025 L124,1247.3025 C139,1247.3025 139,1202.9624 154,1202.9624 L164,1202.9624 " fill="none" style="stroke:#181818;stroke-width:1.0;"/><rect fill="#F1F1F1" height="39.1201" style="stroke:#181818;stroke-width:1.5;" width="104" x="164" y="1538.123"/><text fill="#000000" font-family="sans-serif" font-size="14" lengthAdjust="spacing" textLength="84" x="174" y="1564.167">&#26696;&#20363;&#23637;&#31034;&#21151;&#33021;</text><rect fill="#F1F1F1" height="39.1201" style="stroke:#181818;stroke-width:1.5;" width="132" x="318" y="1272.0825"/><text fill="#000000" font-family="sans-serif" font-size="14" lengthAdjust="spacing" textLength="112" x="328" y="1298.1265">&#23637;&#31034;&#36923;&#36753;&#24605;&#32500;&#26696;&#20363;</text><path d="M268,1557.6831 L278,1557.6831 C293,1557.6831 293,1291.6426 308,1291.6426 L318,1291.6426 " fill="none" style="stroke:#181818;stroke-width:1.0;"/><rect fill="#F1F1F1" height="39.1201" style="stroke:#181818;stroke-width:1.5;" width="164" x="318" y="1331.2026"/><text fill="#000000" font-family="sans-serif" font-size="14" lengthAdjust="spacing" textLength="144" x="328" y="1357.2466">&#26597;&#35810;/&#31579;&#36873;&#36923;&#36753;&#24605;&#32500;&#26696;&#20363;</text><path d="M268,1557.6831 L278,1557.6831 C293,1557.6831 293,1350.7627 308,1350.7627 L318,1350.7627 " fill="none" style="stroke:#181818;stroke-width:1.0;"/><rect fill="#F1F1F1" height="39.1201" style="stroke:#181818;stroke-width:1.5;" width="118" x="318" y="1390.3228"/><text fill="#000000" font-family="sans-serif" font-size="14" lengthAdjust="spacing" textLength="98" x="328" y="1416.3667">&#26696;&#20363;&#27714;&#35299;&#32534;&#36753;&#22120;</text><path d="M268,1557.6831 L278,1557.6831 C293,1557.6831 293,1409.8828 308,1409.8828 L318,1409.8828 " fill="none" style="stroke:#181818;stroke-width:1.0;"/><rect fill="#F1F1F1" height="39.1201" style="stroke:#181818;stroke-width:1.5;" width="131" x="318" y="1449.4429"/><text fill="#000000" font-family="sans-serif" font-size="14" lengthAdjust="spacing" textLength="111" x="328" y="1475.4868">&#23637;&#31034;&#26696;&#20363;ASP&#34920;&#31034;</text><path d="M268,1557.6831 L278,1557.6831 C293,1557.6831 293,1469.0029 308,1469.0029 L318,1469.0029 " fill="none" style="stroke:#181818;stroke-width:1.0;"/><rect fill="#F1F1F1" height="39.1201" style="stroke:#181818;stroke-width:1.5;" width="132" x="318" y="1508.563"/><text fill="#000000" font-family="sans-serif" font-size="14" lengthAdjust="spacing" textLength="112" x="328" y="1534.6069">&#23637;&#31034;&#26696;&#20363;&#36923;&#36753;&#34920;&#31034;</text><path d="M268,1557.6831 L278,1557.6831 C293,1557.6831 293,1528.123 308,1528.123 L318,1528.123 " fill="none" style="stroke:#181818;stroke-width:1.0;"/><rect fill="#FFA07A" height="39.1201" style="stroke:#181818;stroke-width:1.5;" width="104" x="318" y="1567.6831"/><text fill="#000000" font-family="sans-serif" font-size="14" lengthAdjust="spacing" textLength="84" x="328" y="1593.7271">&#26696;&#20363;&#35299;&#26512;&#23637;&#31034;</text><path d="M268,1557.6831 L278,1557.6831 C293,1557.6831 293,1587.2432 308,1587.2432 L318,1587.2432 " fill="none" style="stroke:#181818;stroke-width:1.0;"/><rect fill="#FFA07A" height="39.1201" style="stroke:#181818;stroke-width:1.5;" width="132" x="318" y="1626.8032"/><text fill="#000000" font-family="sans-serif" font-size="14" lengthAdjust="spacing" textLength="112" x="328" y="1652.8472">&#32479;&#35745;&#26696;&#20363;&#23436;&#25104;&#25928;&#26524;</text><path d="M268,1557.6831 L278,1557.6831 C293,1557.6831 293,1646.3633 308,1646.3633 L318,1646.3633 " fill="none" style="stroke:#181818;stroke-width:1.0;"/><rect fill="#FFA07A" height="39.1201" style="stroke:#181818;stroke-width:1.5;" width="104" x="318" y="1685.9233"/><text fill="#000000" font-family="sans-serif" font-size="14" lengthAdjust="spacing" textLength="84" x="328" y="1711.9673">&#26696;&#20363;&#38382;&#39064;&#35770;&#22363;</text><path d="M268,1557.6831 L278,1557.6831 C293,1557.6831 293,1705.4834 308,1705.4834 L318,1705.4834 " fill="none" style="stroke:#181818;stroke-width:1.0;"/><rect fill="#FFA07A" height="39.1201" style="stroke:#181818;stroke-width:1.5;" width="76" x="318" y="1745.0435"/><text fill="#000000" font-family="sans-serif" font-size="14" lengthAdjust="spacing" textLength="56" x="328" y="1771.0874">&#26696;&#20363;&#31508;&#35760;</text><path d="M268,1557.6831 L278,1557.6831 C293,1557.6831 293,1764.6035 308,1764.6035 L318,1764.6035 " fill="none" style="stroke:#181818;stroke-width:1.0;"/><rect fill="#FFA07A" height="39.1201" style="stroke:#181818;stroke-width:1.5;" width="76" x="318" y="1804.1636"/><text fill="#000000" font-family="sans-serif" font-size="14" lengthAdjust="spacing" textLength="56" x="328" y="1830.2075">&#26696;&#20363;&#21453;&#39304;</text><path d="M268,1557.6831 L278,1557.6831 C293,1557.6831 293,1823.7236 308,1823.7236 L318,1823.7236 " fill="none" style="stroke:#181818;stroke-width:1.0;"/><path d="M114,1247.3025 L124,1247.3025 C139,1247.3025 139,1557.6831 154,1557.6831 L164,1557.6831 " fill="none" style="stroke:#181818;stroke-width:1.0;"/><rect fill="#F1F1F1" height="39.1201" style="stroke:#181818;stroke-width:1.5;" width="118" x="164" y="2040.644"/><text fill="#000000" font-family="sans-serif" font-size="14" lengthAdjust="spacing" textLength="98" x="174" y="2066.688">&#26696;&#20363;&#24211;&#32534;&#36753;&#21151;&#33021;</text><rect fill="#F1F1F1" height="39.1201" style="stroke:#181818;stroke-width:1.5;" width="76" x="332" y="1922.4038"/><text fill="#000000" font-family="sans-serif" font-size="14" lengthAdjust="spacing" textLength="56" x="342" y="1948.4478">&#26032;&#22686;&#26696;&#20363;</text><rect fill="#F1F1F1" height="39.1201" style="stroke:#181818;stroke-width:1.5;" width="104" x="458" y="1863.2837"/><text fill="#000000" font-family="sans-serif" font-size="14" lengthAdjust="spacing" textLength="84" x="468" y="1889.3276">&#26032;&#22686;&#26696;&#20363;&#39064;&#30446;</text><path d="M408,1941.9639 L418,1941.9639 C433,1941.9639 433,1882.8438 448,1882.8438 L458,1882.8438 " fill="none" style="stroke:#181818;stroke-width:1.0;"/><rect fill="#F1F1F1" height="39.1201" style="stroke:#181818;stroke-width:1.5;" width="131" x="458" y="1922.4038"/><text fill="#000000" font-family="sans-serif" font-size="14" lengthAdjust="spacing" textLength="111" x="468" y="1948.4478">&#26032;&#22686;&#26696;&#20363;ASP&#34920;&#36798;</text><path d="M408,1941.9639 L418,1941.9639 C433,1941.9639 433,1941.9639 448,1941.9639 L458,1941.9639 " fill="none" style="stroke:#181818;stroke-width:1.0;"/><rect fill="#F1F1F1" height="39.1201" style="stroke:#181818;stroke-width:1.5;" width="132" x="458" y="1981.5239"/><text fill="#000000" font-family="sans-serif" font-size="14" lengthAdjust="spacing" textLength="112" x="468" y="2007.5679">&#26032;&#22686;&#26696;&#20363;&#36923;&#36753;&#34920;&#36798;</text><path d="M408,1941.9639 L418,1941.9639 C433,1941.9639 433,2001.084 448,2001.084 L458,2001.084 " fill="none" style="stroke:#181818;stroke-width:1.0;"/><path d="M282,2060.2041 L292,2060.2041 C307,2060.2041 307,1941.9639 322,1941.9639 L332,1941.9639 " fill="none" style="stroke:#181818;stroke-width:1.0;"/><rect fill="#F1F1F1" height="39.1201" style="stroke:#181818;stroke-width:1.5;" width="76" x="332" y="2099.7642"/><text fill="#000000" font-family="sans-serif" font-size="14" lengthAdjust="spacing" textLength="56" x="342" y="2125.8081">&#20462;&#25913;&#26696;&#20363;</text><rect fill="#F1F1F1" height="39.1201" style="stroke:#181818;stroke-width:1.5;" width="104" x="458" y="2040.644"/><text fill="#000000" font-family="sans-serif" font-size="14" lengthAdjust="spacing" textLength="84" x="468" y="2066.688">&#20462;&#25913;&#26696;&#20363;&#39064;&#30446;</text><path d="M408,2119.3242 L418,2119.3242 C433,2119.3242 433,2060.2041 448,2060.2041 L458,2060.2041 " fill="none" style="stroke:#181818;stroke-width:1.0;"/><rect fill="#F1F1F1" height="39.1201" style="stroke:#181818;stroke-width:1.5;" width="131" x="458" y="2099.7642"/><text fill="#000000" font-family="sans-serif" font-size="14" lengthAdjust="spacing" textLength="111" x="468" y="2125.8081">&#20462;&#25913;&#26696;&#20363;ASP&#34920;&#36798;</text><path d="M408,2119.3242 L418,2119.3242 C433,2119.3242 433,2119.3242 448,2119.3242 L458,2119.3242 " fill="none" style="stroke:#181818;stroke-width:1.0;"/><rect fill="#F1F1F1" height="39.1201" style="stroke:#181818;stroke-width:1.5;" width="132" x="458" y="2158.8843"/><text fill="#000000" font-family="sans-serif" font-size="14" lengthAdjust="spacing" textLength="112" x="468" y="2184.9282">&#20462;&#25913;&#26696;&#20363;&#36923;&#36753;&#34920;&#36798;</text><path d="M408,2119.3242 L418,2119.3242 C433,2119.3242 433,2178.4443 448,2178.4443 L458,2178.4443 " fill="none" style="stroke:#181818;stroke-width:1.0;"/><path d="M282,2060.2041 L292,2060.2041 C307,2060.2041 307,2119.3242 322,2119.3242 L332,2119.3242 " fill="none" style="stroke:#181818;stroke-width:1.0;"/><rect fill="#F1F1F1" height="39.1201" style="stroke:#181818;stroke-width:1.5;" width="104" x="332" y="2218.0044"/><text fill="#000000" font-family="sans-serif" font-size="14" lengthAdjust="spacing" textLength="84" x="342" y="2244.0483">&#23457;&#26680;&#26696;&#20363;&#20462;&#25913;</text><path d="M282,2060.2041 L292,2060.2041 C307,2060.2041 307,2237.5645 322,2237.5645 L332,2237.5645 " fill="none" style="stroke:#181818;stroke-width:1.0;"/><path d="M114,1247.3025 L124,1247.3025 C139,1247.3025 139,2060.2041 154,2060.2041 L164,2060.2041 " fill="none" style="stroke:#181818;stroke-width:1.0;"/><rect fill="#F1F1F1" height="39.1201" style="stroke:#181818;stroke-width:1.5;" width="104" x="164" y="2336.2446"/><text fill="#000000" font-family="sans-serif" font-size="14" lengthAdjust="spacing" textLength="84" x="174" y="2362.2886">&#24179;&#21488;&#31649;&#29702;&#21151;&#33021;</text><rect fill="#F1F1F1" height="39.1201" style="stroke:#181818;stroke-width:1.5;" width="104" x="318" y="2277.1245"/><text fill="#000000" font-family="sans-serif" font-size="14" lengthAdjust="spacing" textLength="84" x="328" y="2303.1685">&#31649;&#29702;&#29992;&#25143;&#20449;&#24687;</text><path d="M268,2355.8047 L278,2355.8047 C293,2355.8047 293,2296.6846 308,2296.6846 L318,2296.6846 " fill="none" style="stroke:#181818;stroke-width:1.0;"/><rect fill="#FFA07A" height="39.1201" style="stroke:#181818;stroke-width:1.5;" width="164" x="318" y="2336.2446"/><text fill="#000000" font-family="sans-serif" font-size="14" lengthAdjust="spacing" textLength="144" x="328" y="2362.2886">&#30417;&#25511;/&#32479;&#35745;&#26696;&#20363;&#23436;&#25104;&#24773;&#20917;</text><path d="M268,2355.8047 L278,2355.8047 C293,2355.8047 293,2355.8047 308,2355.8047 L318,2355.8047 " fill="none" style="stroke:#181818;stroke-width:1.0;"/><rect fill="#FFA07A" height="39.1201" style="stroke:#181818;stroke-width:1.5;" width="104" x="318" y="2395.3647"/><text fill="#000000" font-family="sans-serif" font-size="14" lengthAdjust="spacing" textLength="84" x="328" y="2421.4087">&#31649;&#29702;&#29992;&#25143;&#21453;&#39304;</text><path d="M268,2355.8047 L278,2355.8047 C293,2355.8047 293,2414.9248 308,2414.9248 L318,2414.9248 " fill="none" style="stroke:#181818;stroke-width:1.0;"/><path d="M114,1247.3025 L124,1247.3025 C139,1247.3025 139,2355.8047 154,2355.8047 L164,2355.8047 " fill="none" style="stroke:#181818;stroke-width:1.0;"/><!--SRC=[xLTRJnjN47xVNt6KFYGeIY09pGEgeYGqIPj25OKqBrKVdE0Igs0Zio2bLIKJm3ROmGRCrLmC8U2GO8EucLrV_akxv-8d_aBdd5d36koyzGqBYTsPENFzPkRi_JxTvTTxFDxE7bSleMChOgZ0qgjqQLPaYYApUf8Fi_GMZK-Sv4SrtQDtkyaLDZrFjpT4SOIEVQB7UpIsS_7S5KsxIlh-y7XxNNvN3-dsUDtwsrutyVdrDpwjBaEJnrWiRXMJ5wsSvADqTvgl6-M0AOeJBB34pNss6hQA4M3XAPwV0HQVZfQNre38qn5gn2JBMFytC6YLbkZs73o8KboiHi4MUaidepIppCTt-9SD6WyxzOD2K2Aoso8TECalq5Y4VYomkIdB6BSA9Pv8WnMhC0LdhTnx6ezM-GO9oSV02WJ24oieJsEpR7nJXBRuy655RRZrvpP8i7Hup-Jc2jq9qf53KVX2epCi77_GyOnlZw9cF4AF3p44MfobuHs-dO0yI4EcmJz7BkQ76bEWN6IskJc4pZXb54lcWMTcsTwqRJsqHSVIu8ELinEEoGGh-5gUpPJNvb2CnuDYymEaaUs-WmU9caM3pgVBSoCYQs9eX2qFWt-O9cU2qAfyNewe-Yivg3zF9Sugh-f3DzvPkGZ2hGL4Rq4jwOe1nI2G97ZviQVj6QQ8BmoZXpIpO1sF8WR0GymREu2QJaiax0p10wYwVQPAAca4VGHqu6dWiNo2c-FomSZIP4fA5oQviGULgGfcOHZzbvXIO444dKBICZ_Is9Z8xhEvyMlbnO3O64GRCe96QLggIEwB_NrHca2So5Ym10l3fz5Lm1D59M9ibwvlbaCnDdjOdjrlW93kO7mgZO2Nf8ox0WVm46hUOhkUox5mJ4e7XkZ85niRuxAia42UpCXeeoOWnovzXIZHKeoS8tOyU77w_4zW0_uaiCrv6ZBe-0gmfBPmaE-QB1NYsqLuvUOKMrwK2XL-P0QKOw8KWjn9-VLD10WMxbIUhYtJS8ebZjdAH_aQouhD87GDHDyitnNM9KO1K2fqMLB76Ktxhaz_s-s-ftbzdMxobqRWzzpNx-rizVczRZzfqlu6cKPRIBjEBiubxVfr0etDmaSm9sasZ_04wdL25zFSA64Ni9aGMrKz0iXEHoJ_rs_QF5rlz0vNTu_F-njXOm6sc0NKodvM_MCPHbqvW3Cx66n4SRvUf553EtE5GpV7Wye9jfUcmIYRsK6Eel5vanQc6-M_a84KnRHoMs1J70opcNc72cIofQ7oVDmcArCAsj2QukZWGjIM-O6d1d4WGoYIeqxWAqlbeLi0WhoGGHRW6U1KJioBR1Qw5UOycbPJ1oUtx2d8h-rnfKtHa3qFeS6nevM3JYJNSTDkBAURvz8DmncmnvPAYC1oO9H5FjMMmnZOXm3056Dms4DBD3X2CyUrud7oqMKidth4Ji3zLyDslP5SGrHa394T1EzeRCQH9EczMZWEZv462w0occgeguY0hD9cJnZbg3FPTJOtXhZoKMJN6lbs4f9RJqOzslF1MIrRDVB1KR6Qhc37oR7NvodpV4yf8T3DbkDrimoh6RQa7M4c2gkPJOTX4DNLPnSaOz2bP5qX_YKXCZjrsJJslhmHTkRMcB8JS9PUw6uOQsVfggRWEBv8nso9Oh76aKgwR2wnIXavCXqMd1Id1IVzd8Mg8-SjK4XjAeTC55H1uv35gUE860dsr2gjii5ihO8beVat6slKRMY41WzgdN2ehMJ-AddjwdEtmeBmanltIA_VrmLtL_KkcMfs5UMEnyaeAU1sE2cNpimEycogNJXO0idzKvxjFaeW2VUZb5Chieh7uejyVqrTPKBCNA_YYUomPHv9NdOOO6Ux1mlBEax9gMx4gvoqScDMFYN7qCYkPNm-avkPFvM8Y4819Eo9TL7YQplETcqJhX4JI98yk4cjLrp3nMKPap2oxEhQXp9fEQbKwy0Xa9FtDrouTYvLaU2kmpVXPYylyUN00eUTZcnSZAXJAf0p9eXnLXIyEnO7ozAZnA6OZTdcgr9MIb9ZGqg4uzpyL0N2gd8vfCNHYiXjLPA33FZ424zADR5uEJXPfS0gB5gv1LcnWDnRJaFLEhA3rh5qXHOB_7Egl0QNdGbDk- -6JpVyV8EN_-zhxckVR9UNgCjBrEKbwl8ITNc9khn4rRr4gL_LjdhMxVBglxItaG6tly_Zyv9RDsyttMw-UUVQOx-7F7Q_8hVkagOxBSrDBKtVajQE5qIo6xHhJvwr3TmcVRv-_sitwVJqwNxFgtuTD3HeJrq3BlAytwjxUjmjHBvTUz7UG3eULOZaaNV0u_TvUznUNNlwiXs5o0y-lQFNfolXkyqt7dfqqk7sWsFaPRlslVjtLt-t3aTV-peztguMykJXJrgRozlLx-e2Ct- -qLfXs-d-jotGxVy1]--></g></svg>