<?xml version="1.0" encoding="us-ascii" standalone="no"?><svg xmlns="http://www.w3.org/2000/svg" xmlns:xlink="http://www.w3.org/1999/xlink" contentStyleType="text/css" height="699px" preserveAspectRatio="none" style="width:583px;height:699px;background:#FFFFFF;" version="1.1" viewBox="0 0 583 699" width="583px" zoomAndPan="magnify"><defs/><g><line style="stroke:#181818;stroke-width:1.5;" x1="48" x2="48" y1="66.3887" y2="86.3887"/><rect fill="#F1F1F1" height="36.3887" style="stroke:#181818;stroke-width:1.5;" width="76" x="10" y="86.3887"/><text fill="#000000" font-family="sans-serif" font-size="12" lengthAdjust="spacing" textLength="56" x="20" y="110.1406">answer(a)</text><line style="stroke:#181818;stroke-width:1.5;" x1="48" x2="58" y1="155.9717" y2="155.9717"/><rect fill="#F1F1F1" height="36.3887" style="stroke:#181818;stroke-width:1.5;" width="44" x="58" y="137.7773"/><text fill="#000000" font-family="sans-serif" font-size="12" lengthAdjust="spacing" textLength="24" x="68" y="161.5293">&#20551;&#35774;</text><line style="stroke:#181818;stroke-width:1.5;" x1="80" x2="90" y1="207.3604" y2="207.3604"/><rect fill="#F1F1F1" height="36.3887" style="stroke:#181818;stroke-width:1.5;" width="108" x="90" y="189.166"/><text fill="#000000" font-family="sans-serif" font-size="12" lengthAdjust="spacing" textLength="88" x="100" y="212.918">eat(a, ham, yes)</text><line style="stroke:#181818;stroke-width:1.5;" x1="80" x2="90" y1="258.749" y2="258.749"/><rect fill="#F1F1F1" height="36.3887" style="stroke:#181818;stroke-width:1.5;" width="105" x="90" y="240.5547"/><text fill="#000000" font-family="sans-serif" font-size="12" lengthAdjust="spacing" textLength="85" x="100" y="264.3066">eat(a, pork, tod)</text><line style="stroke:#181818;stroke-width:1.5;" x1="80" x2="80" y1="174.166" y2="258.749"/><line style="stroke:#181818;stroke-width:1.5;" x1="48" x2="58" y1="310.1377" y2="310.1377"/><rect fill="#F1F1F1" height="36.3887" style="stroke:#181818;stroke-width:1.5;" width="44" x="58" y="291.9434"/><text fill="#000000" font-family="sans-serif" font-size="12" lengthAdjust="spacing" textLength="24" x="68" y="315.6953">&#35268;&#21017;</text><line style="stroke:#181818;stroke-width:1.5;" x1="80" x2="90" y1="361.5264" y2="361.5264"/><rect fill="#F1F1F1" height="36.3887" style="stroke:#181818;stroke-width:1.5;" width="34" x="90" y="343.332"/><text fill="#000000" font-family="sans-serif" font-size="12" lengthAdjust="spacing" textLength="14" x="100" y="367.084">p1</text><line style="stroke:#181818;stroke-width:1.5;" x1="107" x2="117" y1="412.915" y2="412.915"/><rect fill="#F1F1F1" height="36.3887" style="stroke:#181818;stroke-width:1.5;" width="49" x="117" y="394.7207"/><text fill="#000000" font-family="sans-serif" font-size="12" lengthAdjust="spacing" textLength="29" x="127" y="418.4727">today</text><line style="stroke:#181818;stroke-width:1.5;" x1="141.5" x2="151.5" y1="464.3037" y2="464.3037"/><rect fill="#F1F1F1" height="36.3887" style="stroke:#181818;stroke-width:1.5;" width="230" x="151.5" y="446.1094"/><text fill="#000000" font-family="sans-serif" font-size="12" lengthAdjust="spacing" textLength="210" x="161.5" y="469.8613">if eat(a, ham, tod) then eat(b, pork, tod)</text><line style="stroke:#181818;stroke-width:1.5;" x1="141.5" x2="141.5" y1="431.1094" y2="464.3037"/><line style="stroke:#181818;stroke-width:1.5;" x1="107" x2="117" y1="515.6924" y2="515.6924"/><rect fill="#F1F1F1" height="36.3887" style="stroke:#181818;stroke-width:1.5;" width="72" x="117" y="497.498"/><text fill="#000000" font-family="sans-serif" font-size="12" lengthAdjust="spacing" textLength="52" x="127" y="521.25">yesterday</text><line style="stroke:#181818;stroke-width:1.5;" x1="153" x2="163" y1="567.0811" y2="567.0811"/><rect fill="#F1F1F1" height="36.3887" style="stroke:#181818;stroke-width:1.5;" width="29" x="163" y="548.8867"/><text fill="#000000" font-family="sans-serif" font-size="12" lengthAdjust="spacing" textLength="9" x="173" y="572.6387">...</text><line style="stroke:#181818;stroke-width:1.5;" x1="153" x2="153" y1="533.8867" y2="567.0811"/><line style="stroke:#181818;stroke-width:1.5;" x1="107" x2="107" y1="379.7207" y2="515.6924"/><line style="stroke:#181818;stroke-width:1.5;" x1="80" x2="90" y1="618.4697" y2="618.4697"/><rect fill="#F1F1F1" height="36.3887" style="stroke:#181818;stroke-width:1.5;" width="34" x="90" y="600.2754"/><text fill="#000000" font-family="sans-serif" font-size="12" lengthAdjust="spacing" textLength="14" x="100" y="624.0273">p2</text><line style="stroke:#181818;stroke-width:1.5;" x1="80" x2="90" y1="669.8584" y2="669.8584"/><rect fill="#F1F1F1" height="36.3887" style="stroke:#181818;stroke-width:1.5;" width="34" x="90" y="651.6641"/><text fill="#000000" font-family="sans-serif" font-size="12" lengthAdjust="spacing" textLength="14" x="100" y="675.416">p3</text><line style="stroke:#181818;stroke-width:1.5;" x1="80" x2="80" y1="328.332" y2="669.8584"/><line style="stroke:#181818;stroke-width:1.5;" x1="48" x2="48" y1="122.7773" y2="310.1377"/><line style="stroke:#181818;stroke-width:1.5;" x1="439.5" x2="439.5" y1="66.3887" y2="86.3887"/><rect fill="#F1F1F1" height="36.3887" style="stroke:#181818;stroke-width:1.5;" width="76" x="401.5" y="86.3887"/><text fill="#000000" font-family="sans-serif" font-size="12" lengthAdjust="spacing" textLength="56" x="411.5" y="110.1406">answer(b)</text><line style="stroke:#181818;stroke-width:1.5;" x1="535" x2="535" y1="66.3887" y2="86.3887"/><rect fill="#F1F1F1" height="36.3887" style="stroke:#181818;stroke-width:1.5;" width="75" x="497.5" y="86.3887"/><text fill="#000000" font-family="sans-serif" font-size="12" lengthAdjust="spacing" textLength="55" x="507.5" y="110.1406">answer(c)</text><line style="stroke:#181818;stroke-width:1.5;" x1="48" x2="535" y1="66.3887" y2="66.3887"/><rect fill="#F1F1F1" height="36.3887" style="stroke:#181818;stroke-width:1.5;" width="61" x="261" y="10"/><text fill="#000000" font-family="sans-serif" font-size="12" lengthAdjust="spacing" textLength="41" x="271" y="33.752">answer</text><line style="stroke:#181818;stroke-width:1.5;" x1="291.5" x2="291.5" y1="46.3887" y2="66.3887"/><!--SRC=[vLDBZjD04DttAMg7BGVZV9Y5DK93CZyDoIWYOVPbkyPknUuEtUM4W5WW8GrNu0JiE0At6McEGJlse0pY1YpS_UgzUbLjT_d4CXhU9XRIGgzVg-mIA_4CZYtlIdhba9DE9UO6A_ZaGe1GQKQMMjcE06ZM1RslIQKqrX_6scHa9hhK1hQ5P3f8S_8Siqog7FeTxKXCLxdHjSfQKreIcZ_gL2fQ5Z9TAR8MeZt_sQtDS_oYEwW809NTaX718_BGTq40zr_k7dx-Qc00XEnX3mgiUh0ZwpzXrzgiUi0wQtqFFxxUV_lUPgpx-preLDorE01v-wHWumGkIEtPvE-2pk1QCfc32c4OTWq6tJuyU874FmXINmXnGYfpD-B0l-xjV_i8yn8LlvjDOKF6kec4VZY81gDmw9qR2UUKGFy8ec4yYkBe9KmMIsXaNtWNy-bc05RN9YN8f6KZaxgPQLzSuGRXRQrOLXH34tdBcG-BiqSIpjH66gqgKYokRcPj4bngNgmrxvEFHi_7ajqlOTp1u6OcJkaMwvATDTNDxCTmCNuZfgZo6dFNvcCX9cxysUnYc5p_1W00]--></g></svg>