<?xml version="1.0" encoding="us-ascii" standalone="no"?><svg xmlns="http://www.w3.org/2000/svg" xmlns:xlink="http://www.w3.org/1999/xlink" contentStyleType="text/css" height="375px" preserveAspectRatio="none" style="width:792px;height:375px;background:#FFFFFF;" version="1.1" viewBox="0 0 792 375" width="792px" zoomAndPan="magnify"><defs/><g><rect fill="#F1F1F1" height="87.3604" rx="12.5" ry="12.5" style="stroke:#181818;stroke-width:1.5;" width="167" x="10" y="143.2402"/><text fill="#000000" font-family="sans-serif" font-size="14" lengthAdjust="spacing" textLength="60" x="20" y="169.2842">v_answer</text><line style="stroke:#181818;stroke-width:1.0;" x1="10" x2="177" y1="177.3604" y2="177.3604"/><text fill="#000000" font-family="sans-serif" font-size="14" lengthAdjust="spacing" textLength="147" x="20" y="198.4043">least_accepted_num=2</text><text fill="#000000" font-family="sans-serif" font-size="14" lengthAdjust="spacing" textLength="147" x="20" y="217.5244">most_accepted_num=2</text><rect fill="#F1F1F1" height="106.4805" rx="12.5" ry="12.5" style="stroke:#181818;stroke-width:1.5;" width="167" x="227" y="45"/><text fill="#000000" font-family="sans-serif" font-size="14" lengthAdjust="spacing" textLength="34" x="237" y="71.0439">v_obj</text><line style="stroke:#181818;stroke-width:1.0;" x1="227" x2="394" y1="79.1201" y2="79.1201"/><text fill="#000000" font-family="sans-serif" font-size="14" lengthAdjust="spacing" textLength="147" x="237" y="100.1641">least_accepted_num=1</text><text fill="#000000" font-family="sans-serif" font-size="14" lengthAdjust="spacing" textLength="147" x="237" y="119.2842">most_accepted_num=2</text><text fill="#000000" font-family="sans-serif" font-size="14" lengthAdjust="spacing" textLength="110" x="237" y="138.4043">constrain=person</text><rect fill="#F1F1F1" height="68.2402" rx="12.5" ry="12.5" style="stroke:#181818;stroke-width:1.5;" width="150" x="444" y="20"/><text fill="#000000" font-family="sans-serif" font-size="14" lengthAdjust="spacing" textLength="24" x="454" y="46.0439">op1</text><line style="stroke:#181818;stroke-width:1.0;" x1="444" x2="594" y1="54.1201" y2="54.1201"/><text fill="#000000" font-family="sans-serif" font-size="14" lengthAdjust="spacing" textLength="130" x="454" y="75.1641">precondition=person</text><rect fill="#F1F1F1" height="39.1201" rx="12.5" ry="12.5" style="stroke:#181818;stroke-width:1.5;" width="33" x="644" y="34.5601"/><text fill="#000000" font-family="sans-serif" font-size="14" lengthAdjust="spacing" textLength="13" x="654" y="60.604">r1</text><path d="M594,54.1201 L604,54.1201 C619,54.1201 619,54.1201 634,54.1201 L644,54.1201 " fill="none" style="stroke:#181818;stroke-width:1.0;"/><path d="M394,98.2402 L404,98.2402 C419,98.2402 419,54.1201 434,54.1201 L444,54.1201 " fill="none" style="stroke:#181818;stroke-width:1.0;"/><rect fill="#F1F1F1" height="68.2402" rx="12.5" ry="12.5" style="stroke:#181818;stroke-width:1.5;" width="150" x="444" y="108.2402"/><text fill="#000000" font-family="sans-serif" font-size="14" lengthAdjust="spacing" textLength="24" x="454" y="134.2842">op1</text><line style="stroke:#181818;stroke-width:1.0;" x1="444" x2="594" y1="142.3604" y2="142.3604"/><text fill="#000000" font-family="sans-serif" font-size="14" lengthAdjust="spacing" textLength="130" x="454" y="163.4043">precondition=person</text><rect fill="#F1F1F1" height="39.1201" rx="12.5" ry="12.5" style="stroke:#181818;stroke-width:1.5;" width="33" x="644" y="122.8003"/><text fill="#000000" font-family="sans-serif" font-size="14" lengthAdjust="spacing" textLength="13" x="654" y="148.8442">r2</text><path d="M594,142.3604 L604,142.3604 C619,142.3604 619,142.3604 634,142.3604 L644,142.3604 " fill="none" style="stroke:#181818;stroke-width:1.0;"/><path d="M394,98.2402 L404,98.2402 C419,98.2402 419,142.3604 434,142.3604 L444,142.3604 " fill="none" style="stroke:#181818;stroke-width:1.0;"/><path d="M177,186.9204 L187,186.9204 C202,186.9204 202,98.2402 217,98.2402 L227,98.2402 " fill="none" style="stroke:#181818;stroke-width:1.0;"/><rect fill="#F1F1F1" height="87.3604" rx="12.5" ry="12.5" style="stroke:#181818;stroke-width:1.5;" width="167" x="227" y="231.4805"/><text fill="#000000" font-family="sans-serif" font-size="14" lengthAdjust="spacing" textLength="39" x="237" y="257.5244">v_rule</text><line style="stroke:#181818;stroke-width:1.0;" x1="227" x2="394" y1="265.6006" y2="265.6006"/><text fill="#000000" font-family="sans-serif" font-size="14" lengthAdjust="spacing" textLength="147" x="237" y="286.6445">least_accepted_num=1</text><text fill="#000000" font-family="sans-serif" font-size="14" lengthAdjust="spacing" textLength="147" x="237" y="305.7646">most_accepted_num=1</text><rect fill="#F1F1F1" height="39.1201" rx="12.5" ry="12.5" style="stroke:#181818;stroke-width:1.5;" width="36" x="444" y="196.4805"/><text fill="#000000" font-family="sans-serif" font-size="14" lengthAdjust="spacing" textLength="16" x="454" y="222.5244">p1</text><rect fill="#F1F1F1" height="39.1201" rx="12.5" ry="12.5" style="stroke:#181818;stroke-width:1.5;" width="33" x="530" y="196.4805"/><text fill="#000000" font-family="sans-serif" font-size="14" lengthAdjust="spacing" textLength="13" x="540" y="222.5244">r3</text><path d="M480,216.0405 L490,216.0405 C505,216.0405 505,216.0405 520,216.0405 L530,216.0405 " fill="none" style="stroke:#181818;stroke-width:1.0;"/><path d="M394,275.1606 L404,275.1606 C419,275.1606 419,216.0405 434,216.0405 L444,216.0405 " fill="none" style="stroke:#181818;stroke-width:1.0;"/><rect fill="#F1F1F1" height="39.1201" rx="12.5" ry="12.5" style="stroke:#181818;stroke-width:1.5;" width="36" x="444" y="285.1606"/><text fill="#000000" font-family="sans-serif" font-size="14" lengthAdjust="spacing" textLength="16" x="454" y="311.2046">p2</text><rect fill="#F1F1F1" height="87.3604" rx="12.5" ry="12.5" style="stroke:#181818;stroke-width:1.5;" width="167" x="530" y="261.0405"/><text fill="#000000" font-family="sans-serif" font-size="14" lengthAdjust="spacing" textLength="13" x="540" y="287.0845">r4</text><line style="stroke:#181818;stroke-width:1.0;" x1="530" x2="697" y1="295.1606" y2="295.1606"/><text fill="#000000" font-family="sans-serif" font-size="14" lengthAdjust="spacing" textLength="147" x="540" y="316.2046">least_accepted_num=1</text><text fill="#000000" font-family="sans-serif" font-size="14" lengthAdjust="spacing" textLength="147" x="540" y="335.3247">most_accepted_num=1</text><rect fill="#F1F1F1" height="39.1201" rx="12.5" ry="12.5" style="stroke:#181818;stroke-width:1.5;" width="33" x="747" y="255.6006"/><text fill="#000000" font-family="sans-serif" font-size="14" lengthAdjust="spacing" textLength="13" x="757" y="281.6445">r5</text><path d="M697,304.7207 L707,304.7207 C722,304.7207 722,275.1606 737,275.1606 L747,275.1606 " fill="none" style="stroke:#181818;stroke-width:1.0;"/><rect fill="#F1F1F1" height="39.1201" rx="12.5" ry="12.5" style="stroke:#181818;stroke-width:1.5;" width="33" x="747" y="314.7207"/><text fill="#000000" font-family="sans-serif" font-size="14" lengthAdjust="spacing" textLength="13" x="757" y="340.7646">r6</text><path d="M697,304.7207 L707,304.7207 C722,304.7207 722,334.2808 737,334.2808 L747,334.2808 " fill="none" style="stroke:#181818;stroke-width:1.0;"/><path d="M480,304.7207 L490,304.7207 C505,304.7207 505,304.7207 520,304.7207 L530,304.7207 " fill="none" style="stroke:#181818;stroke-width:1.0;"/><path d="M394,275.1606 L404,275.1606 C419,275.1606 419,304.7207 434,304.7207 L444,304.7207 " fill="none" style="stroke:#181818;stroke-width:1.0;"/><path d="M177,186.9204 L187,186.9204 C202,186.9204 202,275.1606 217,275.1606 L227,275.1606 " fill="none" style="stroke:#181818;stroke-width:1.0;"/><!--SRC=[dP1VJy8m5CNV-odk8oo1h6FmK4D2GC0WCyGXhwHi5wnP_wJhPlJJsp5uC6gYzgdtxfnVpywaTDmwALGkkO5CImD7ooN2PKK2Lk-vAb_Hafu_f41UkZtFCZGEyxsgv3WYKd_PtP2WiUh3ouy- -fsFP5gLpdAXnWPjgLK32fWsjEKOYrwH2oVq9qK0blvQ6RNXR5NWdzBHCm0ClN06xHYTHsRZVy0QpF1w6P49-jelrPDDmPLxIjPG-_J-Bu3sep2A-uFEmWfOu07e2C81YqCM3c6MRg7vt2MTvMPTHr3gocO8kV1zYaFLzD0bArvpUAoK4n8PD5DdctGXdL-NC5Uri5f9L8wiTaahWZljKgFTMJoAUrFX84NhWy4k8RTuv5NXl3NJkL0d1ilfFLbpTQhuoJ_p_ancskFj6uFPmmS0]--></g></svg>