<?xml version="1.0" encoding="us-ascii" standalone="no"?><svg xmlns="http://www.w3.org/2000/svg" xmlns:xlink="http://www.w3.org/1999/xlink" contentStyleType="text/css" height="490px" preserveAspectRatio="none" style="width:602px;height:490px;background:#FFFFFF;" version="1.1" viewBox="0 0 602 490" width="602px" zoomAndPan="magnify"><defs/><g><text fill="#000000" font-family="sans-serif" font-size="14" font-weight="bold" lengthAdjust="spacing" textLength="105" x="241.5" y="26.0439">&#26696;&#20363;&#25805;&#20316;&#29992;&#20363;&#22270;</text><!--cluster ????(????)--><g id="cluster_&#26696;&#20363;&#25805;&#20316;(&#26680;&#24515;&#38656;&#27714;)"><rect fill="none" height="436" rx="2.5" ry="2.5" style="stroke:#181818;stroke-width:1.0;" width="195" x="401" y="47.1201"/><text fill="#000000" font-family="sans-serif" font-size="14" font-weight="bold" lengthAdjust="spacing" textLength="130" x="433.5" y="65.1641">&#26696;&#20363;&#25805;&#20316;(&#26680;&#24515;&#38656;&#27714;)</text></g><!--cluster ????(????)--><g id="cluster_&#26696;&#20363;&#25805;&#20316;(&#36741;&#21161;&#38656;&#27714;)"><rect fill="none" height="374" rx="2.5" ry="2.5" style="stroke:#181818;stroke-width:1.0;" width="218" x="7" y="110.1201"/><text fill="#000000" font-family="sans-serif" font-size="14" font-weight="bold" lengthAdjust="spacing" textLength="130" x="51" y="128.1641">&#26696;&#20363;&#25805;&#20316;(&#36741;&#21161;&#38656;&#27714;)</text></g><g id="elem_viewCase"><ellipse cx="498.6469" cy="102.158" fill="#F1F1F1" rx="51.1469" ry="16.5378" style="stroke:#181818;stroke-width:0.5;"/><text fill="#000000" font-family="sans-serif" font-size="14" lengthAdjust="spacing" textLength="56" x="468.8976" y="107.1337">&#26597;&#30475;&#26696;&#20363;</text></g><g id="elem_solveCase"><ellipse cx="498.5719" cy="170.3345" fill="#F1F1F1" rx="71.5719" ry="16.7144" style="stroke:#181818;stroke-width:0.5;"/><text fill="#000000" font-family="sans-serif" font-size="14" lengthAdjust="spacing" textLength="84" x="453.5719" y="175.6065">&#32534;&#20889;&#26696;&#20363;&#35299;&#31572;</text></g><g id="elem_submitCaseSolution"><ellipse cx="498.5719" cy="238.3345" fill="#F1F1F1" rx="71.5719" ry="16.7144" style="stroke:#181818;stroke-width:0.5;"/><text fill="#000000" font-family="sans-serif" font-size="14" lengthAdjust="spacing" textLength="84" x="453.5719" y="243.6065">&#25552;&#20132;&#26696;&#20363;&#35299;&#31572;</text></g><g id="elem_checkCaseResult"><ellipse cx="498.5719" cy="306.3345" fill="#F1F1F1" rx="71.5719" ry="16.7144" style="stroke:#181818;stroke-width:0.5;"/><text fill="#000000" font-family="sans-serif" font-size="14" lengthAdjust="spacing" textLength="84" x="453.5719" y="311.6065">&#26597;&#30475;&#35299;&#31572;&#32467;&#26524;</text></g><g id="elem_caseAsp"><ellipse cx="498.5984" cy="376.2398" fill="#F1F1F1" rx="81.0984" ry="18.6197" style="stroke:#181818;stroke-width:0.5;"/><text fill="#000000" font-family="sans-serif" font-size="14" lengthAdjust="spacing" textLength="111" x="440.0984" y="381.5118">&#26597;&#30475;&#26696;&#20363;ASP&#34920;&#31034;</text></g><g id="elem_caseLogic"><ellipse cx="498.4736" cy="448.3148" fill="#F1F1F1" rx="81.4736" ry="18.6947" style="stroke:#181818;stroke-width:0.5;"/><text fill="#000000" font-family="sans-serif" font-size="14" lengthAdjust="spacing" textLength="112" x="439.4736" y="453.5868">&#26597;&#30475;&#26696;&#20363;&#36923;&#36753;&#34920;&#31034;</text></g><g id="elem_viewCaseCommunity"><ellipse cx="116.0719" cy="451.3345" fill="#F1F1F1" rx="71.5719" ry="16.7144" style="stroke:#181818;stroke-width:0.5;"/><text fill="#000000" font-family="sans-serif" font-size="14" lengthAdjust="spacing" textLength="84" x="71.0719" y="456.6065">&#27983;&#35272;&#26696;&#20363;&#35770;&#22363;</text></g><g id="elem_communicateCaseCommunity"><ellipse cx="115.7823" cy="378.0766" fill="#F1F1F1" rx="92.7823" ry="20.9565" style="stroke:#181818;stroke-width:0.5;"/><text fill="#000000" font-family="sans-serif" font-size="14" lengthAdjust="spacing" textLength="140" x="45.7823" y="382.5605">&#22312;&#26696;&#20363;&#35770;&#22363;&#20013;&#21457;&#24067;&#20869;&#23481;</text></g><g id="elem_writeCaseNotes"><ellipse cx="116.0719" cy="305.3345" fill="#F1F1F1" rx="71.5719" ry="16.7144" style="stroke:#181818;stroke-width:0.5;"/><text fill="#000000" font-family="sans-serif" font-size="14" lengthAdjust="spacing" textLength="84" x="71.0719" y="310.6065">&#32534;&#36753;&#26696;&#20363;&#31508;&#35760;</text></g><g id="elem_checkCaseStatistics"><ellipse cx="115.9736" cy="235.3148" fill="#F1F1F1" rx="81.4736" ry="18.6947" style="stroke:#181818;stroke-width:0.5;"/><text fill="#000000" font-family="sans-serif" font-size="14" lengthAdjust="spacing" textLength="112" x="56.9736" y="240.5868">&#26597;&#30475;&#26696;&#20363;&#23436;&#25104;&#32479;&#35745;</text></g><g id="elem_caseFeedback"><ellipse cx="116.1469" cy="165.158" fill="#F1F1F1" rx="51.1469" ry="16.5378" style="stroke:#181818;stroke-width:0.5;"/><text fill="#000000" font-family="sans-serif" font-size="14" lengthAdjust="spacing" textLength="56" x="86.3976" y="170.1337">&#26696;&#20363;&#21453;&#39304;</text></g><!--entity person--><g id="elem_person"><ellipse cx="313" cy="264.6201" fill="#F1F1F1" rx="8" ry="8" style="stroke:#181818;stroke-width:0.5;"/><path d="M313,272.6201 L313,299.6201 M300,280.6201 L326,280.6201 M313,299.6201 L300,314.6201 M313,299.6201 L326,314.6201 " fill="none" style="stroke:#181818;stroke-width:0.5;"/><text fill="#000000" font-family="sans-serif" font-size="14" lengthAdjust="spacing" textLength="60" x="269" y="332.1641">&#25945;&#24072;/&#23398;&#29983;</text><text fill="#000000" font-family="sans-serif" font-size="14" lengthAdjust="spacing" textLength="88" x="269" y="351.2842">&#21161;&#25945;/&#30740;&#31350;&#20154;&#21592;</text></g><!--link person to viewCase--><g id="link_person_viewCase"><path d="M325.49,256.0601 C336.72,218.3501 357.46,167.5501 393,136.1201 C409.22,121.7801 425.7681,114.8804 445.6581,110.0704 " fill="none" id="person-to-viewCase" style="stroke:#181818;stroke-width:1.0;"/><polygon fill="#181818" points="451.49,108.6601,441.8019,106.8877,446.6301,109.8354,443.6824,114.6635,451.49,108.6601" style="stroke:#181818;stroke-width:1.0;"/></g><!--link person to solveCase--><g id="link_person_solveCase"><path d="M343.49,255.9301 C356.64,237.4801 373.58,217.7201 393,204.1201 C408.16,193.5101 421.079,187.7605 438.429,182.6005 " fill="none" id="person-to-solveCase" style="stroke:#181818;stroke-width:1.0;"/><polygon fill="#181818" points="444.18,180.8901,434.4132,179.6217,439.3875,182.3154,436.6937,187.2897,444.18,180.8901" style="stroke:#181818;stroke-width:1.0;"/></g><!--link person to submitCaseSolution--><g id="link_person_submitCaseSolution"><path d="M357.21,286.3301 C368.76,281.5101 381.29,276.4601 393,272.1201 C413.03,264.6901 429.8199,259.0614 448.7999,253.0514 " fill="none" id="person-to-submitCaseSolution" style="stroke:#181818;stroke-width:1.0;"/><polygon fill="#181818" points="454.52,251.2401,444.7324,250.1436,449.7533,252.7495,447.1474,257.7704,454.52,251.2401" style="stroke:#181818;stroke-width:1.0;"/></g><!--link person to checkCaseResult--><g id="link_person_checkCaseResult"><path d="M357.02,305.3501 C377.79,305.4701 397.2401,305.5795 420.7501,305.6995 " fill="none" id="person-to-checkCaseResult" style="stroke:#181818;stroke-width:1.0;"/><polygon fill="#181818" points="426.75,305.7301,417.7705,301.6842,421.7501,305.7046,417.7297,309.6841,426.75,305.7301" style="stroke:#181818;stroke-width:1.0;"/></g><!--link person to caseAsp--><g id="link_person_caseAsp"><path d="M357.18,325.0501 C368.73,330.1601 381.27,335.5101 393,340.1201 C411.84,347.5201 427.2151,353.0213 445.4651,359.1813 " fill="none" id="person-to-caseAsp" style="stroke:#181818;stroke-width:1.0;"/><polygon fill="#181818" points="451.15,361.1001,443.9019,354.4319,446.4126,359.5011,441.3434,362.0118,451.15,361.1001" style="stroke:#181818;stroke-width:1.0;"/></g><!--link person to caseLogic--><g id="link_person_caseLogic"><path d="M341.26,354.3401 C354.58,374.6201 372.25,396.8801 393,412.1201 C406.84,422.2801 418.0886,427.8406 434.2686,433.2406 " fill="none" id="person-to-caseLogic" style="stroke:#181818;stroke-width:1.0;"/><polygon fill="#181818" points="439.96,435.1401,432.6892,428.4966,435.2172,433.5572,430.1566,436.0852,439.96,435.1401" style="stroke:#181818;stroke-width:1.0;"/></g><!--reverse link viewCaseCommunity to person--><g id="link_viewCaseCommunity_person"><path d="M180.4907,440.1064 C200.2707,434.8764 215.91,428.3901 233,416.1201 C255.19,400.1901 273.44,376.0401 286.79,354.3301 " fill="none" id="viewCaseCommunity-backto-person" style="stroke:#181818;stroke-width:1.0;"/><polygon fill="#181818" points="174.69,441.6401,184.4135,443.2066,179.5239,440.362,182.3685,435.4724,174.69,441.6401" style="stroke:#181818;stroke-width:1.0;"/></g><!--reverse link communicateCaseCommunity to person--><g id="link_communicateCaseCommunity_person"><path d="M176.4461,359.1849 C196.1461,352.6649 212.86,346.8301 233,339.1201 C244.71,334.6401 257.25,329.4401 268.8,324.4701 " fill="none" id="communicateCaseCommunity-backto-person" style="stroke:#181818;stroke-width:1.0;"/><polygon fill="#181818" points="170.75,361.0701,180.551,362.0397,175.4968,359.4991,178.0374,354.4449,170.75,361.0701" style="stroke:#181818;stroke-width:1.0;"/></g><!--reverse link writeCaseNotes to person--><g id="link_writeCaseNotes_person"><path d="M193.68,305.1201 C220.82,305.1201 244.96,305.1201 268.77,305.1201 " fill="none" id="writeCaseNotes-backto-person" style="stroke:#181818;stroke-width:1.0;"/><polygon fill="#181818" points="187.68,305.1201,196.68,309.1201,192.68,305.1201,196.68,301.1201,187.68,305.1201" style="stroke:#181818;stroke-width:1.0;"/></g><!--reverse link checkCaseStatistics to person--><g id="link_checkCaseStatistics_person"><path d="M173.3755,251.2991 C193.8455,257.4591 211.83,263.3101 233,271.1201 C244.77,275.4601 257.32,280.6201 268.87,285.5801 " fill="none" id="checkCaseStatistics-backto-person" style="stroke:#181818;stroke-width:1.0;"/><polygon fill="#181818" points="167.63,249.5701,175.0956,255.9939,172.4179,251.0109,177.4009,248.3333,167.63,249.5701" style="stroke:#181818;stroke-width:1.0;"/></g><!--reverse link caseFeedback to person--><g id="link_caseFeedback_person"><path d="M169.0765,172.8587 C191.6365,177.6987 212.41,184.8001 233,199.1201 C254.01,213.7301 271.7,235.7201 284.99,255.9001 " fill="none" id="caseFeedback-backto-person" style="stroke:#181818;stroke-width:1.0;"/><polygon fill="#181818" points="163.21,171.6001,171.1707,177.399,168.0988,172.6489,172.8488,169.577,163.21,171.6001" style="stroke:#181818;stroke-width:1.0;"/></g><!--SRC=[VPB1Jjj048RlVefLBi01yGQL8gIUggfghhsOPHjME7RaNODGLGc1G5OfIYBSgWX3Y4eXICIYXrQfKyBBU7UTjs2TJOdjnFN9clc_sPb_Xc9g853Y7JSQ7l6Ju-Z15rvN_hEpOKdJ3FIU0ce16rStA5Z7De8KMwQcwP1QjkI-dBA-ky9wry9hlpFPfriPMH6NdhZz7OKXQtqh0Ps0Eh99GYMuRbRpBoxoopvxt1_vk_pdtb89VD20_1o2e4uGMEJj7y8_Ki1IKcuBe-rLcShAnD-lxF1KoUARxwBdZSN4ChRGh9etcb5uDQjsrcgO9lAAPJZZMUVqeW0nEE4N_XY36mXk9jHRH1o35lTVhho9Errn5IfCvikaNYmVxGxYOIj7lBAg66hQns8_u-61N4NEpuNvJyXP-4KpuslPr8qTWackhr-D-CQTG478piyoqAfLgpacfZjPYldTD1BrUwpHOlrzTdZ0WZzg9aL2dQB_59BhbLQeMkBEYuFxCRnjOuMzjYWYnKwou3DtcsBGZeDETcKLgbDCA8PvMd6Duz6r- -pzIuJMrtIucRYlhXeiBx-ONcGgDZsyT73slbBP_1cbKvDJoOKcjx00_iMTUggTvqNEpKwDpgGBrv5HvNpFLfXZRLQGTl89]--></g></svg>