<?xml version="1.0" encoding="us-ascii" standalone="no"?><svg xmlns="http://www.w3.org/2000/svg" xmlns:xlink="http://www.w3.org/1999/xlink" contentStyleType="text/css" height="497px" preserveAspectRatio="none" style="width:574px;height:497px;background:#FFFFFF;" version="1.1" viewBox="0 0 574 497" width="574px" zoomAndPan="magnify"><defs/><g><text fill="#000000" font-family="sans-serif" font-size="14" font-weight="bold" lengthAdjust="spacing" textLength="120" x="220" y="26.0439">&#26696;&#20363;&#24211;&#25805;&#20316;&#29992;&#20363;&#22270;</text><!--cluster ?????--><g id="cluster_&#26696;&#20363;&#24211;&#25805;&#20316;"><rect fill="none" height="444" rx="2.5" ry="2.5" style="stroke:#181818;stroke-width:1.0;" width="398" x="170" y="47.1201"/><text fill="#000000" font-family="sans-serif" font-size="14" font-weight="bold" lengthAdjust="spacing" textLength="75" x="331.5" y="65.1641">&#26696;&#20363;&#24211;&#25805;&#20316;</text></g><g id="elem_addCase"><ellipse cx="257.6469" cy="224.158" fill="#F1F1F1" rx="51.1469" ry="16.5378" style="stroke:#181818;stroke-width:0.5;"/><text fill="#000000" font-family="sans-serif" font-size="14" lengthAdjust="spacing" textLength="56" x="227.8976" y="229.1337">&#26032;&#22686;&#26696;&#20363;</text></g><g id="elem_editCase"><ellipse cx="257.6469" cy="327.158" fill="#F1F1F1" rx="51.1469" ry="16.5378" style="stroke:#181818;stroke-width:0.5;"/><text fill="#000000" font-family="sans-serif" font-size="14" lengthAdjust="spacing" textLength="56" x="227.8976" y="332.1337">&#20462;&#25913;&#26696;&#20363;</text></g><g id="elem_checkCaseEdit"><ellipse cx="257.5719" cy="156.3345" fill="#F1F1F1" rx="71.5719" ry="16.7144" style="stroke:#181818;stroke-width:0.5;"/><text fill="#000000" font-family="sans-serif" font-size="14" lengthAdjust="spacing" textLength="84" x="212.5719" y="161.6065">&#23457;&#26680;&#26696;&#20363;&#20462;&#25913;</text></g><g id="elem_addCaseQuestion"><ellipse cx="470.5719" cy="246.3345" fill="#F1F1F1" rx="71.5719" ry="16.7144" style="stroke:#181818;stroke-width:0.5;"/><text fill="#000000" font-family="sans-serif" font-size="14" lengthAdjust="spacing" textLength="84" x="425.5719" y="251.6065">&#26032;&#22686;&#26696;&#20363;&#38382;&#39064;</text></g><g id="elem_addCaseAsp"><ellipse cx="470.5984" cy="176.2398" fill="#F1F1F1" rx="81.0984" ry="18.6197" style="stroke:#181818;stroke-width:0.5;"/><text fill="#000000" font-family="sans-serif" font-size="14" lengthAdjust="spacing" textLength="111" x="412.0984" y="181.5118">&#26032;&#22686;&#26696;&#20363;ASP&#34920;&#36798;</text></g><g id="elem_addCaseLogic"><ellipse cx="470.4736" cy="104.3148" fill="#F1F1F1" rx="81.4736" ry="18.6947" style="stroke:#181818;stroke-width:0.5;"/><text fill="#000000" font-family="sans-serif" font-size="14" lengthAdjust="spacing" textLength="112" x="411.4736" y="109.5868">&#26032;&#22686;&#26696;&#20363;&#36923;&#36753;&#34920;&#36798;</text></g><g id="elem_editCaseQuestion"><ellipse cx="470.5719" cy="458.3345" fill="#F1F1F1" rx="71.5719" ry="16.7144" style="stroke:#181818;stroke-width:0.5;"/><text fill="#000000" font-family="sans-serif" font-size="14" lengthAdjust="spacing" textLength="84" x="425.5719" y="463.6065">&#20462;&#25913;&#26696;&#20363;&#38382;&#39064;</text></g><g id="elem_editCaseAsp"><ellipse cx="470.5984" cy="388.2398" fill="#F1F1F1" rx="81.0984" ry="18.6197" style="stroke:#181818;stroke-width:0.5;"/><text fill="#000000" font-family="sans-serif" font-size="14" lengthAdjust="spacing" textLength="111" x="412.0984" y="393.5118">&#20462;&#25913;&#26696;&#20363;ASP&#34920;&#36798;</text></g><g id="elem_editCaseLogic"><ellipse cx="470.4736" cy="316.3148" fill="#F1F1F1" rx="81.4736" ry="18.6947" style="stroke:#181818;stroke-width:0.5;"/><text fill="#000000" font-family="sans-serif" font-size="14" lengthAdjust="spacing" textLength="112" x="411.4736" y="321.5868">&#20462;&#25913;&#26696;&#20363;&#36923;&#36753;&#34920;&#36798;</text></g><!--entity teacherAndAssistantAndExpert--><g id="elem_teacherAndAssistantAndExpert"><ellipse cx="66" cy="182.1201" fill="#F1F1F1" rx="8" ry="8" style="stroke:#181818;stroke-width:0.5;"/><path d="M66,190.1201 L66,217.1201 M53,198.1201 L79,198.1201 M66,217.1201 L53,232.1201 M66,217.1201 L79,232.1201 " fill="none" style="stroke:#181818;stroke-width:0.5;"/><text fill="#000000" font-family="sans-serif" font-size="14" lengthAdjust="spacing" textLength="120" x="6" y="249.6641">&#25945;&#24072;/&#21161;&#25945;/&#30740;&#31350;&#20154;&#21592;</text></g><!--entity student--><g id="elem_student"><ellipse cx="66" cy="296.1201" fill="#F1F1F1" rx="8" ry="8" style="stroke:#181818;stroke-width:0.5;"/><path d="M66,304.1201 L66,331.1201 M53,312.1201 L79,312.1201 M66,331.1201 L53,346.1201 M66,331.1201 L79,346.1201 " fill="none" style="stroke:#181818;stroke-width:0.5;"/><text fill="#000000" font-family="sans-serif" font-size="14" lengthAdjust="spacing" textLength="28" x="52" y="363.6641">&#23398;&#29983;</text></g><!--link teacherAndAssistantAndExpert to addCase--><g id="link_teacherAndAssistantAndExpert_addCase"><path d="M126.18,216.5601 C152.13,218.0601 176.2601,219.4616 201.0101,220.9016 " fill="none" id="teacherAndAssistantAndExpert-to-addCase" style="stroke:#181818;stroke-width:1.0;"/><polygon fill="#181818" points="207,221.2501,198.2475,216.7341,202.0084,220.9597,197.7829,224.7206,207,221.2501" style="stroke:#181818;stroke-width:1.0;"/></g><!--link teacherAndAssistantAndExpert to editCase--><g id="link_teacherAndAssistantAndExpert_editCase"><path d="M126.18,248.7201 C162.02,270.2801 200.659,293.5266 227.249,309.5266 " fill="none" id="teacherAndAssistantAndExpert-to-editCase" style="stroke:#181818;stroke-width:1.0;"/><polygon fill="#181818" points="232.39,312.6201,226.7408,304.5525,228.1058,310.0422,222.6161,311.4072,232.39,312.6201" style="stroke:#181818;stroke-width:1.0;"/></g><!--link teacherAndAssistantAndExpert to checkCaseEdit--><g id="link_teacherAndAssistantAndExpert_checkCaseEdit"><path d="M126.18,195.3201 C154.31,186.8601 181.5742,178.6581 207.3442,170.9081 " fill="none" id="teacherAndAssistantAndExpert-to-checkCaseEdit" style="stroke:#181818;stroke-width:1.0;"/><polygon fill="#181818" points="213.09,169.1801,203.3193,167.9416,208.3018,170.6201,205.6233,175.6026,213.09,169.1801" style="stroke:#181818;stroke-width:1.0;"/></g><!--link student to addCase--><g id="link_student_addCase"><path d="M80.03,320.0401 C110.96,303.2201 184.0784,263.4855 225.1784,241.1455 " fill="none" id="student-to-addCase" style="stroke:#181818;stroke-width:1.0;"/><polygon fill="#181818" points="230.45,238.2801,220.6324,239.0638,226.057,240.6679,224.4529,246.0926,230.45,238.2801" style="stroke:#181818;stroke-width:1.0;"/></g><!--link student to editCase--><g id="link_student_editCase"><path d="M80.03,327.1201 C105.61,327.1201 157.65,327.1201 200.21,327.1201 " fill="none" id="student-to-editCase" style="stroke:#181818;stroke-width:1.0;"/><polygon fill="#181818" points="206.21,327.1201,197.21,323.1201,201.21,327.1201,197.21,331.1201,206.21,327.1201" style="stroke:#181818;stroke-width:1.0;"/></g><!--reverse link addCase to addCaseQuestion--><g id="link_addCase_addCaseQuestion"><path d="M324.2831,230.9753 C353.4631,234.0153 373.23,236.0801 405.01,239.4001 " fill="none" id="addCase-backto-addCaseQuestion" style="stroke:#181818;stroke-width:1.0;"/><polygon fill="none" points="306.38,229.1101,323.6614,236.943,324.9048,225.0076,306.38,229.1101" style="stroke:#181818;stroke-width:1.0;"/></g><!--reverse link addCase to addCaseAsp--><g id="link_addCase_addCaseAsp"><path d="M317.232,210.7593 C349.382,203.4493 376.85,197.2001 412.46,189.1001 " fill="none" id="addCase-backto-addCaseAsp" style="stroke:#181818;stroke-width:1.0;"/><polygon fill="none" points="299.68,214.7501,318.5623,216.61,315.9017,204.9086,299.68,214.7501" style="stroke:#181818;stroke-width:1.0;"/></g><!--reverse link addCase to addCaseLogic--><g id="link_addCase_addCaseLogic"><path d="M305.9401,203.6455 C318.5601,197.8755 316.66,198.0601 329,190.1201 C358.19,171.3301 359.55,158.4901 389,140.1201 C401.21,132.5001 415.31,125.6301 428.26,119.9701 " fill="none" id="addCase-backto-addCaseLogic" style="stroke:#181818;stroke-width:1.0;"/><polygon fill="none" points="289.57,211.1301,308.435,209.1022,303.4453,198.1888,289.57,211.1301" style="stroke:#181818;stroke-width:1.0;"/></g><!--reverse link editCase to editCaseQuestion--><g id="link_editCase_editCaseQuestion"><path d="M290.3068,354.3483 C314.6368,374.8783 346.11,399.6001 389,424.1201 C402.3,431.7301 417.64,438.6201 431.33,444.1901 " fill="none" id="editCase-backto-editCaseQuestion" style="stroke:#181818;stroke-width:1.0;"/><polygon fill="none" points="276.55,342.7401,286.4374,358.9339,294.1762,349.7627,276.55,342.7401" style="stroke:#181818;stroke-width:1.0;"/></g><!--reverse link editCase to editCaseAsp--><g id="link_editCase_editCaseAsp"><path d="M313.5131,343.0249 C347.8931,352.9549 381.62,362.7101 419.41,373.6401 " fill="none" id="editCase-backto-editCaseAsp" style="stroke:#181818;stroke-width:1.0;"/><polygon fill="none" points="296.22,338.0301,311.8482,348.7893,315.1781,337.2605,296.22,338.0301" style="stroke:#181818;stroke-width:1.0;"/></g><!--reverse link editCase to editCaseLogic--><g id="link_editCase_editCaseLogic"><path d="M325.9457,323.6052 C350.5557,322.3252 362.91,321.6801 390.62,320.2301 " fill="none" id="editCase-backto-editCaseLogic" style="stroke:#181818;stroke-width:1.0;"/><polygon fill="none" points="307.97,324.5401,326.2573,329.5971,325.6341,317.6133,307.97,324.5401" style="stroke:#181818;stroke-width:1.0;"/></g><!--SRC=[XLBFIiCm7BxdAK9FUYXx0H6AxEP1yGb26xVWQ4Vp6mWgU1oAXx6g4qMt7MGxE3p9d5XVfcctjp3zDzgrstfAy_tvVSaNOD2WMF47RS-z5REktxtpVby2PnJ-FhiAGWrw2XWiRBDQ7R31RAe3iqo44D71igNs_abCsnLnCvQhIj1tWl6NDvk9Ja_1X6EWHAzJMpCDZNF6WPWWrzNp9hKXjH0Vxu7p5j4vj0ng0aBX76BMIj8f-09X-RKurGcdUCT_-1J3rvYr6veGmpYGI9xb_Kryvpl3eWQ38arC1dv_6jDYIKIMPz3FGdPLgj3w-Ol7oMBOowOuRb4UtTXQZNPoD1-CvgwRbMcykM7AzS_SxHH5XrQDwMZzkJFfqjENnykAyl5INI5VRivglbGL1xn2QDEpmAgwl-nmAt5PurRcIeV9KyjDo-ujZL62uhrBLItKMWQ6brEsd_IJEiTOeOboEFGiHnBNVm00]--></g></svg>