<?xml version="1.0" encoding="us-ascii" standalone="no"?><svg xmlns="http://www.w3.org/2000/svg" xmlns:xlink="http://www.w3.org/1999/xlink" contentStyleType="text/css" height="821px" preserveAspectRatio="none" style="width:364px;height:821px;background:#FFFFFF;" version="1.1" viewBox="0 0 364 821" width="364px" zoomAndPan="magnify"><defs/><g><text fill="#000000" font-family="sans-serif" font-size="14" font-weight="bold" lengthAdjust="spacing" textLength="105" x="122.5" y="26.0439">&#29677;&#32423;&#31649;&#29702;&#29992;&#20363;&#22270;</text><!--cluster ????--><g id="cluster_&#29677;&#32423;&#31649;&#29702;"><rect fill="none" height="768" rx="2.5" ry="2.5" style="stroke:#181818;stroke-width:1.0;" width="175" x="78" y="47.1201"/><text fill="#000000" font-family="sans-serif" font-size="14" font-weight="bold" lengthAdjust="spacing" textLength="60" x="135.5" y="65.1641">&#29677;&#32423;&#31649;&#29702;</text></g><g id="elem_createClass"><ellipse cx="165.6469" cy="238.158" fill="#F1F1F1" rx="51.1469" ry="16.5378" style="stroke:#181818;stroke-width:0.5;"/><text fill="#000000" font-family="sans-serif" font-size="14" lengthAdjust="spacing" textLength="56" x="135.8976" y="243.1337">&#21019;&#24314;&#29677;&#32423;</text></g><g id="elem_joinClass"><ellipse cx="165.6469" cy="646.158" fill="#F1F1F1" rx="51.1469" ry="16.5378" style="stroke:#181818;stroke-width:0.5;"/><text fill="#000000" font-family="sans-serif" font-size="14" lengthAdjust="spacing" textLength="56" x="135.8976" y="651.1337">&#21152;&#20837;&#29677;&#32423;</text></g><g id="elem_manageMember"><ellipse cx="165.6469" cy="170.158" fill="#F1F1F1" rx="51.1469" ry="16.5378" style="stroke:#181818;stroke-width:0.5;"/><text fill="#000000" font-family="sans-serif" font-size="14" lengthAdjust="spacing" textLength="56" x="135.8976" y="175.1337">&#31649;&#29702;&#25104;&#21592;</text></g><g id="elem_publishHomework"><ellipse cx="165.6469" cy="442.158" fill="#F1F1F1" rx="51.1469" ry="16.5378" style="stroke:#181818;stroke-width:0.5;"/><text fill="#000000" font-family="sans-serif" font-size="14" lengthAdjust="spacing" textLength="56" x="135.8976" y="447.1337">&#24067;&#32622;&#20316;&#19994;</text></g><g id="elem_finishHomework"><ellipse cx="165.6469" cy="578.158" fill="#F1F1F1" rx="51.1469" ry="16.5378" style="stroke:#181818;stroke-width:0.5;"/><text fill="#000000" font-family="sans-serif" font-size="14" lengthAdjust="spacing" textLength="56" x="135.8976" y="583.1337">&#23436;&#25104;&#20316;&#19994;</text></g><g id="elem_exportScore"><ellipse cx="165.5719" cy="374.3345" fill="#F1F1F1" rx="71.5719" ry="16.7144" style="stroke:#181818;stroke-width:0.5;"/><text fill="#000000" font-family="sans-serif" font-size="14" lengthAdjust="spacing" textLength="84" x="120.5719" y="379.6065">&#23548;&#20986;&#29677;&#32423;&#25104;&#32489;</text></g><g id="elem_viewMyScore"><ellipse cx="165.5719" cy="714.3345" fill="#F1F1F1" rx="71.5719" ry="16.7144" style="stroke:#181818;stroke-width:0.5;"/><text fill="#000000" font-family="sans-serif" font-size="14" lengthAdjust="spacing" textLength="84" x="120.5719" y="719.6065">&#26597;&#30475;&#20010;&#20154;&#25104;&#32489;</text></g><g id="elem_viewSccores"><ellipse cx="165.5719" cy="306.3345" fill="#F1F1F1" rx="71.5719" ry="16.7144" style="stroke:#181818;stroke-width:0.5;"/><text fill="#000000" font-family="sans-serif" font-size="14" lengthAdjust="spacing" textLength="84" x="120.5719" y="311.6065">&#26597;&#30475;&#29677;&#32423;&#25104;&#32489;</text></g><g id="elem_viewClass"><ellipse cx="165.6469" cy="510.158" fill="#F1F1F1" rx="51.1469" ry="16.5378" style="stroke:#181818;stroke-width:0.5;"/><text fill="#000000" font-family="sans-serif" font-size="14" lengthAdjust="spacing" textLength="56" x="135.8976" y="515.1337">&#26597;&#30475;&#29677;&#32423;</text></g><g id="elem_viewHomework"><ellipse cx="165.6469" cy="782.158" fill="#F1F1F1" rx="51.1469" ry="16.5378" style="stroke:#181818;stroke-width:0.5;"/><text fill="#000000" font-family="sans-serif" font-size="14" lengthAdjust="spacing" textLength="56" x="135.8976" y="787.1337">&#26597;&#30475;&#20316;&#19994;</text></g><g id="elem_setScore"><ellipse cx="165.6469" cy="102.158" fill="#F1F1F1" rx="51.1469" ry="16.5378" style="stroke:#181818;stroke-width:0.5;"/><text fill="#000000" font-family="sans-serif" font-size="14" lengthAdjust="spacing" textLength="56" x="135.8976" y="107.1337">&#20316;&#19994;&#25171;&#20998;</text></g><!--entity teacher--><g id="elem_teacher"><ellipse cx="20" cy="173.1201" fill="#F1F1F1" rx="8" ry="8" style="stroke:#181818;stroke-width:0.5;"/><path d="M20,181.1201 L20,208.1201 M7,189.1201 L33,189.1201 M20,208.1201 L7,223.1201 M20,208.1201 L33,223.1201 " fill="none" style="stroke:#181818;stroke-width:0.5;"/><text fill="#000000" font-family="sans-serif" font-size="14" lengthAdjust="spacing" textLength="28" x="6" y="240.6641">&#25945;&#24072;</text></g><!--entity teacherAndAssistant--><g id="elem_teacherAndAssistant"><ellipse cx="327" cy="377.1201" fill="#F1F1F1" rx="8" ry="8" style="stroke:#181818;stroke-width:0.5;"/><path d="M327,385.1201 L327,412.1201 M314,393.1201 L340,393.1201 M327,412.1201 L314,427.1201 M327,412.1201 L340,427.1201 " fill="none" style="stroke:#181818;stroke-width:0.5;"/><text fill="#000000" font-family="sans-serif" font-size="14" lengthAdjust="spacing" textLength="60" x="297" y="444.6641">&#25945;&#24072;/&#21161;&#25945;</text></g><!--entity student--><g id="elem_student"><ellipse cx="20" cy="615.1201" fill="#F1F1F1" rx="8" ry="8" style="stroke:#181818;stroke-width:0.5;"/><path d="M20,623.1201 L20,650.1201 M7,631.1201 L33,631.1201 M20,650.1201 L7,665.1201 M20,650.1201 L33,665.1201 " fill="none" style="stroke:#181818;stroke-width:0.5;"/><text fill="#000000" font-family="sans-serif" font-size="14" lengthAdjust="spacing" textLength="28" x="6" y="682.6641">&#23398;&#29983;</text></g><!--link teacher to createClass--><g id="link_teacher_createClass"><path d="M34.24,207.2601 C54.43,212.0401 87.9116,219.9769 118.0916,227.1269 " fill="none" id="teacher-to-createClass" style="stroke:#181818;stroke-width:1.0;"/><polygon fill="#181818" points="123.93,228.5101,116.0945,222.5431,119.0647,227.3575,114.2503,230.3276,123.93,228.5101" style="stroke:#181818;stroke-width:1.0;"/></g><!--link teacher to manageMember--><g id="link_teacher_manageMember"><path d="M34.24,200.9801 C54.43,196.2001 87.9116,188.2633 118.0916,181.1133 " fill="none" id="teacher-to-manageMember" style="stroke:#181818;stroke-width:1.0;"/><polygon fill="#181818" points="123.93,179.7301,114.2503,177.9126,119.0647,180.8828,116.0945,185.6972,123.93,179.7301" style="stroke:#181818;stroke-width:1.0;"/></g><!--reverse link publishHomework to teacherAndAssistant--><g id="link_publishHomework_teacherAndAssistant"><path d="M214.2782,431.9394 C242.1482,425.9994 272.18,419.5901 296.95,414.3101 " fill="none" id="publishHomework-backto-teacherAndAssistant" style="stroke:#181818;stroke-width:1.0;"/><polygon fill="#181818" points="208.41,433.1901,218.0461,435.2262,213.3002,432.1479,216.3785,427.4019,208.41,433.1901" style="stroke:#181818;stroke-width:1.0;"/></g><!--reverse link exportScore to teacherAndAssistant--><g id="link_exportScore_teacherAndAssistant"><path d="M224.5981,386.5014 C250.5781,392.0414 275.14,397.2801 296.94,401.9201 " fill="none" id="exportScore-backto-teacherAndAssistant" style="stroke:#181818;stroke-width:1.0;"/><polygon fill="#181818" points="218.73,385.2501,226.6979,391.0391,223.6201,386.2929,228.3663,383.215,218.73,385.2501" style="stroke:#181818;stroke-width:1.0;"/></g><!--reverse link viewSccores to teacherAndAssistant--><g id="link_viewSccores_teacherAndAssistant"><path d="M219.3778,320.2505 C235.1578,325.5505 246.68,330.8001 261,340.1201 C274.14,348.6701 286.57,360.3701 296.97,371.6501 " fill="none" id="viewSccores-backto-teacherAndAssistant" style="stroke:#181818;stroke-width:1.0;"/><polygon fill="#181818" points="213.69,318.3401,220.9481,324.9975,218.4298,319.9321,223.4952,317.4138,213.69,318.3401" style="stroke:#181818;stroke-width:1.0;"/></g><!--reverse link viewClass to teacherAndAssistant--><g id="link_viewClass_teacherAndAssistant"><path d="M212.2909,498.4235 C229.8709,492.9735 244.48,486.8601 261,476.1201 C274.14,467.5701 286.57,455.8701 296.97,444.5901 " fill="none" id="viewClass-backto-teacherAndAssistant" style="stroke:#181818;stroke-width:1.0;"/><polygon fill="#181818" points="206.56,500.2001,216.3408,501.3558,211.3358,498.7196,213.972,493.7145,206.56,500.2001" style="stroke:#181818;stroke-width:1.0;"/></g><!--reverse link viewHomework to teacherAndAssistant--><g id="link_viewHomework_teacherAndAssistant"><path d="M218.2579,773.9389 C235.8279,769.1389 248.77,762.4401 261,748.1201 C299.31,703.2901 317.08,527.3801 323.29,447.7101 " fill="none" id="viewHomework-backto-teacherAndAssistant" style="stroke:#181818;stroke-width:1.0;"/><polygon fill="#181818" points="212.47,775.5201,222.206,777.0069,217.2932,774.2024,220.0977,769.2897,212.47,775.5201" style="stroke:#181818;stroke-width:1.0;"/></g><!--reverse link setScore to teacherAndAssistant--><g id="link_setScore_teacherAndAssistant"><path d="M217.9234,110.5978 C235.4434,115.4378 248.44,122.0901 261,136.1201 C291.52,170.2201 312.33,301.5701 321.19,368.4701 " fill="none" id="setScore-backto-teacherAndAssistant" style="stroke:#181818;stroke-width:1.0;"/><polygon fill="#181818" points="212.14,109.0001,219.7499,115.2522,216.9595,110.3315,221.8802,107.5411,212.14,109.0001" style="stroke:#181818;stroke-width:1.0;"/></g><!--link student to joinClass--><g id="link_student_joinClass"><path d="M34.24,646.1201 C52.35,646.1201 79.85,646.1201 108.34,646.1201 " fill="none" id="student-to-joinClass" style="stroke:#181818;stroke-width:1.0;"/><polygon fill="#181818" points="114.34,646.1201,105.34,642.1201,109.34,646.1201,105.34,650.1201,114.34,646.1201" style="stroke:#181818;stroke-width:1.0;"/></g><!--link student to finishHomework--><g id="link_student_finishHomework"><path d="M34.13,635.6001 C43.67,628.3101 57.12,618.7601 70,612.1201 C88.13,602.7701 103.7287,596.7396 121.5087,590.9096 " fill="none" id="student-to-finishHomework" style="stroke:#181818;stroke-width:1.0;"/><polygon fill="#181818" points="127.21,589.0401,117.4117,588.0434,122.4589,590.598,119.9043,595.6452,127.21,589.0401" style="stroke:#181818;stroke-width:1.0;"/></g><!--link student to viewMyScore--><g id="link_student_viewMyScore"><path d="M34.13,656.6401 C43.67,663.9301 57.12,673.4801 70,680.1201 C85.96,688.3501 98.7009,693.5241 115.0109,699.0841 " fill="none" id="student-to-viewMyScore" style="stroke:#181818;stroke-width:1.0;"/><polygon fill="#181818" points="120.69,701.0201,113.462,694.3301,115.9574,699.4068,110.8807,701.9022,120.69,701.0201" style="stroke:#181818;stroke-width:1.0;"/></g><!--link student to viewClass--><g id="link_student_viewClass"><path d="M31.95,606.5001 C39.56,585.4701 51.7,560.6401 70,544.1201 C84.11,531.3901 97.5773,525.0007 114.9973,519.9507 " fill="none" id="student-to-viewClass" style="stroke:#181818;stroke-width:1.0;"/><polygon fill="#181818" points="120.76,518.2801,111.0022,516.9442,115.9577,519.6723,113.2296,524.6278,120.76,518.2801" style="stroke:#181818;stroke-width:1.0;"/></g><!--link student to viewHomework--><g id="link_student_viewHomework"><path d="M31.95,685.7401 C39.56,706.7701 51.7,731.6001 70,748.1201 C84.11,760.8501 97.5773,767.2395 114.9973,772.2895 " fill="none" id="student-to-viewHomework" style="stroke:#181818;stroke-width:1.0;"/><polygon fill="#181818" points="120.76,773.9601,113.2296,767.6124,115.9577,772.568,111.0022,775.296,120.76,773.9601" style="stroke:#181818;stroke-width:1.0;"/></g><!--SRC=[ZTEzJiCm403WtKzXPG66miw0LB6mCFK9J7gqXZIfR8SV8IO4b1O94201HIeCvK-Yh57uUPeuVWsID1GdRH2P8lkxovrz4LHOW0rryghyHpMuLwS7wk8f-Eh8xfU1a0Mh0Wi7Crgh2rob34n17HiXOWg7OIEyl9PUoy24Om74h0FBxip9zdFqfeEoNIrpJhaWjlZ1ylL1NVGInOLRXMW7eVXRnAxbopFm3iBHut8m2GSyBLjT-UuFoKoSmcH012nQXFESRD_9_RucrnngJt333uMjKtbsbRW6iKaDbg6n4ZMOJUdjgSz1y7aRU3S9RReh5kNr9QS1cmvRp-d1SPHLqwlKBiPl7_8mxIkAKk_FIGXiDHqcAgR38El3Nb_TTWBl9V1zpMzGs5pUBlHZ-MDVCMFEY_r8JZYzj8xV9cCtkSKX2e_EPUiWeHpIpdOHIkS5bqeBcIlLrpCNCmhHHmoNt6O4yzTIBFNpBLRwAVsjCaKNc7-KDJePbFuXIV-_0wolvgPAtzAd8Ry-dYXJ6vhIkyPuTbOBm_EOsgOLXQRi9wo8VGC0]--></g></svg>