<?xml version="1.0" encoding="us-ascii" standalone="no"?><svg xmlns="http://www.w3.org/2000/svg" xmlns:xlink="http://www.w3.org/1999/xlink" contentStyleType="text/css" height="2479px" preserveAspectRatio="none" style="width:428px;height:2479px;background:#FFFFFF;" version="1.1" viewBox="0 0 428 2479" width="428px" zoomAndPan="magnify"><defs/><g><text fill="#000000" font-family="sans-serif" font-size="14" font-weight="bold" lengthAdjust="spacing" textLength="75" x="169.88" y="26.0439">&#29992;&#20363;&#22270;&#24635;&#35272;</text><!--cluster ????--><g id="cluster_&#29992;&#25143;&#20449;&#24687;"><rect fill="none" height="360" rx="2.5" ry="2.5" style="stroke:#181818;stroke-width:1.0;" width="175" x="113.26" y="1347.1201"/><text fill="#000000" font-family="sans-serif" font-size="14" font-weight="bold" lengthAdjust="spacing" textLength="60" x="170.76" y="1365.1641">&#29992;&#25143;&#20449;&#24687;</text></g><!--cluster ????--><g id="cluster_&#25805;&#20316;&#25351;&#21335;"><rect fill="none" height="304" rx="2.5" ry="2.5" style="stroke:#181818;stroke-width:1.0;" width="218" x="91.76" y="1731.1201"/><text fill="#000000" font-family="sans-serif" font-size="14" font-weight="bold" lengthAdjust="spacing" textLength="60" x="170.76" y="1749.1641">&#25805;&#20316;&#25351;&#21335;</text></g><!--cluster ????--><g id="cluster_&#32534;&#30721;&#36816;&#34892;"><rect fill="none" height="394" rx="2.5" ry="2.5" style="stroke:#181818;stroke-width:1.0;" width="242" x="79.76" y="47.1201"/><text fill="#000000" font-family="sans-serif" font-size="14" font-weight="bold" lengthAdjust="spacing" textLength="60" x="170.76" y="65.1641">&#32534;&#30721;&#36816;&#34892;</text></g><!--cluster ????--><g id="cluster_&#26696;&#20363;&#25805;&#20316;"><rect fill="none" height="858" rx="2.5" ry="2.5" style="stroke:#181818;stroke-width:1.0;" width="218" x="91.76" y="465.1201"/><text fill="#000000" font-family="sans-serif" font-size="14" font-weight="bold" lengthAdjust="spacing" textLength="60" x="170.76" y="483.1641">&#26696;&#20363;&#25805;&#20316;</text></g><!--cluster ?????--><g id="cluster_&#26696;&#20363;&#24211;&#25805;&#20316;"><rect fill="none" height="224" rx="2.5" ry="2.5" style="stroke:#181818;stroke-width:1.0;" width="175" x="113.26" y="2059.1201"/><text fill="#000000" font-family="sans-serif" font-size="14" font-weight="bold" lengthAdjust="spacing" textLength="75" x="163.26" y="2077.1641">&#26696;&#20363;&#24211;&#25805;&#20316;</text></g><!--cluster ????--><g id="cluster_&#24179;&#21488;&#31649;&#29702;"><rect fill="none" height="166" rx="2.5" ry="2.5" style="stroke:#181818;stroke-width:1.0;" width="221" x="90.26" y="2307.1201"/><text fill="#000000" font-family="sans-serif" font-size="14" font-weight="bold" lengthAdjust="spacing" textLength="60" x="170.76" y="2325.1641">&#24179;&#21488;&#31649;&#29702;</text></g><g id="elem_signUp"><ellipse cx="200.5443" cy="1402.1401" fill="#F1F1F1" rx="31.2843" ry="16.52" style="stroke:#181818;stroke-width:0.5;"/><text fill="#000000" font-family="sans-serif" font-size="14" lengthAdjust="spacing" textLength="28" x="186.5443" y="1406.624">&#27880;&#20876;</text></g><g id="elem_signIn"><ellipse cx="200.5443" cy="1470.1401" fill="#F1F1F1" rx="31.2843" ry="16.52" style="stroke:#181818;stroke-width:0.5;"/><text fill="#000000" font-family="sans-serif" font-size="14" lengthAdjust="spacing" textLength="28" x="186.5443" y="1474.624">&#30331;&#24405;</text></g><g id="elem_signOut"><ellipse cx="200.5443" cy="1606.1401" fill="#F1F1F1" rx="31.2843" ry="16.52" style="stroke:#181818;stroke-width:0.5;"/><text fill="#000000" font-family="sans-serif" font-size="14" lengthAdjust="spacing" textLength="28" x="186.5443" y="1610.624">&#30331;&#20986;</text></g><g id="elem_manageInfo"><ellipse cx="200.8319" cy="1538.3345" fill="#F1F1F1" rx="71.5719" ry="16.7144" style="stroke:#181818;stroke-width:0.5;"/><text fill="#000000" font-family="sans-serif" font-size="14" lengthAdjust="spacing" textLength="84" x="155.8319" y="1543.6065">&#31649;&#29702;&#20010;&#20154;&#36164;&#26009;</text></g><g id="elem_manageAccount"><ellipse cx="200.9069" cy="1674.158" fill="#F1F1F1" rx="51.1469" ry="16.5378" style="stroke:#181818;stroke-width:0.5;"/><text fill="#000000" font-family="sans-serif" font-size="14" lengthAdjust="spacing" textLength="56" x="171.1576" y="1679.1337">&#31649;&#29702;&#29992;&#25143;</text></g><g id="elem_viewGuide"><ellipse cx="200.8319" cy="1786.3345" fill="#F1F1F1" rx="71.5719" ry="16.7144" style="stroke:#181818;stroke-width:0.5;"/><text fill="#000000" font-family="sans-serif" font-size="14" lengthAdjust="spacing" textLength="84" x="155.8319" y="1791.6065">&#26597;&#30475;&#20351;&#29992;&#25351;&#21335;</text></g><g id="elem_viewHelpCommunity"><ellipse cx="200.8319" cy="2002.3345" fill="#F1F1F1" rx="71.5719" ry="16.7144" style="stroke:#181818;stroke-width:0.5;"/><text fill="#000000" font-family="sans-serif" font-size="14" lengthAdjust="spacing" textLength="84" x="155.8319" y="2007.6065">&#27983;&#35272;&#24110;&#21161;&#31038;&#21306;</text></g><g id="elem_communicateHelpCommunity"><ellipse cx="200.5423" cy="1929.0766" fill="#F1F1F1" rx="92.7823" ry="20.9565" style="stroke:#181818;stroke-width:0.5;"/><text fill="#000000" font-family="sans-serif" font-size="14" lengthAdjust="spacing" textLength="140" x="130.5423" y="1933.5605">&#22312;&#24110;&#21161;&#31038;&#21306;&#20013;&#21457;&#24067;&#20869;&#23481;</text></g><g id="elem_askRobot"><ellipse cx="200.616" cy="1855.2913" fill="#F1F1F1" rx="76.356" ry="17.6712" style="stroke:#181818;stroke-width:0.5;"/><text fill="#000000" font-family="sans-serif" font-size="14" lengthAdjust="spacing" textLength="98" x="148.616" y="1860.5633">&#35810;&#38382;&#38382;&#31572;&#26426;&#22120;&#20154;</text></g><g id="elem_viaAsp"><ellipse cx="200.8584" cy="406.2398" fill="#F1F1F1" rx="81.0984" ry="18.6197" style="stroke:#181818;stroke-width:0.5;"/><text fill="#000000" font-family="sans-serif" font-size="14" lengthAdjust="spacing" textLength="111" x="142.3584" y="411.5118">&#20351;&#29992;ASP&#36827;&#34892;&#32534;&#31243;</text></g><g id="elem_viaLogic"><ellipse cx="200.7336" cy="334.3148" fill="#F1F1F1" rx="81.4736" ry="18.6947" style="stroke:#181818;stroke-width:0.5;"/><text fill="#000000" font-family="sans-serif" font-size="14" lengthAdjust="spacing" textLength="112" x="141.7336" y="339.5868">&#20351;&#29992;&#36923;&#36753;&#36827;&#34892;&#25512;&#29702;</text></g><g id="elem_viaNl"><ellipse cx="200.5403" cy="258.2762" fill="#F1F1F1" rx="98.7803" ry="22.1561" style="stroke:#181818;stroke-width:0.5;"/><text fill="#000000" font-family="sans-serif" font-size="14" lengthAdjust="spacing" textLength="154" x="123.5403" y="262.7601">&#33258;&#28982;&#35821;&#35328;&#36716;&#25442;&#20026;&#36923;&#36753;&#35821;&#21477;</text></g><g id="elem_questionAutoTransfer"><ellipse cx="200.6662" cy="177.0014" fill="#F1F1F1" rx="104.9062" ry="23.3812" style="stroke:#181818;stroke-width:0.5;"/><text fill="#000000" font-family="sans-serif" font-size="14" lengthAdjust="spacing" textLength="168" x="116.6662" y="181.4852">&#36755;&#20837;&#36923;&#36753;&#38382;&#39064;&#29983;&#25104;&#36923;&#36753;&#34920;&#36798;</text></g><g id="elem_checkResult"><ellipse cx="200.8319" cy="102.3345" fill="#F1F1F1" rx="71.5719" ry="16.7144" style="stroke:#181818;stroke-width:0.5;"/><text fill="#000000" font-family="sans-serif" font-size="14" lengthAdjust="spacing" textLength="84" x="155.8319" y="107.6065">&#26597;&#30475;&#36816;&#34892;&#32467;&#26524;</text></g><g id="elem_viewCase"><ellipse cx="200.9069" cy="1150.158" fill="#F1F1F1" rx="51.1469" ry="16.5378" style="stroke:#181818;stroke-width:0.5;"/><text fill="#000000" font-family="sans-serif" font-size="14" lengthAdjust="spacing" textLength="56" x="171.1576" y="1155.1337">&#26597;&#30475;&#26696;&#20363;</text></g><g id="elem_solveCase"><ellipse cx="200.8319" cy="1082.3345" fill="#F1F1F1" rx="71.5719" ry="16.7144" style="stroke:#181818;stroke-width:0.5;"/><text fill="#000000" font-family="sans-serif" font-size="14" lengthAdjust="spacing" textLength="84" x="155.8319" y="1087.6065">&#32534;&#20889;&#26696;&#20363;&#35299;&#31572;</text></g><g id="elem_submitCaseSolution"><ellipse cx="200.8319" cy="1014.3345" fill="#F1F1F1" rx="71.5719" ry="16.7144" style="stroke:#181818;stroke-width:0.5;"/><text fill="#000000" font-family="sans-serif" font-size="14" lengthAdjust="spacing" textLength="84" x="155.8319" y="1019.6065">&#25552;&#20132;&#26696;&#20363;&#35299;&#31572;</text></g><g id="elem_checkCaseResult"><ellipse cx="200.8319" cy="946.3345" fill="#F1F1F1" rx="71.5719" ry="16.7144" style="stroke:#181818;stroke-width:0.5;"/><text fill="#000000" font-family="sans-serif" font-size="14" lengthAdjust="spacing" textLength="84" x="155.8319" y="951.6065">&#26597;&#30475;&#35299;&#31572;&#32467;&#26524;</text></g><g id="elem_caseAsp"><ellipse cx="200.8584" cy="876.2398" fill="#F1F1F1" rx="81.0984" ry="18.6197" style="stroke:#181818;stroke-width:0.5;"/><text fill="#000000" font-family="sans-serif" font-size="14" lengthAdjust="spacing" textLength="111" x="142.3584" y="881.5118">&#26597;&#30475;&#26696;&#20363;ASP&#34920;&#31034;</text></g><g id="elem_caseLogic"><ellipse cx="200.7336" cy="804.3148" fill="#F1F1F1" rx="81.4736" ry="18.6947" style="stroke:#181818;stroke-width:0.5;"/><text fill="#000000" font-family="sans-serif" font-size="14" lengthAdjust="spacing" textLength="112" x="141.7336" y="809.5868">&#26597;&#30475;&#26696;&#20363;&#36923;&#36753;&#34920;&#31034;</text></g><g id="elem_viewCaseAnalysis"><ellipse cx="200.8319" cy="734.3345" fill="#F1F1F1" rx="71.5719" ry="16.7144" style="stroke:#181818;stroke-width:0.5;"/><text fill="#000000" font-family="sans-serif" font-size="14" lengthAdjust="spacing" textLength="84" x="155.8319" y="739.6065">&#26597;&#30475;&#26696;&#20363;&#35299;&#26512;</text></g><g id="elem_viewCaseCommunity"><ellipse cx="200.8319" cy="666.3345" fill="#F1F1F1" rx="71.5719" ry="16.7144" style="stroke:#181818;stroke-width:0.5;"/><text fill="#000000" font-family="sans-serif" font-size="14" lengthAdjust="spacing" textLength="84" x="155.8319" y="671.6065">&#27983;&#35272;&#26696;&#20363;&#35770;&#22363;</text></g><g id="elem_communicateCaseCommunity"><ellipse cx="200.5423" cy="593.0766" fill="#F1F1F1" rx="92.7823" ry="20.9565" style="stroke:#181818;stroke-width:0.5;"/><text fill="#000000" font-family="sans-serif" font-size="14" lengthAdjust="spacing" textLength="140" x="130.5423" y="597.5605">&#22312;&#26696;&#20363;&#35770;&#22363;&#20013;&#21457;&#24067;&#20869;&#23481;</text></g><g id="elem_writeCaseNotes"><ellipse cx="200.8319" cy="520.3345" fill="#F1F1F1" rx="71.5719" ry="16.7144" style="stroke:#181818;stroke-width:0.5;"/><text fill="#000000" font-family="sans-serif" font-size="14" lengthAdjust="spacing" textLength="84" x="155.8319" y="525.6065">&#32534;&#36753;&#26696;&#20363;&#31508;&#35760;</text></g><g id="elem_checkCaseStatistics"><ellipse cx="200.7336" cy="1288.3148" fill="#F1F1F1" rx="81.4736" ry="18.6947" style="stroke:#181818;stroke-width:0.5;"/><text fill="#000000" font-family="sans-serif" font-size="14" lengthAdjust="spacing" textLength="112" x="141.7336" y="1293.5868">&#26597;&#30475;&#26696;&#20363;&#23436;&#25104;&#32479;&#35745;</text></g><g id="elem_caseFeedback"><ellipse cx="200.9069" cy="1218.158" fill="#F1F1F1" rx="51.1469" ry="16.5378" style="stroke:#181818;stroke-width:0.5;"/><text fill="#000000" font-family="sans-serif" font-size="14" lengthAdjust="spacing" textLength="56" x="171.1576" y="1223.1337">&#26696;&#20363;&#21453;&#39304;</text></g><g id="elem_addCase"><ellipse cx="200.9069" cy="2114.158" fill="#F1F1F1" rx="51.1469" ry="16.5378" style="stroke:#181818;stroke-width:0.5;"/><text fill="#000000" font-family="sans-serif" font-size="14" lengthAdjust="spacing" textLength="56" x="171.1576" y="2119.1337">&#26032;&#22686;&#26696;&#20363;</text></g><g id="elem_editCase"><ellipse cx="200.9069" cy="2182.158" fill="#F1F1F1" rx="51.1469" ry="16.5378" style="stroke:#181818;stroke-width:0.5;"/><text fill="#000000" font-family="sans-serif" font-size="14" lengthAdjust="spacing" textLength="56" x="171.1576" y="2187.1337">&#20462;&#25913;&#26696;&#20363;</text></g><g id="elem_checkCaseEdit"><ellipse cx="200.8319" cy="2250.3345" fill="#F1F1F1" rx="71.5719" ry="16.7144" style="stroke:#181818;stroke-width:0.5;"/><text fill="#000000" font-family="sans-serif" font-size="14" lengthAdjust="spacing" textLength="84" x="155.8319" y="2255.6065">&#23457;&#26680;&#26696;&#20363;&#20462;&#25913;</text></g><g id="elem_manageFeedback"><ellipse cx="200.8319" cy="2440.3345" fill="#F1F1F1" rx="71.5719" ry="16.7144" style="stroke:#181818;stroke-width:0.5;"/><text fill="#000000" font-family="sans-serif" font-size="14" lengthAdjust="spacing" textLength="84" x="155.8319" y="2445.6065">&#31649;&#29702;&#26696;&#20363;&#21453;&#39304;</text></g><g id="elem_monitorCases"><ellipse cx="200.7415" cy="2366.9164" fill="#F1F1F1" rx="94.4815" ry="21.2963" style="stroke:#181818;stroke-width:0.5;"/><text fill="#000000" font-family="sans-serif" font-size="14" lengthAdjust="spacing" textLength="144" x="128.7415" y="2371.4003">&#30417;&#25511;/&#32479;&#35745;&#26696;&#20363;&#23436;&#25104;&#24773;&#20917;</text></g><!--entity teacher--><g id="elem_teacher"><ellipse cx="21.76" cy="1131.1201" fill="#F1F1F1" rx="8" ry="8" style="stroke:#181818;stroke-width:0.5;"/><path d="M21.76,1139.1201 L21.76,1166.1201 M8.76,1147.1201 L34.76,1147.1201 M21.76,1166.1201 L8.76,1181.1201 M21.76,1166.1201 L34.76,1181.1201 " fill="none" style="stroke:#181818;stroke-width:0.5;"/><text fill="#000000" font-family="sans-serif" font-size="14" lengthAdjust="spacing" textLength="28" x="7.76" y="1198.6641">&#25945;&#24072;</text></g><!--entity student--><g id="elem_student"><ellipse cx="393.76" cy="1028.1201" fill="#F1F1F1" rx="8" ry="8" style="stroke:#181818;stroke-width:0.5;"/><path d="M393.76,1036.1201 L393.76,1063.1201 M380.76,1044.1201 L406.76,1044.1201 M393.76,1063.1201 L380.76,1078.1201 M393.76,1063.1201 L406.76,1078.1201 " fill="none" style="stroke:#181818;stroke-width:0.5;"/><text fill="#000000" font-family="sans-serif" font-size="14" lengthAdjust="spacing" textLength="28" x="379.76" y="1095.6641">&#23398;&#29983;</text></g><!--entity assistant--><g id="elem_assistant"><ellipse cx="21.76" cy="1245.1201" fill="#F1F1F1" rx="8" ry="8" style="stroke:#181818;stroke-width:0.5;"/><path d="M21.76,1253.1201 L21.76,1280.1201 M8.76,1261.1201 L34.76,1261.1201 M21.76,1280.1201 L8.76,1295.1201 M21.76,1280.1201 L34.76,1295.1201 " fill="none" style="stroke:#181818;stroke-width:0.5;"/><text fill="#000000" font-family="sans-serif" font-size="14" lengthAdjust="spacing" textLength="28" x="7.76" y="1312.6641">&#21161;&#25945;</text></g><!--entity expert--><g id="elem_expert"><ellipse cx="393.76" cy="1142.1201" fill="#F1F1F1" rx="8" ry="8" style="stroke:#181818;stroke-width:0.5;"/><path d="M393.76,1150.1201 L393.76,1177.1201 M380.76,1158.1201 L406.76,1158.1201 M393.76,1177.1201 L380.76,1192.1201 M393.76,1177.1201 L406.76,1192.1201 " fill="none" style="stroke:#181818;stroke-width:0.5;"/><text fill="#000000" font-family="sans-serif" font-size="14" lengthAdjust="spacing" textLength="56" x="365.76" y="1209.6641">&#30740;&#31350;&#20154;&#21592;</text></g><!--link teacher to signUp--><g id="link_teacher_signUp"><path d="M33.28,1201.8801 C45.28,1246.3101 64.22,1313.3401 71.76,1323.1201 C98.62,1357.9701 140.0229,1378.9077 168.9829,1390.6977 " fill="none" id="teacher-to-signUp" style="stroke:#181818;stroke-width:1.0;"/><polygon fill="#181818" points="174.54,1392.9601,167.7126,1385.8618,169.9091,1391.0748,164.6961,1393.2713,174.54,1392.9601" style="stroke:#181818;stroke-width:1.0;"/></g><!--link teacher to signIn--><g id="link_teacher_signIn"><path d="M32.16,1201.9201 C33.42,1207.6801 34.66,1213.5401 35.76,1219.1201 C54.64,1315.0401 6,1363.7801 71.76,1436.1201 C96.35,1463.1701 133.7741,1469.5177 163.1541,1470.6077 " fill="none" id="teacher-to-signIn" style="stroke:#181818;stroke-width:1.0;"/><polygon fill="#181818" points="169.15,1470.8301,160.3045,1466.4992,164.1534,1470.6447,160.0079,1474.4937,169.15,1470.8301" style="stroke:#181818;stroke-width:1.0;"/></g><!--link teacher to signOut--><g id="link_teacher_signOut"><path d="M32.48,1201.8601 C33.7,1207.6301 34.84,1213.5101 35.76,1219.1201 C48.55,1296.9301 20.58,1512.1401 71.76,1572.1201 C95.56,1600.0201 133.3922,1606.1864 163.0622,1606.9964 " fill="none" id="teacher-to-signOut" style="stroke:#181818;stroke-width:1.0;"/><polygon fill="#181818" points="169.06,1607.1601,160.1725,1602.916,164.0619,1607.0237,159.9542,1610.913,169.06,1607.1601" style="stroke:#181818;stroke-width:1.0;"/></g><!--link teacher to manageInfo--><g id="link_teacher_manageInfo"><path d="M32.35,1201.8801 C33.59,1207.6501 34.77,1213.5201 35.76,1219.1201 C46.87,1281.9801 29.74,1456.0601 71.76,1504.1201 C86.59,1521.0801 102.9493,1528.8013 124.7493,1533.4013 " fill="none" id="teacher-to-manageInfo" style="stroke:#181818;stroke-width:1.0;"/><polygon fill="#181818" points="130.62,1534.6401,122.6398,1528.8681,125.7277,1533.6078,120.9881,1536.6958,130.62,1534.6401" style="stroke:#181818;stroke-width:1.0;"/></g><!--link teacher to manageAccount--><g id="link_teacher_manageAccount"><path d="M32.56,1201.8501 C33.77,1207.6201 34.88,1213.5001 35.76,1219.1201 C50.23,1311.8901 11.4,1568.2001 71.76,1640.1201 C90.61,1662.5801 116.4636,1670.4662 143.6636,1673.3562 " fill="none" id="teacher-to-manageAccount" style="stroke:#181818;stroke-width:1.0;"/><polygon fill="#181818" points="149.63,1673.9901,141.103,1669.0616,144.658,1673.4618,140.2578,1677.0168,149.63,1673.9901" style="stroke:#181818;stroke-width:1.0;"/></g><!--reverse link signUp to student--><g id="link_signUp_student"><path d="M233.361,1391.3848 C263.061,1380.1348 305.1,1359.5601 329.76,1323.1201 C382.1,1245.7901 337.52,1205.1301 365.76,1116.1201 C369.34,1104.8501 374.7,1092.9401 379.71,1082.9401 " fill="none" id="signUp-backto-student" style="stroke:#181818;stroke-width:1.0;"/><polygon fill="#181818" points="227.75,1393.5101,237.5833,1394.0627,232.4258,1391.739,234.7495,1386.5814,227.75,1393.5101" style="stroke:#181818;stroke-width:1.0;"/></g><!--reverse link signIn to student--><g id="link_signIn_student"><path d="M238.3975,1470.938 C268.0175,1470.088 305.81,1463.8901 329.76,1436.1201 C376.49,1381.9301 346.18,1184.9501 365.76,1116.1201 C369.06,1104.5301 374.5,1092.3801 379.65,1082.2901 " fill="none" id="signIn-backto-student" style="stroke:#181818;stroke-width:1.0;"/><polygon fill="#181818" points="232.4,1471.1101,241.511,1474.8503,237.3979,1470.9667,241.2816,1466.8536,232.4,1471.1101" style="stroke:#181818;stroke-width:1.0;"/></g><!--reverse link signOut to student--><g id="link_signOut_student"><path d="M238.3184,1607.1411 C268.0884,1606.4511 306.2,1600.3801 329.76,1572.1201 C394.85,1494.0501 339.57,1214.3401 365.76,1116.1201 C368.92,1104.2701 374.48,1091.8801 379.74,1081.6901 " fill="none" id="signOut-backto-student" style="stroke:#181818;stroke-width:1.0;"/><polygon fill="#181818" points="232.32,1607.2801,241.4103,1611.0705,237.3187,1607.1643,241.2249,1603.0726,232.32,1607.2801" style="stroke:#181818;stroke-width:1.0;"/></g><!--reverse link manageInfo to student--><g id="link_manageInfo_student"><path d="M277.092,1533.6876 C298.912,1529.1076 315.21,1521.3301 329.76,1504.1201 C385.67,1437.9901 342.88,1199.6301 365.76,1116.1201 C368.97,1104.4001 374.47,1092.1201 379.68,1081.9801 " fill="none" id="manageInfo-backto-student" style="stroke:#181818;stroke-width:1.0;"/><polygon fill="#181818" points="271.22,1534.9201,280.8498,1536.986,276.1134,1533.893,279.2064,1529.1566,271.22,1534.9201" style="stroke:#181818;stroke-width:1.0;"/></g><!--link assistant to signUp--><g id="link_assistant_signUp"><path d="M35.79,1290.1001 C45.28,1299.9101 58.71,1313.0201 71.76,1323.1201 C106.86,1350.3001 146.5259,1373.3411 172.7459,1387.6811 " fill="none" id="assistant-to-signUp" style="stroke:#181818;stroke-width:1.0;"/><polygon fill="#181818" points="178.01,1390.5601,172.0331,1382.7322,173.6232,1388.1609,168.1944,1389.751,178.01,1390.5601" style="stroke:#181818;stroke-width:1.0;"/></g><!--link assistant to signIn--><g id="link_assistant_signIn"><path d="M24.41,1315.9001 C28.06,1352.1401 39.12,1404.6801 71.76,1436.1201 C97.84,1461.2401 134.2908,1467.9603 163.0908,1469.6903 " fill="none" id="assistant-to-signIn" style="stroke:#181818;stroke-width:1.0;"/><polygon fill="#181818" points="169.08,1470.0501,160.336,1465.5177,164.089,1469.7503,159.8563,1473.5033,169.08,1470.0501" style="stroke:#181818;stroke-width:1.0;"/></g><!--link assistant to signOut--><g id="link_assistant_signOut"><path d="M24.12,1315.7101 C27.41,1387.5001 38.17,1535.1601 71.76,1572.1201 C96.35,1599.1801 133.7741,1605.5177 163.1541,1606.6077 " fill="none" id="assistant-to-signOut" style="stroke:#181818;stroke-width:1.0;"/><polygon fill="#181818" points="169.15,1606.8301,160.3045,1602.4992,164.1534,1606.6447,160.0079,1610.4937,169.15,1606.8301" style="stroke:#181818;stroke-width:1.0;"/></g><!--link assistant to manageInfo--><g id="link_assistant_manageInfo"><path d="M26.35,1316.0501 C32.37,1374.0301 46.41,1477.5201 71.76,1504.1201 C87.31,1520.4301 103.8428,1527.9846 125.5728,1532.6346 " fill="none" id="assistant-to-manageInfo" style="stroke:#181818;stroke-width:1.0;"/><polygon fill="#181818" points="131.44,1533.8901,123.4763,1528.0954,126.5507,1532.8439,121.8022,1535.9183,131.44,1533.8901" style="stroke:#181818;stroke-width:1.0;"/></g><!--link assistant to manageAccount--><g id="link_assistant_manageAccount"><path d="M22.73,1315.7801 C23.5,1399.9501 29.91,1592.6501 71.76,1640.1201 C91.07,1662.0301 116.7579,1669.8866 143.7579,1672.9366 " fill="none" id="assistant-to-manageAccount" style="stroke:#181818;stroke-width:1.0;"/><polygon fill="#181818" points="149.72,1673.6101,141.2259,1668.6252,144.7516,1673.0489,140.3279,1676.5746,149.72,1673.6101" style="stroke:#181818;stroke-width:1.0;"/></g><!--reverse link signUp to expert--><g id="link_signUp_expert"><path d="M231.878,1390.0807 C260.258,1377.8207 301.15,1356.5501 329.76,1323.1201 C357.21,1291.0301 374.09,1245.2701 383.38,1212.7401 " fill="none" id="signUp-backto-expert" style="stroke:#181818;stroke-width:1.0;"/><polygon fill="#181818" points="226.37,1392.4601,236.2183,1392.563,230.96,1390.4773,233.0457,1385.219,226.37,1392.4601" style="stroke:#181818;stroke-width:1.0;"/></g><!--reverse link signIn to expert--><g id="link_signIn_expert"><path d="M238.5126,1470.1232 C267.5726,1468.6832 304.39,1462.1201 329.76,1436.1201 C360.5,1404.6201 380.01,1278.1801 388.24,1212.7701 " fill="none" id="signIn-backto-expert" style="stroke:#181818;stroke-width:1.0;"/><polygon fill="#181818" points="232.52,1470.4201,241.7069,1473.9698,237.5139,1470.1727,241.311,1465.9796,232.52,1470.4201" style="stroke:#181818;stroke-width:1.0;"/></g><!--reverse link signOut to expert--><g id="link_signOut_expert"><path d="M238.4161,1606.654 C267.8261,1605.594 305.27,1599.2701 329.76,1572.1201 C377.02,1519.7201 388.91,1303.1201 391.83,1212.8701 " fill="none" id="signOut-backto-expert" style="stroke:#181818;stroke-width:1.0;"/><polygon fill="#181818" points="232.42,1606.8701,241.5582,1610.5434,237.4168,1606.69,241.2701,1602.5485,232.42,1606.8701" style="stroke:#181818;stroke-width:1.0;"/></g><!--reverse link manageInfo to expert--><g id="link_manageInfo_expert"><path d="M276.168,1532.8483 C297.918,1528.2083 314.41,1520.6101 329.76,1504.1201 C368.72,1462.2701 384.92,1291.3001 390.4,1212.8301 " fill="none" id="manageInfo-backto-expert" style="stroke:#181818;stroke-width:1.0;"/><polygon fill="#181818" points="270.3,1534.1001,279.9365,1536.1343,275.19,1533.0569,278.2674,1528.3104,270.3,1534.1001" style="stroke:#181818;stroke-width:1.0;"/></g><!--link teacher to viewGuide--><g id="link_teacher_viewGuide"><path d="M32.62,1201.8401 C33.82,1207.6101 34.92,1213.5001 35.76,1219.1201 C51.9,1326.6601 15.32,1614.1801 71.76,1707.1201 C91.35,1739.3701 124.0511,1758.1076 153.6611,1770.2876 " fill="none" id="teacher-to-viewGuide" style="stroke:#181818;stroke-width:1.0;"/><polygon fill="#181818" points="159.21,1772.5701,152.4084,1765.4471,154.5859,1770.668,149.365,1772.8456,159.21,1772.5701" style="stroke:#181818;stroke-width:1.0;"/></g><!--link teacher to viewHelpCommunity--><g id="link_teacher_viewHelpCommunity"><path d="M32.75,1201.8201 C33.93,1207.5901 34.99,1213.4901 35.76,1219.1201 C47.05,1301.5601 19.7,1902.2101 71.76,1967.1201 C86.03,1984.9101 102.54,1992.938 124.61,1997.608 " fill="none" id="teacher-to-viewHelpCommunity" style="stroke:#181818;stroke-width:1.0;"/><polygon fill="#181818" points="130.48,1998.8501,122.503,1993.0736,125.5883,1997.815,120.8469,2000.9003,130.48,1998.8501" style="stroke:#181818;stroke-width:1.0;"/></g><!--link teacher to communicateHelpCommunity--><g id="link_teacher_communicateHelpCommunity"><path d="M32.72,1201.8201 C33.91,1207.6001 34.97,1213.4901 35.76,1219.1201 C46.1,1293.0601 25.73,1831.3401 71.76,1890.1201 C83.15,1904.6601 94.1095,1912.0279 111.6695,1917.8979 " fill="none" id="teacher-to-communicateHelpCommunity" style="stroke:#181818;stroke-width:1.0;"/><polygon fill="#181818" points="117.36,1919.8001,110.0924,1913.1531,112.6179,1918.2149,107.5561,1920.7404,117.36,1919.8001" style="stroke:#181818;stroke-width:1.0;"/></g><!--link teacher to askRobot--><g id="link_teacher_askRobot"><path d="M32.69,1201.8301 C33.88,1207.6001 34.96,1213.4901 35.76,1219.1201 C45.23,1285.3401 29.6,1768.1801 71.76,1820.1201 C85.19,1836.6701 99.7958,1844.4196 120.4158,1849.3696 " fill="none" id="teacher-to-askRobot" style="stroke:#181818;stroke-width:1.0;"/><polygon fill="#181818" points="126.25,1850.7701,118.4323,1844.7798,121.3881,1849.603,116.5649,1852.5588,126.25,1850.7701" style="stroke:#181818;stroke-width:1.0;"/></g><!--reverse link viewGuide to student--><g id="link_viewGuide_student"><path d="M247.9727,1770.367 C277.6527,1758.217 310.38,1739.5001 329.76,1707.1201 C397.33,1594.2201 333,1243.5501 365.76,1116.1201 C368.81,1104.2401 374.36,1091.8501 379.64,1081.6601 " fill="none" id="viewGuide-backto-student" style="stroke:#181818;stroke-width:1.0;"/><polygon fill="#181818" points="242.42,1772.6401,252.2645,1772.9323,247.0473,1770.7459,249.2337,1765.5286,242.42,1772.6401" style="stroke:#181818;stroke-width:1.0;"/></g><!--reverse link viewHelpCommunity to student--><g id="link_viewHelpCommunity_student"><path d="M276.9603,1997.6591 C299.0503,1992.9891 315.54,1984.9501 329.76,1967.1201 C388.76,1893.1201 343.05,1207.9901 365.76,1116.1201 C368.73,1104.1101 374.34,1091.5901 379.68,1081.3601 " fill="none" id="viewHelpCommunity-backto-student" style="stroke:#181818;stroke-width:1.0;"/><polygon fill="#181818" points="271.09,1998.9001,280.7227,2000.9521,275.9819,1997.8659,279.068,1993.1251,271.09,1998.9001" style="stroke:#181818;stroke-width:1.0;"/></g><!--reverse link communicateHelpCommunity to student--><g id="link_communicateHelpCommunity_student"><path d="M290.2455,1917.8332 C307.6855,1911.9532 318.5,1904.6101 329.76,1890.1201 C382.6,1822.1501 344.93,1199.6501 365.76,1116.1201 C368.75,1104.1101 374.37,1091.6001 379.7,1081.3701 " fill="none" id="communicateHelpCommunity-backto-student" style="stroke:#181818;stroke-width:1.0;"/><polygon fill="#181818" points="284.56,1919.7501,294.3663,1920.6651,289.298,1918.1527,291.8104,1913.0844,284.56,1919.7501" style="stroke:#181818;stroke-width:1.0;"/></g><!--reverse link askRobot to student--><g id="link_askRobot_student"><path d="M281.195,1849.4429 C301.825,1844.5029 316.4,1836.7201 329.76,1820.1201 C378.86,1759.0901 346.63,1192.0701 365.76,1116.1201 C368.78,1104.1201 374.4,1091.6101 379.73,1081.3801 " fill="none" id="askRobot-backto-student" style="stroke:#181818;stroke-width:1.0;"/><polygon fill="#181818" points="275.36,1850.8401,285.0441,1852.6343,280.2225,1849.6757,283.1811,1844.8542,275.36,1850.8401" style="stroke:#181818;stroke-width:1.0;"/></g><!--link assistant to viewGuide--><g id="link_assistant_viewGuide"><path d="M22.93,1315.9401 C24.01,1409.9601 30.85,1642.6601 71.76,1707.1201 C92.05,1739.0901 124.8819,1757.8816 154.3419,1770.1616 " fill="none" id="assistant-to-viewGuide" style="stroke:#181818;stroke-width:1.0;"/><polygon fill="#181818" points="159.88,1772.4701,153.1118,1765.3153,155.2649,1770.5464,150.0338,1772.6995,159.88,1772.4701" style="stroke:#181818;stroke-width:1.0;"/></g><!--link assistant to viewHelpCommunity--><g id="link_assistant_viewHelpCommunity"><path d="M22.94,1315.8301 C23.94,1455.2601 30.36,1916.6901 71.76,1967.1201 C86.23,1984.7501 102.7812,1992.7324 124.8412,1997.4224 " fill="none" id="assistant-to-viewHelpCommunity" style="stroke:#181818;stroke-width:1.0;"/><polygon fill="#181818" points="130.71,1998.6701,122.7386,1992.886,125.8193,1997.6303,121.0749,2000.7111,130.71,1998.6701" style="stroke:#181818;stroke-width:1.0;"/></g><!--link assistant to communicateHelpCommunity--><g id="link_assistant_communicateHelpCommunity"><path d="M23.37,1315.7701 C25.71,1444.5701 35.82,1845.4301 71.76,1890.1201 C83.33,1904.5101 94.3682,1911.8318 111.9382,1917.6918 " fill="none" id="assistant-to-communicateHelpCommunity" style="stroke:#181818;stroke-width:1.0;"/><polygon fill="#181818" points="117.63,1919.5901,110.3579,1912.9481,112.8869,1918.0082,107.8268,1920.5371,117.63,1919.5901" style="stroke:#181818;stroke-width:1.0;"/></g><!--link assistant to askRobot--><g id="link_assistant_askRobot"><path d="M23.76,1315.8101 C27.1,1434.6201 39.54,1781.6201 71.76,1820.1201 C85.44,1836.4601 100.1066,1844.1562 120.7166,1849.1162 " fill="none" id="assistant-to-askRobot" style="stroke:#181818;stroke-width:1.0;"/><polygon fill="#181818" points="126.55,1850.5201,118.7357,1844.5253,121.6888,1849.3502,116.8639,1852.3033,126.55,1850.5201" style="stroke:#181818;stroke-width:1.0;"/></g><!--reverse link viewGuide to expert--><g id="link_viewGuide_expert"><path d="M247.1362,1770.1371 C276.5762,1757.8371 309.4,1739.0501 329.76,1707.1201 C382.08,1625.0601 390.97,1322.4501 392.46,1212.9801 " fill="none" id="viewGuide-backto-expert" style="stroke:#181818;stroke-width:1.0;"/><polygon fill="#181818" points="241.6,1772.4501,251.4464,1772.6714,246.2135,1770.5226,248.3623,1765.2897,241.6,1772.4501" style="stroke:#181818;stroke-width:1.0;"/></g><!--reverse link viewHelpCommunity to expert--><g id="link_viewHelpCommunity_expert"><path d="M276.5982,1997.3493 C298.6482,1992.6493 315.22,1984.6901 329.76,1967.1201 C378.21,1908.6001 389.9,1365.4901 392.24,1212.8501 " fill="none" id="viewHelpCommunity-backto-expert" style="stroke:#181818;stroke-width:1.0;"/><polygon fill="#181818" points="270.73,1998.6001,280.3661,2000.636,275.6201,1997.5578,278.6984,1992.8118,270.73,1998.6001" style="stroke:#181818;stroke-width:1.0;"/></g><!--reverse link communicateHelpCommunity to expert--><g id="link_communicateHelpCommunity_expert"><path d="M289.5018,1917.6218 C307.0718,1911.7618 318.13,1904.4701 329.76,1890.1201 C372.6,1837.2801 388.14,1355.5801 391.83,1212.8201 " fill="none" id="communicateHelpCommunity-backto-expert" style="stroke:#181818;stroke-width:1.0;"/><polygon fill="#181818" points="283.81,1919.5201,293.6132,1920.4671,288.5531,1917.9382,291.0821,1912.8781,283.81,1919.5201" style="stroke:#181818;stroke-width:1.0;"/></g><!--reverse link askRobot to expert--><g id="link_askRobot_expert"><path d="M280.7234,1849.0562 C301.3334,1844.0962 316.02,1836.4101 329.76,1820.1201 C369,1773.5801 386.85,1345.9401 391.49,1212.6201 " fill="none" id="askRobot-backto-expert" style="stroke:#181818;stroke-width:1.0;"/><polygon fill="#181818" points="274.89,1850.4601,284.5761,1852.2433,279.7512,1849.2902,282.7043,1844.4653,274.89,1850.4601" style="stroke:#181818;stroke-width:1.0;"/></g><!--link teacher to viaAsp--><g id="link_teacher_viaAsp"><path d="M23.58,1122.2901 C26.66,985.7001 39.13,541.6201 71.76,487.1201 C90.61,455.6501 121.4263,436.8324 150.5763,424.0324 " fill="none" id="teacher-to-viaAsp" style="stroke:#181818;stroke-width:1.0;"/><polygon fill="#181818" points="156.07,421.6201,146.2212,421.5761,151.4919,423.6304,149.4377,428.9011,156.07,421.6201" style="stroke:#181818;stroke-width:1.0;"/></g><!--link teacher to viaLogic--><g id="link_teacher_viaLogic"><path d="M22.57,1122.5201 C22.19,970.3801 24.22,429.0101 71.76,370.1201 C84.52,354.3101 97.8353,346.676 117.4253,341.416 " fill="none" id="teacher-to-viaLogic" style="stroke:#181818;stroke-width:1.0;"/><polygon fill="#181818" points="123.22,339.8601,113.4906,338.3308,118.391,341.1567,115.5652,346.0572,123.22,339.8601" style="stroke:#181818;stroke-width:1.0;"/></g><!--link teacher to viaNl--><g id="link_teacher_viaNl"><path d="M22.4,1122.5801 C21.29,961.9401 20.63,363.6901 71.76,298.1201 C82.57,284.2601 92.5017,277.1419 109.0717,271.1119 " fill="none" id="teacher-to-viaNl" style="stroke:#181818;stroke-width:1.0;"/><polygon fill="#181818" points="114.71,269.0601,104.8847,268.379,110.0114,270.77,107.6205,275.8967,114.71,269.0601" style="stroke:#181818;stroke-width:1.0;"/></g><!--link teacher to questionAutoTransfer--><g id="link_teacher_questionAutoTransfer"><path d="M23.57,1122.3901 C27.29,947.6401 43.77,254.4601 71.76,218.1201 C81.94,204.9001 90.8391,198.0731 106.4191,191.9231 " fill="none" id="teacher-to-questionAutoTransfer" style="stroke:#181818;stroke-width:1.0;"/><polygon fill="#181818" points="112,189.7201,102.1599,189.304,107.3492,191.5559,105.0973,196.7452,112,189.7201" style="stroke:#181818;stroke-width:1.0;"/></g><!--link teacher to checkResult--><g id="link_teacher_checkResult"><path d="M23.36,1122.3501 C26.28,938.1301 40.24,175.1401 71.76,136.1201 C85.99,118.5001 102.3431,110.6192 124.3131,106.0992 " fill="none" id="teacher-to-checkResult" style="stroke:#181818;stroke-width:1.0;"/><polygon fill="#181818" points="130.19,104.8901,120.5686,102.7858,125.2926,105.8977,122.1807,110.6217,130.19,104.8901" style="stroke:#181818;stroke-width:1.0;"/></g><!--reverse link viaAsp to student--><g id="link_viaAsp_student"><path d="M250.2637,424.135 C279.2937,437.025 310.26,455.8901 329.76,487.1201 C385.38,576.2101 392.14,904.7801 392.77,1019.3801 " fill="none" id="viaAsp-backto-student" style="stroke:#181818;stroke-width:1.0;"/><polygon fill="#181818" points="244.78,421.7001,251.3823,429.0083,249.3498,423.7292,254.6289,421.6967,244.78,421.7001" style="stroke:#181818;stroke-width:1.0;"/></g><!--reverse link viaLogic to student--><g id="link_viaLogic_student"><path d="M283.7946,341.6668 C303.3746,346.9268 316.77,354.5001 329.76,370.1201 C371.43,420.2101 387.72,880.4401 391.72,1019.5101 " fill="none" id="viaLogic-backto-student" style="stroke:#181818;stroke-width:1.0;"/><polygon fill="#181818" points="278,340.1101,285.6541,346.3081,282.8288,341.4073,287.7296,338.5821,278,340.1101" style="stroke:#181818;stroke-width:1.0;"/></g><!--reverse link viaNl to student--><g id="link_viaNl_student"><path d="M292.1801,271.3168 C308.7701,277.3368 318.77,284.4001 329.76,298.1201 C375.13,354.7701 388.98,871.4201 392.04,1019.5801 " fill="none" id="viaNl-backto-student" style="stroke:#181818;stroke-width:1.0;"/><polygon fill="#181818" points="286.54,269.2701,293.6358,276.1002,291.2401,270.9756,296.3646,268.58,286.54,269.2701" style="stroke:#181818;stroke-width:1.0;"/></g><!--reverse link questionAutoTransfer to student--><g id="link_questionAutoTransfer_student"><path d="M294.8631,192.0976 C310.4631,198.2376 319.43,205.0201 329.76,218.1201 C379.83,281.6001 390.4,861.5901 392.35,1019.5501 " fill="none" id="questionAutoTransfer-backto-student" style="stroke:#181818;stroke-width:1.0;"/><polygon fill="#181818" points="289.28,189.9001,296.1897,196.9184,293.9326,191.7313,299.1196,189.4742,289.28,189.9001" style="stroke:#181818;stroke-width:1.0;"/></g><!--reverse link checkResult to student--><g id="link_checkResult_student"><path d="M277.0056,106.2654 C298.9556,110.8054 315.35,118.6501 329.76,136.1201 C386.61,205.0401 392.23,851.4001 392.73,1019.3801 " fill="none" id="checkResult-backto-student" style="stroke:#181818;stroke-width:1.0;"/><polygon fill="#181818" points="271.13,105.0501,279.1333,110.7901,276.0264,106.0629,280.7536,102.9559,271.13,105.0501" style="stroke:#181818;stroke-width:1.0;"/></g><!--link assistant to viaAsp--><g id="link_assistant_viaAsp"><path d="M32.75,1236.4201 C33.93,1230.6501 34.99,1224.7501 35.76,1219.1201 C46.86,1138.4501 30.74,557.4701 71.76,487.1201 C90.17,455.5401 120.832,436.7827 150.032,424.0227 " fill="none" id="assistant-to-viaAsp" style="stroke:#181818;stroke-width:1.0;"/><polygon fill="#181818" points="155.53,421.6201,145.6813,421.5586,150.9483,423.6222,148.8847,428.8893,155.53,421.6201" style="stroke:#181818;stroke-width:1.0;"/></g><!--link assistant to viaLogic--><g id="link_assistant_viaLogic"><path d="M32.78,1236.4201 C33.96,1230.6501 35,1224.7501 35.76,1219.1201 C48.31,1125.5401 13.16,444.1601 71.76,370.1201 C84.37,354.1901 97.6353,346.516 117.2253,341.256 " fill="none" id="assistant-to-viaLogic" style="stroke:#181818;stroke-width:1.0;"/><polygon fill="#181818" points="123.02,339.7001,113.2906,338.1708,118.191,340.9967,115.3652,345.8972,123.02,339.7001" style="stroke:#181818;stroke-width:1.0;"/></g><!--link assistant to viaNl--><g id="link_assistant_viaNl"><path d="M32.8,1236.4301 C33.97,1230.6501 35.01,1224.7501 35.76,1219.1201 C42.48,1168.3601 40.63,338.7801 71.76,298.1201 C82.38,284.2601 92.1281,277.1493 108.5681,271.1093 " fill="none" id="assistant-to-viaNl" style="stroke:#181818;stroke-width:1.0;"/><polygon fill="#181818" points="114.2,269.0401,104.3727,268.3892,109.5067,270.7644,107.1315,275.8985,114.2,269.0401" style="stroke:#181818;stroke-width:1.0;"/></g><!--link assistant to questionAutoTransfer--><g id="link_assistant_questionAutoTransfer"><path d="M32.82,1236.4301 C33.99,1230.6501 35.02,1224.7601 35.76,1219.1201 C42.98,1163.9401 38.15,262.4701 71.76,218.1201 C81.76,204.9101 90.4972,198.1035 105.9372,191.9435 " fill="none" id="assistant-to-questionAutoTransfer" style="stroke:#181818;stroke-width:1.0;"/><polygon fill="#181818" points="111.51,189.7201,101.6685,189.3399,106.866,191.5729,104.633,196.7704,111.51,189.7201" style="stroke:#181818;stroke-width:1.0;"/></g><!--link assistant to checkResult--><g id="link_assistant_checkResult"><path d="M32.83,1236.4301 C34,1230.6601 35.03,1224.7601 35.76,1219.1201 C43.49,1159.4201 34.27,183.2201 71.76,136.1201 C85.86,118.4001 102.1825,110.4861 124.1625,105.9761 " fill="none" id="assistant-to-checkResult" style="stroke:#181818;stroke-width:1.0;"/><polygon fill="#181818" points="130.04,104.7701,120.4197,102.6607,125.142,105.7751,122.0277,110.4975,130.04,104.7701" style="stroke:#181818;stroke-width:1.0;"/></g><!--reverse link viaAsp to expert--><g id="link_viaAsp_expert"><path d="M251.0986,423.9313 C280.3186,436.6913 311.15,455.5001 329.76,487.1201 C400.77,607.7801 331.15,980.4601 365.76,1116.1201 C367.22,1121.8501 369.27,1127.7001 371.59,1133.3601 " fill="none" id="viaAsp-backto-expert" style="stroke:#181818;stroke-width:1.0;"/><polygon fill="#181818" points="245.6,421.5301,252.2471,428.7976,250.1822,423.5311,255.4486,421.4661,245.6,421.5301" style="stroke:#181818;stroke-width:1.0;"/></g><!--reverse link viaLogic to expert--><g id="link_viaLogic_expert"><path d="M284.2347,341.306 C303.8247,346.566 317.11,354.2301 329.76,370.1201 C381.45,435.0401 345.61,1035.6201 365.76,1116.1201 C367.2,1121.8601 369.23,1127.7101 371.54,1133.3701 " fill="none" id="viaLogic-backto-expert" style="stroke:#181818;stroke-width:1.0;"/><polygon fill="#181818" points="278.44,339.7501,286.0948,345.9472,283.269,341.0467,288.1694,338.2208,278.44,339.7501" style="stroke:#181818;stroke-width:1.0;"/></g><!--reverse link viaNl to expert--><g id="link_viaNl_expert"><path d="M292.5772,271.0149 C309.1472,277.0549 319.04,284.1901 329.76,298.1201 C385.25,370.2201 343.85,1027.8201 365.76,1116.1201 C367.18,1121.8601 369.21,1127.7101 371.52,1133.3801 " fill="none" id="viaNl-backto-expert" style="stroke:#181818;stroke-width:1.0;"/><polygon fill="#181818" points="286.94,268.9601,294.0259,275.8005,291.6376,270.6725,296.7656,268.2842,286.94,268.9601" style="stroke:#181818;stroke-width:1.0;"/></g><!--reverse link questionAutoTransfer to expert--><g id="link_questionAutoTransfer_expert"><path d="M295.5428,191.9735 C310.9828,198.1335 319.73,204.9401 329.76,218.1201 C390.23,297.5901 341.91,1019.1501 365.76,1116.1201 C367.17,1121.8601 369.19,1127.7201 371.5,1133.3801 " fill="none" id="questionAutoTransfer-backto-expert" style="stroke:#181818;stroke-width:1.0;"/><polygon fill="#181818" points="289.97,189.7501,296.847,196.8004,294.614,191.6029,299.8115,189.3699,289.97,189.7501" style="stroke:#181818;stroke-width:1.0;"/></g><!--reverse link checkResult to expert--><g id="link_checkResult_expert"><path d="M277.3175,106.0061 C299.2975,110.5161 315.63,118.4201 329.76,136.1201 C397.76,221.2601 339.91,1010.2701 365.76,1116.1201 C367.16,1121.8601 369.18,1127.7201 371.48,1133.3901 " fill="none" id="checkResult-backto-expert" style="stroke:#181818;stroke-width:1.0;"/><polygon fill="#181818" points="271.44,104.8001,279.4523,110.5275,276.338,105.8051,281.0603,102.6907,271.44,104.8001" style="stroke:#181818;stroke-width:1.0;"/></g><!--link teacher to viewCase--><g id="link_teacher_viewCase"><path d="M35.78,1161.2401 C59.65,1159.6201 105.5738,1156.5061 144.6438,1153.8561 " fill="none" id="teacher-to-viewCase" style="stroke:#181818;stroke-width:1.0;"/><polygon fill="#181818" points="150.63,1153.4501,141.3799,1150.0683,145.6415,1153.7885,141.9213,1158.05,150.63,1153.4501" style="stroke:#181818;stroke-width:1.0;"/></g><!--link teacher to solveCase--><g id="link_teacher_solveCase"><path d="M35.82,1146.3501 C44.92,1136.3201 57.89,1123.8201 71.76,1116.1201 C92.97,1104.3501 112.5898,1097.8326 135.1998,1092.6826 " fill="none" id="teacher-to-solveCase" style="stroke:#181818;stroke-width:1.0;"/><polygon fill="#181818" points="141.05,1091.3501,131.3864,1089.4488,136.1749,1092.4606,133.1631,1097.249,141.05,1091.3501" style="stroke:#181818;stroke-width:1.0;"/></g><!--link teacher to submitCaseSolution--><g id="link_teacher_submitCaseSolution"><path d="M30.5,1122.5301 C37.32,1097.7901 49.75,1067.1301 71.76,1048.1201 C88.99,1033.2401 106.1795,1026.0763 127.9595,1021.2963 " fill="none" id="teacher-to-submitCaseSolution" style="stroke:#181818;stroke-width:1.0;"/><polygon fill="#181818" points="133.82,1020.0101,124.1718,1018.0324,128.9362,1021.0819,125.8867,1025.8464,133.82,1020.0101" style="stroke:#181818;stroke-width:1.0;"/></g><!--link teacher to checkCaseResult--><g id="link_teacher_checkCaseResult"><path d="M22.5,1122.4201 C24.45,1081.2601 33.98,1017.7701 71.76,980.1201 C87.72,964.2101 104.3555,956.7682 126.0455,952.0782 " fill="none" id="teacher-to-checkCaseResult" style="stroke:#181818;stroke-width:1.0;"/><polygon fill="#181818" points="131.91,950.8101,122.2679,948.8026,127.0229,951.8668,123.9587,956.6219,131.91,950.8101" style="stroke:#181818;stroke-width:1.0;"/></g><!--link teacher to caseAsp--><g id="link_teacher_caseAsp"><path d="M25.53,1122.5401 C30.71,1059.9901 43.95,942.2701 71.76,912.1201 C85.69,897.0201 99.6113,889.6114 119.4013,884.3514 " fill="none" id="teacher-to-caseAsp" style="stroke:#181818;stroke-width:1.0;"/><polygon fill="#181818" points="125.2,882.8101,115.4745,881.2562,120.3678,884.0945,117.5295,888.9877,125.2,882.8101" style="stroke:#181818;stroke-width:1.0;"/></g><!--link teacher to caseLogic--><g id="link_teacher_caseLogic"><path d="M23.58,1122.4301 C25.98,1045.7901 35.34,881.3201 71.76,840.1201 C85.21,824.9001 98.7462,817.4495 118.3262,812.1795 " fill="none" id="teacher-to-caseLogic" style="stroke:#181818;stroke-width:1.0;"/><polygon fill="#181818" points="124.12,810.6201,114.3897,809.0967,119.2918,811.9196,116.4689,816.8218,124.12,810.6201" style="stroke:#181818;stroke-width:1.0;"/></g><!--link teacher to viewCaseAnalysis--><g id="link_teacher_viewCaseAnalysis"><path d="M22.27,1122.6001 C21.98,1033.4401 26.21,820.3201 71.76,768.1201 C86.57,751.1401 102.9287,743.4163 124.7287,738.8263 " fill="none" id="teacher-to-viewCaseAnalysis" style="stroke:#181818;stroke-width:1.0;"/><polygon fill="#181818" points="130.6,737.5901,120.969,735.5302,125.7073,738.6203,122.6172,743.3586,130.6,737.5901" style="stroke:#181818;stroke-width:1.0;"/></g><!--link teacher to viewCaseCommunity--><g id="link_teacher_viewCaseCommunity"><path d="M24.42,1122.4601 C29.22,1016.3701 44.5,731.9301 71.76,700.1201 C86.42,683.0101 102.7385,675.2552 124.5585,670.6652 " fill="none" id="teacher-to-viewCaseCommunity" style="stroke:#181818;stroke-width:1.0;"/><polygon fill="#181818" points="130.43,669.4301,120.7993,667.3685,125.5371,670.4594,122.4462,675.1971,130.43,669.4301" style="stroke:#181818;stroke-width:1.0;"/></g><!--link teacher to communicateCaseCommunity--><g id="link_teacher_communicateCaseCommunity"><path d="M23.92,1122.2501 C27.65,1005.4501 40.97,669.9101 71.76,632.1201 C83.42,617.8001 94.4982,610.5085 112.0682,604.6485 " fill="none" id="teacher-to-communicateCaseCommunity" style="stroke:#181818;stroke-width:1.0;"/><polygon fill="#181818" points="117.76,602.7501,107.9568,601.8031,113.0169,604.3321,110.4879,609.3921,117.76,602.7501" style="stroke:#181818;stroke-width:1.0;"/></g><!--link teacher to writeCaseNotes--><g id="link_teacher_writeCaseNotes"><path d="M23.34,1122.3601 C25.58,994.1801 35.4,597.6601 71.76,554.1201 C86.2,536.8201 102.4773,529.0195 124.3073,524.4495 " fill="none" id="teacher-to-writeCaseNotes" style="stroke:#181818;stroke-width:1.0;"/><polygon fill="#181818" points="130.18,523.2201,120.5513,521.1491,125.2861,524.2446,122.1906,528.9794,130.18,523.2201" style="stroke:#181818;stroke-width:1.0;"/></g><!--link teacher to checkCaseStatistics--><g id="link_teacher_checkCaseStatistics"><path d="M35.82,1200.9701 C43.65,1218.8901 55.35,1239.0301 71.76,1252.1201 C88.27,1265.2901 103.5357,1272.1202 123.7757,1277.4202 " fill="none" id="teacher-to-checkCaseStatistics" style="stroke:#181818;stroke-width:1.0;"/><polygon fill="#181818" points="129.58,1278.9401,121.8868,1272.7907,124.7431,1277.6735,119.8603,1280.5298,129.58,1278.9401" style="stroke:#181818;stroke-width:1.0;"/></g><!--link teacher to caseFeedback--><g id="link_teacher_caseFeedback"><path d="M35.83,1168.6901 C45.57,1173.4101 59.28,1179.6901 71.76,1184.1201 C100.15,1194.1901 127.1649,1201.463 152.4749,1207.523 " fill="none" id="teacher-to-caseFeedback" style="stroke:#181818;stroke-width:1.0;"/><polygon fill="#181818" points="158.31,1208.9201,150.4888,1202.9344,153.4474,1207.7559,148.626,1210.7145,158.31,1208.9201" style="stroke:#181818;stroke-width:1.0;"/></g><!--reverse link viewCase to student--><g id="link_viewCase_student"><path d="M253.4456,1142.2541 C278.7856,1137.2341 304.3,1129.9501 329.76,1116.1201 C349.33,1105.4901 367.73,1087.5701 379.54,1074.6601 " fill="none" id="viewCase-backto-student" style="stroke:#181818;stroke-width:1.0;"/><polygon fill="#181818" points="247.56,1143.4201,257.1657,1145.5949,252.4647,1142.4485,255.6111,1137.7474,247.56,1143.4201" style="stroke:#181818;stroke-width:1.0;"/></g><!--reverse link solveCase to student--><g id="link_solveCase_student"><path d="M270.5269,1073.8425 C311.6169,1068.8925 355.95,1063.5501 379.46,1060.7201 " fill="none" id="solveCase-backto-student" style="stroke:#181818;stroke-width:1.0;"/><polygon fill="#181818" points="264.57,1074.5601,273.9838,1077.455,269.5341,1073.9621,273.027,1069.5124,264.57,1074.5601" style="stroke:#181818;stroke-width:1.0;"/></g><!--reverse link submitCaseSolution to student--><g id="link_submitCaseSolution_student"><path d="M257.2803,1027.2054 C300.1703,1037.3054 353.37,1049.8401 379.45,1055.9901 " fill="none" id="submitCaseSolution-backto-student" style="stroke:#181818;stroke-width:1.0;"/><polygon fill="#181818" points="251.44,1025.8301,259.2835,1031.7866,256.3069,1026.9762,261.1172,1023.9996,251.44,1025.8301" style="stroke:#181818;stroke-width:1.0;"/></g><!--reverse link checkCaseResult to student--><g id="link_checkCaseResult_student"><path d="M269.2049,955.5417 C291.4349,960.5217 310.03,967.2301 329.76,980.1201 C351.2,994.1301 368.68,1017.8501 379.74,1035.6601 " fill="none" id="checkCaseResult-backto-student" style="stroke:#181818;stroke-width:1.0;"/><polygon fill="#181818" points="263.35,954.2301,271.2579,960.1008,268.2291,955.3231,273.0067,952.2943,263.35,954.2301" style="stroke:#181818;stroke-width:1.0;"/></g><!--reverse link caseAsp to student--><g id="link_caseAsp_student"><path d="M279.1926,886.0567 C299.2626,891.3367 314.05,898.3401 329.76,912.1201 C361.38,939.8601 377.64,986.2501 385.65,1019.5001 " fill="none" id="caseAsp-backto-student" style="stroke:#181818;stroke-width:1.0;"/><polygon fill="#181818" points="273.39,884.5301,281.0762,890.6883,278.2255,885.8022,283.1115,882.9515,273.39,884.5301" style="stroke:#181818;stroke-width:1.0;"/></g><!--reverse link caseLogic to student--><g id="link_caseLogic_student"><path d="M281.2978,813.1448 C301.0778,818.4148 315.19,825.6401 329.76,840.1201 C378.02,888.0901 389.87,970.4601 392.45,1019.3501 " fill="none" id="caseLogic-backto-student" style="stroke:#181818;stroke-width:1.0;"/><polygon fill="#181818" points="275.5,811.6001,283.1668,817.7823,280.3315,812.8874,285.2264,810.052,275.5,811.6001" style="stroke:#181818;stroke-width:1.0;"/></g><!--reverse link viewCaseAnalysis to student--><g id="link_viewCaseAnalysis_student"><path d="M275.9366,739.6182 C297.6666,744.2782 314.2,751.8201 329.76,768.1201 C363.89,803.8701 382.19,948.6201 389.26,1019.5501 " fill="none" id="viewCaseAnalysis-backto-student" style="stroke:#181818;stroke-width:1.0;"/><polygon fill="#181818" points="270.07,738.3601,278.0312,744.1583,274.9588,739.4085,279.7087,736.3362,270.07,738.3601" style="stroke:#181818;stroke-width:1.0;"/></g><!--reverse link viewCaseCommunity to student--><g id="link_viewCaseCommunity_student"><path d="M276.3086,671.2588 C298.0686,675.8888 314.53,683.5201 329.76,700.1201 C372.17,746.3401 386.68,936.2701 391.06,1019.6101 " fill="none" id="viewCaseCommunity-backto-student" style="stroke:#181818;stroke-width:1.0;"/><polygon fill="#181818" points="270.44,670.0101,278.4105,675.7956,275.3305,671.0507,280.0754,667.9708,270.44,670.0101" style="stroke:#181818;stroke-width:1.0;"/></g><!--reverse link communicateCaseCommunity to student--><g id="link_communicateCaseCommunity_student"><path d="M288.5772,604.982 C306.2872,610.832 317.64,618.0401 329.76,632.1201 C379.44,689.8301 389.95,925.0601 392.17,1019.5501 " fill="none" id="communicateCaseCommunity-backto-student" style="stroke:#181818;stroke-width:1.0;"/><polygon fill="#181818" points="282.88,603.1001,290.1712,609.7211,287.6277,604.6684,292.6805,602.1248,282.88,603.1001" style="stroke:#181818;stroke-width:1.0;"/></g><!--reverse link writeCaseNotes to student--><g id="link_writeCaseNotes_student"><path d="M276.7813,524.8263 C298.5813,529.4163 314.94,537.1401 329.76,554.1201 C390.11,623.2601 394,912.7601 393.32,1019.4301 " fill="none" id="writeCaseNotes-backto-student" style="stroke:#181818;stroke-width:1.0;"/><polygon fill="#181818" points="270.91,523.5901,278.8928,529.3586,275.8027,524.6203,280.541,521.5302,270.91,523.5901" style="stroke:#181818;stroke-width:1.0;"/></g><!--reverse link checkCaseStatistics to student--><g id="link_checkCaseStatistics_student"><path d="M281.4978,1279.2954 C301.2778,1274.0254 315.34,1266.7601 329.76,1252.1201 C373.63,1207.5701 344.29,1174.8401 365.76,1116.1201 C369.67,1105.4201 374.86,1094.0101 379.64,1084.2301 " fill="none" id="checkCaseStatistics-backto-student" style="stroke:#181818;stroke-width:1.0;"/><polygon fill="#181818" points="275.7,1280.8401,285.4264,1282.3882,280.5315,1279.5529,283.3668,1274.6579,275.7,1280.8401" style="stroke:#181818;stroke-width:1.0;"/></g><!--reverse link caseFeedback to student--><g id="link_caseFeedback_student"><path d="M256.7191,1213.7807 C282.5791,1209.7707 307.53,1202.1601 329.76,1184.1201 C333.93,1180.7301 362.45,1122.2701 379.66,1086.5201 " fill="none" id="caseFeedback-backto-student" style="stroke:#181818;stroke-width:1.0;"/><polygon fill="#181818" points="250.79,1214.7001,260.2966,1217.2738,255.7309,1213.9339,259.0708,1209.3682,250.79,1214.7001" style="stroke:#181818;stroke-width:1.0;"/></g><!--link assistant to viewCase--><g id="link_assistant_viewCase"><path d="M35.54,1236.3101 C43.31,1217.9701 55.03,1197.3901 71.76,1184.1201 C94.19,1166.3301 119.1529,1158.7325 144.9629,1154.6725 " fill="none" id="assistant-to-viewCase" style="stroke:#181818;stroke-width:1.0;"/><polygon fill="#181818" points="150.89,1153.7401,141.3778,1151.1872,145.9507,1154.5171,142.6209,1159.0901,150.89,1153.7401" style="stroke:#181818;stroke-width:1.0;"/></g><!--link assistant to solveCase--><g id="link_assistant_solveCase"><path d="M32.73,1236.5901 C44.29,1192.0301 62.89,1124.6601 71.76,1116.1201 C87.99,1100.4901 104.6875,1093.1171 126.3575,1088.3971 " fill="none" id="assistant-to-solveCase" style="stroke:#181818;stroke-width:1.0;"/><polygon fill="#181818" points="132.22,1087.1201,122.5749,1085.1272,127.3345,1088.1842,124.2775,1092.9439,132.22,1087.1201" style="stroke:#181818;stroke-width:1.0;"/></g><!--link assistant to submitCaseSolution--><g id="link_assistant_submitCaseSolution"><path d="M31.87,1236.5801 C33.19,1230.7301 34.52,1224.7701 35.76,1219.1201 C52.4,1143.2601 18.29,1104.4501 71.76,1048.1201 C87.27,1031.7801 103.8028,1024.2156 125.5328,1019.5656 " fill="none" id="assistant-to-submitCaseSolution" style="stroke:#181818;stroke-width:1.0;"/><polygon fill="#181818" points="131.4,1018.3101,121.7622,1016.2819,126.5107,1019.3564,123.4363,1024.1048,131.4,1018.3101" style="stroke:#181818;stroke-width:1.0;"/></g><!--link assistant to checkCaseResult--><g id="link_assistant_checkCaseResult"><path d="M32.23,1236.3401 C33.49,1230.5701 34.7,1224.7101 35.76,1219.1201 C45.74,1166.3401 35.93,1020.1301 71.76,980.1201 C86.79,963.3301 103.2006,955.6651 124.9806,951.0451 " fill="none" id="assistant-to-checkCaseResult" style="stroke:#181818;stroke-width:1.0;"/><polygon fill="#181818" points="130.85,949.8001,121.2159,947.7547,125.9588,950.8376,122.8759,955.5806,130.85,949.8001" style="stroke:#181818;stroke-width:1.0;"/></g><!--link assistant to caseAsp--><g id="link_assistant_caseAsp"><path d="M32.4,1236.3701 C33.63,1230.6001 34.8,1224.7201 35.76,1219.1201 C47.41,1151.4301 27.16,964.3601 71.76,912.1201 C85.03,896.5801 98.6233,889.0387 118.3133,883.7787 " fill="none" id="assistant-to-caseAsp" style="stroke:#181818;stroke-width:1.0;"/><polygon fill="#181818" points="124.11,882.2301,114.3826,880.6884,119.2794,883.5206,116.4473,888.4174,124.11,882.2301" style="stroke:#181818;stroke-width:1.0;"/></g><!--link assistant to caseLogic--><g id="link_assistant_caseLogic"><path d="M32.51,1236.3801 C33.73,1230.6201 34.86,1224.7301 35.76,1219.1201 C49.19,1135.5901 17.54,905.0601 71.76,840.1201 C84.78,824.5301 98.1753,816.956 117.7653,811.696 " fill="none" id="assistant-to-caseLogic" style="stroke:#181818;stroke-width:1.0;"/><polygon fill="#181818" points="123.56,810.1401,113.8306,808.6108,118.731,811.4367,115.9052,816.3372,123.56,810.1401" style="stroke:#181818;stroke-width:1.0;"/></g><!--link assistant to viewCaseAnalysis--><g id="link_assistant_viewCaseAnalysis"><path d="M32.59,1236.4001 C33.79,1230.6301 34.9,1224.7401 35.76,1219.1201 C43.37,1169.4301 39.55,806.7201 71.76,768.1201 C86.2,750.8201 102.4668,743.007 124.2968,738.447 " fill="none" id="assistant-to-viewCaseAnalysis" style="stroke:#181818;stroke-width:1.0;"/><polygon fill="#181818" points="130.17,737.2201,120.5423,735.1449,125.2756,738.2425,122.178,742.9759,130.17,737.2201" style="stroke:#181818;stroke-width:1.0;"/></g><!--link assistant to viewCaseCommunity--><g id="link_assistant_viewCaseCommunity"><path d="M32.64,1236.4101 C33.84,1230.6301 34.93,1224.7401 35.76,1219.1201 C44.21,1161.9401 34.96,744.6901 71.76,700.1201 C86.18,682.6601 102.5744,674.8154 124.5244,670.2754 " fill="none" id="assistant-to-viewCaseCommunity" style="stroke:#181818;stroke-width:1.0;"/><polygon fill="#181818" points="130.4,669.0601,120.7764,666.9659,125.5036,670.0729,122.3967,674.8001,130.4,669.0601" style="stroke:#181818;stroke-width:1.0;"/></g><!--link assistant to communicateCaseCommunity--><g id="link_assistant_communicateCaseCommunity"><path d="M32.69,1236.4101 C33.87,1230.6401 34.95,1224.7501 35.76,1219.1201 C45.06,1154.4401 31.28,683.4101 71.76,632.1201 C83.2,617.6201 94.1895,610.2723 111.7495,604.4023 " fill="none" id="assistant-to-communicateCaseCommunity" style="stroke:#181818;stroke-width:1.0;"/><polygon fill="#181818" points="117.44,602.5001,107.6361,601.5598,112.6979,604.0853,110.1724,609.1471,117.44,602.5001" style="stroke:#181818;stroke-width:1.0;"/></g><!--link assistant to writeCaseNotes--><g id="link_assistant_writeCaseNotes"><path d="M32.72,1236.4201 C33.91,1230.6401 34.97,1224.7501 35.76,1219.1201 C46.02,1145.8401 25.08,611.5401 71.76,554.1201 C86.05,536.5501 102.4132,528.6697 124.3732,524.1497 " fill="none" id="assistant-to-writeCaseNotes" style="stroke:#181818;stroke-width:1.0;"/><polygon fill="#181818" points="130.25,522.9401,120.6284,520.8367,125.3527,523.9481,122.2412,528.6724,130.25,522.9401" style="stroke:#181818;stroke-width:1.0;"/></g><!--link assistant to checkCaseStatistics--><g id="link_assistant_checkCaseStatistics"><path d="M35.78,1277.0001 C54.22,1278.2501 83.4137,1280.2345 116.4737,1282.4745 " fill="none" id="assistant-to-checkCaseStatistics" style="stroke:#181818;stroke-width:1.0;"/><polygon fill="#181818" points="122.46,1282.8801,113.751,1278.2809,117.4714,1282.5421,113.2102,1286.2626,122.46,1282.8801" style="stroke:#181818;stroke-width:1.0;"/></g><!--link assistant to caseFeedback--><g id="link_assistant_caseFeedback"><path d="M35.76,1268.8801 C45.46,1263.7001 59.16,1256.8301 71.76,1252.1201 C99.76,1241.6601 126.4886,1234.4204 151.7686,1228.4904 " fill="none" id="assistant-to-caseFeedback" style="stroke:#181818;stroke-width:1.0;"/><polygon fill="#181818" points="157.61,1227.1201,147.9343,1225.2812,152.7421,1228.262,149.7613,1233.0698,157.61,1227.1201" style="stroke:#181818;stroke-width:1.0;"/></g><!--reverse link viewCase to expert--><g id="link_viewCase_expert"><path d="M254.9271,1156.5263 C291.6071,1160.9363 335.22,1166.1901 365.54,1169.8401 " fill="none" id="viewCase-backto-expert" style="stroke:#181818;stroke-width:1.0;"/><polygon fill="#181818" points="248.97,1155.8101,257.4282,1160.8558,253.9342,1156.407,258.3831,1152.913,248.97,1155.8101" style="stroke:#181818;stroke-width:1.0;"/></g><!--reverse link solveCase to expert--><g id="link_solveCase_expert"><path d="M265.8894,1092.8161 C288.5694,1097.9961 308.34,1104.4901 329.76,1116.1201 C342.72,1123.1601 355.17,1133.4001 365.53,1143.2601 " fill="none" id="solveCase-backto-expert" style="stroke:#181818;stroke-width:1.0;"/><polygon fill="#181818" points="260.04,1091.4801,267.9234,1097.3837,264.9145,1092.5934,269.7047,1089.5845,260.04,1091.4801" style="stroke:#181818;stroke-width:1.0;"/></g><!--reverse link submitCaseSolution to expert--><g id="link_submitCaseSolution_expert"><path d="M272.729,1021.8332 C294.569,1026.6532 312,1033.7001 329.76,1048.1201 C333.49,1051.1401 356.61,1098.0501 373.77,1133.5201 " fill="none" id="submitCaseSolution-backto-expert" style="stroke:#181818;stroke-width:1.0;"/><polygon fill="#181818" points="266.87,1020.5401,274.7965,1026.3857,271.7525,1021.6177,276.5206,1018.5737,266.87,1020.5401" style="stroke:#181818;stroke-width:1.0;"/></g><!--reverse link checkCaseResult to expert--><g id="link_checkCaseResult_expert"><path d="M275.5145,952.0382 C297.2045,956.7282 313.83,964.1801 329.76,980.1201 C373.95,1024.3501 344.29,1057.4001 365.76,1116.1201 C367.83,1121.7801 370.25,1127.6301 372.79,1133.3401 " fill="none" id="checkCaseResult-backto-expert" style="stroke:#181818;stroke-width:1.0;"/><polygon fill="#181818" points="269.65,950.7701,277.6013,956.5819,274.5371,951.8268,279.2921,948.7626,269.65,950.7701" style="stroke:#181818;stroke-width:1.0;"/></g><!--reverse link caseAsp to expert--><g id="link_caseAsp_expert"><path d="M282.6358,884.2821 C302.3158,889.5521 316.05,896.9701 329.76,912.1201 C391.54,980.3801 337.8,1028.4001 365.76,1116.1201 C367.59,1121.8601 369.88,1127.7601 372.35,1133.4901 " fill="none" id="caseAsp-backto-expert" style="stroke:#181818;stroke-width:1.0;"/><polygon fill="#181818" points="276.84,882.7301,284.499,888.922,281.6698,884.0235,286.5684,881.1943,276.84,882.7301" style="stroke:#181818;stroke-width:1.0;"/></g><!--reverse link caseLogic to expert--><g id="link_caseLogic_expert"><path d="M283.4038,811.9895 C302.9838,817.2595 316.47,824.7601 329.76,840.1201 C370.23,886.9001 348.31,1056.7801 365.76,1116.1201 C367.46,1121.9001 369.67,1127.8201 372.11,1133.5701 " fill="none" id="caseLogic-backto-expert" style="stroke:#181818;stroke-width:1.0;"/><polygon fill="#181818" points="277.61,810.4301,285.2611,816.6318,282.4382,811.7296,287.3403,808.9067,277.61,810.4301" style="stroke:#181818;stroke-width:1.0;"/></g><!--reverse link viewCaseAnalysis to expert--><g id="link_viewCaseAnalysis_expert"><path d="M276.9919,738.6432 C298.8019,743.2232 315.12,750.9901 329.76,768.1201 C380.27,827.2301 344.82,1041.2501 365.76,1116.1201 C367.38,1121.9201 369.55,1127.8601 371.96,1133.6101 " fill="none" id="viewCaseAnalysis-backto-expert" style="stroke:#181818;stroke-width:1.0;"/><polygon fill="#181818" points="271.12,737.4101,279.1058,743.1744,276.0133,738.4377,280.7499,735.3451,271.12,737.4101" style="stroke:#181818;stroke-width:1.0;"/></g><!--reverse link viewCaseCommunity to expert--><g id="link_viewCaseCommunity_expert"><path d="M277.1527,670.4995 C298.9827,675.0695 315.27,682.8701 329.76,700.1201 C389.45,771.1601 341.52,1026.5501 365.76,1116.1201 C367.3,1121.8301 369.4,1127.6601 371.74,1133.3201 " fill="none" id="viewCaseCommunity-backto-expert" style="stroke:#181818;stroke-width:1.0;"/><polygon fill="#181818" points="271.28,669.2701,279.2694,675.0294,276.1739,670.2946,280.9087,667.1991,271.28,669.2701" style="stroke:#181818;stroke-width:1.0;"/></g><!--reverse link communicateCaseCommunity to expert--><g id="link_communicateCaseCommunity_expert"><path d="M289.6318,604.5085 C307.2018,610.3685 318.22,617.7001 329.76,632.1201 C397.13,716.3501 338.21,1011.8501 365.76,1116.1201 C367.27,1121.8401 369.35,1127.6801 371.68,1133.3401 " fill="none" id="communicateCaseCommunity-backto-expert" style="stroke:#181818;stroke-width:1.0;"/><polygon fill="#181818" points="283.94,602.6101,291.2121,609.2521,288.6831,604.1921,293.7432,601.6631,283.94,602.6101" style="stroke:#181818;stroke-width:1.0;"/></g><!--reverse link writeCaseNotes to expert--><g id="link_writeCaseNotes_expert"><path d="M277.0462,524.2328 C298.9962,528.7628 315.39,536.6201 329.76,554.1201 C369.47,602.4801 350.09,1055.5401 365.76,1116.1201 C367.24,1121.8401 369.3,1127.6901 371.62,1133.3501 " fill="none" id="writeCaseNotes-backto-expert" style="stroke:#181818;stroke-width:1.0;"/><polygon fill="#181818" points="271.17,523.0201,279.1758,528.7566,276.0668,524.0307,280.7927,520.9217,271.17,523.0201" style="stroke:#181818;stroke-width:1.0;"/></g><!--reverse link checkCaseStatistics to expert--><g id="link_checkCaseStatistics_expert"><path d="M274.0907,1276.205 C294.9607,1270.835 311.49,1264.2501 329.76,1252.1201 C344.96,1242.0301 358.21,1227.1001 368.58,1212.9301 " fill="none" id="checkCaseStatistics-backto-expert" style="stroke:#181818;stroke-width:1.0;"/><polygon fill="#181818" points="268.28,1277.7001,277.9929,1279.3312,273.1223,1276.4542,275.9993,1271.5836,268.28,1277.7001" style="stroke:#181818;stroke-width:1.0;"/></g><!--reverse link caseFeedback to expert--><g id="link_caseFeedback_expert"><path d="M248.5699,1207.0934 C285.7299,1198.3334 333.62,1187.0501 365.68,1179.5001 " fill="none" id="caseFeedback-backto-expert" style="stroke:#181818;stroke-width:1.0;"/><polygon fill="#181818" points="242.73,1208.4701,252.4077,1210.2984,247.5966,1207.3229,250.5721,1202.5118,242.73,1208.4701" style="stroke:#181818;stroke-width:1.0;"/></g><!--link teacher to addCase--><g id="link_teacher_addCase"><path d="M32.77,1201.8201 C33.95,1207.5901 35,1213.4901 35.76,1219.1201 C47.9,1309.0601 25.81,1956.8601 71.76,2035.1201 C91.93,2069.4601 127.895,2088.753 158.205,2100.493 " fill="none" id="teacher-to-addCase" style="stroke:#181818;stroke-width:1.0;"/><polygon fill="#181818" points="163.8,2102.6601,156.8523,2095.6795,159.1375,2100.8542,153.9628,2103.1394,163.8,2102.6601" style="stroke:#181818;stroke-width:1.0;"/></g><!--link teacher to editCase--><g id="link_teacher_editCase"><path d="M32.8,1201.8101 C33.97,1207.5901 35.01,1213.4901 35.76,1219.1201 C42.53,1270.3201 39.49,2107.7901 71.76,2148.1201 C90.15,2171.1001 116.18,2179.0009 143.58,2181.7509 " fill="none" id="teacher-to-editCase" style="stroke:#181818;stroke-width:1.0;"/><polygon fill="#181818" points="149.55,2182.3501,140.9944,2177.4713,144.575,2181.8508,140.1955,2185.4314,149.55,2182.3501" style="stroke:#181818;stroke-width:1.0;"/></g><!--link teacher to checkCaseEdit--><g id="link_teacher_checkCaseEdit"><path d="M32.82,1201.8101 C33.99,1207.5901 35.02,1213.4801 35.76,1219.1201 C42.95,1274.0801 37.18,2172.8001 71.76,2216.1201 C85.89,2233.8201 102.213,2241.7216 124.193,2246.2416 " fill="none" id="teacher-to-checkCaseEdit" style="stroke:#181818;stroke-width:1.0;"/><polygon fill="#181818" points="130.07,2247.4501,122.0602,2241.7193,125.1725,2246.443,120.4488,2249.5553,130.07,2247.4501" style="stroke:#181818;stroke-width:1.0;"/></g><!--reverse link addCase to student--><g id="link_addCase_student"><path d="M243.3563,2100.5265 C273.6963,2088.7965 309.68,2069.5101 329.76,2035.1201 C381.29,1946.8701 341.39,1215.3601 365.76,1116.1201 C368.71,1104.1001 374.32,1091.5901 379.66,1081.3601 " fill="none" id="addCase-backto-student" style="stroke:#181818;stroke-width:1.0;"/><polygon fill="#181818" points="237.76,2102.6901,247.5969,2103.1755,242.4236,2100.8871,244.712,2095.7138,237.76,2102.6901" style="stroke:#181818;stroke-width:1.0;"/></g><!--reverse link editCase to student--><g id="link_editCase_student"><path d="M257.97,2181.7812 C285.38,2179.0312 311.41,2171.1301 329.76,2148.1201 C401.28,2058.4001 338.64,1227.6101 365.76,1116.1201 C368.68,1104.1001 374.29,1091.5801 379.64,1081.3501 " fill="none" id="editCase-backto-student" style="stroke:#181818;stroke-width:1.0;"/><polygon fill="#181818" points="252,2182.3801,261.3544,2185.4617,256.975,2181.881,260.5557,2177.5017,252,2182.3801" style="stroke:#181818;stroke-width:1.0;"/></g><!--link assistant to addCase--><g id="link_assistant_addCase"><path d="M23.21,1315.7201 C25.16,1462.9201 34.56,1973.2301 71.76,2035.1201 C92.27,2069.2501 128.1821,2088.5649 158.3821,2100.3749 " fill="none" id="assistant-to-addCase" style="stroke:#181818;stroke-width:1.0;"/><polygon fill="#181818" points="163.97,2102.5601,157.0449,2095.557,159.3134,2100.7391,154.1313,2103.0076,163.97,2102.5601" style="stroke:#181818;stroke-width:1.0;"/></g><!--link assistant to editCase--><g id="link_assistant_editCase"><path d="M23.7,1315.8901 C27.81,1482.2701 45.15,2115.4601 71.76,2148.1201 C90.35,2170.9401 116.381,2178.8312 143.731,2181.6212 " fill="none" id="assistant-to-editCase" style="stroke:#181818;stroke-width:1.0;"/><polygon fill="#181818" points="149.7,2182.2301,141.1524,2177.3374,144.7258,2181.7227,140.3405,2185.2961,149.7,2182.2301" style="stroke:#181818;stroke-width:1.0;"/></g><!--link assistant to checkCaseEdit--><g id="link_assistant_checkCaseEdit"><path d="M23.53,1315.7201 C27.09,1489.8701 42.98,2180.6501 71.76,2216.1201 C86.03,2233.7101 102.3937,2241.5779 124.3537,2246.1079 " fill="none" id="assistant-to-checkCaseEdit" style="stroke:#181818;stroke-width:1.0;"/><polygon fill="#181818" points="130.23,2247.3201,122.2237,2241.5843,125.3331,2246.31,120.6075,2249.4194,130.23,2247.3201" style="stroke:#181818;stroke-width:1.0;"/></g><!--reverse link addCase to expert--><g id="link_addCase_expert"><path d="M243.0648,2100.3269 C273.2148,2088.4869 309.1,2069.1701 329.76,2035.1201 C372.79,1964.2001 388.49,1372.6601 391.97,1212.8101 " fill="none" id="addCase-backto-expert" style="stroke:#181818;stroke-width:1.0;"/><polygon fill="#181818" points="237.48,2102.5201,247.3193,2102.9536,242.134,2100.6925,244.3951,2095.5072,237.48,2102.5201" style="stroke:#181818;stroke-width:1.0;"/></g><!--reverse link editCase to expert--><g id="link_editCase_expert"><path d="M258.0375,2181.516 C285.2875,2178.666 311.15,2170.7701 329.76,2148.1201 C389.93,2074.8901 393.06,1386.3701 392.88,1212.7301 " fill="none" id="editCase-backto-expert" style="stroke:#181818;stroke-width:1.0;"/><polygon fill="#181818" points="252.07,2182.1401,261.4373,2185.1822,257.0429,2181.62,260.6051,2177.2256,252.07,2182.1401" style="stroke:#181818;stroke-width:1.0;"/></g><!--reverse link checkCaseEdit to expert--><g id="link_checkCaseEdit_expert"><path d="M277.0862,2246.0374 C299.0362,2241.5074 315.42,2233.6501 329.76,2216.1201 C394.27,2137.2801 394.08,1393.7901 393.06,1212.7301 " fill="none" id="checkCaseEdit-backto-expert" style="stroke:#181818;stroke-width:1.0;"/><polygon fill="#181818" points="271.21,2247.2501,280.8327,2249.3485,276.1068,2246.2395,279.2158,2241.5136,271.21,2247.2501" style="stroke:#181818;stroke-width:1.0;"/></g><!--link teacher to manageFeedback--><g id="link_teacher_manageFeedback"><path d="M32.84,1201.8101 C34.01,1207.5801 35.04,1213.4801 35.76,1219.1201 C44.13,1284.5601 30.75,2354.4401 71.76,2406.1201 C85.84,2423.8601 102.1525,2431.7741 124.1325,2436.2841 " fill="none" id="teacher-to-manageFeedback" style="stroke:#181818;stroke-width:1.0;"/><polygon fill="#181818" points="130.01,2437.4901,121.9977,2431.7628,125.112,2436.4851,120.3897,2439.5995,130.01,2437.4901" style="stroke:#181818;stroke-width:1.0;"/></g><!--link teacher to monitorCases--><g id="link_teacher_monitorCases"><path d="M32.83,1201.8101 C34,1207.5901 35.03,1213.4801 35.76,1219.1201 C50.98,1336.4301 13.81,2179.9901 71.76,2283.1201 C89.01,2313.8201 117.2797,2332.677 145.7597,2346.197 " fill="none" id="teacher-to-monitorCases" style="stroke:#181818;stroke-width:1.0;"/><polygon fill="#181818" points="151.18,2348.7701,144.765,2341.297,146.6631,2346.6259,141.3342,2348.524,151.18,2348.7701" style="stroke:#181818;stroke-width:1.0;"/></g><!--link assistant to manageFeedback--><g id="link_assistant_manageFeedback"><path d="M23.17,1315.6301 C25.36,1510.6201 36.9,2362.7701 71.76,2406.1201 C85.95,2423.7701 102.2931,2431.661 124.2631,2436.181 " fill="none" id="assistant-to-manageFeedback" style="stroke:#181818;stroke-width:1.0;"/><polygon fill="#181818" points="130.14,2437.3901,122.1307,2431.6585,125.2426,2436.3825,120.5186,2439.4944,130.14,2437.3901" style="stroke:#181818;stroke-width:1.0;"/></g><!--link assistant to monitorCases--><g id="link_assistant_monitorCases"><path d="M22.58,1315.6901 C22.08,1491.6501 23.14,2198.0701 71.76,2283.1201 C89.24,2313.7001 117.4945,2332.5371 145.9245,2346.0971 " fill="none" id="assistant-to-monitorCases" style="stroke:#181818;stroke-width:1.0;"/><polygon fill="#181818" points="151.34,2348.6801,144.9387,2341.1953,146.827,2346.5276,141.4947,2348.416,151.34,2348.6801" style="stroke:#181818;stroke-width:1.0;"/></g><!--reverse link monitorCases to expert--><g id="link_monitorCases_expert"><path d="M255.5126,2346.041 C283.9026,2332.461 312.16,2313.6201 329.76,2283.1201 C384.12,2188.9201 391.59,1400.2701 392.6,1212.9301 " fill="none" id="monitorCases-backto-expert" style="stroke:#181818;stroke-width:1.0;"/><polygon fill="#181818" points="250.1,2348.6301,259.945,2348.3549,254.6105,2346.4726,256.4929,2341.1381,250.1,2348.6301" style="stroke:#181818;stroke-width:1.0;"/></g><!--SRC=[hLZTJjj85BxtKrZST7k1zWrMGjN-LAgwgxBx02OPm2BOsTXk5wrMQjK2qG85H4gBO86mKDAg1AIARWWbl4p6Dc-nOuypdZCpJc84ueRld3DdpZV7vvl1DTqIqaU2MgFRMSBR7V_vPNXS7T6qUxepOrfbesBCwYNJGkvS6UbbkpGN_Q5f9JJfwgwjLyofQLSlcXLKS4tRqZIZuDeLVSH_iuLRrH7TS7GN6OLfLEbPyCdxeBONMnpNAoBBPPQ_Fv2ms68uZkcuHceBzcl1Xo_TTXklluizq1zbL74rBKfiM5D94Nxrl-vrtNznEgB_gUdantDGmN2G_et_kO4Nbk_7QSqfwxSoD0TRb_Zg3JC_j6JpOfkPV_PSmTwi1siBtTP7iiFm_9M_kHNxpXgMCOKUMfEsoftkbtCSAnHiZzJy5oZBtrZfNktuoujuvQrSrjvHiBFKlRgE5ejTulMUckZPZvvPH8Bt-IevNTng4gg3mmvURZFldr2f_C2UdVKiqvs3KNYdmOTqMoTuTHstNkA5UToyY5SeqCY2uQ8-2uMd1pTlc-GtEAdvEssyrI1qtQVdFVF4dh3To5qeF_Yw6Uo_2A_NmlgoL3ujV6pyb_1wczWZtyPIKfCnvfGrbViDwV7EEetmNpV8IVGY7jbJPa682HS_1g- -XASdOUDvUFN9Npdejjh94gU4YQDUyEEI6DdPmFD7r3Mg- -0TQNo_kfO4rnjXfnC7_-uX9_fwnZpN_hLYMCua-LnKvqnP22ut_DqToliqAimyGOvNahgcNYLVDEsTZAwXBgm37X2JqAPVD_725dKBZ_ybfqQ_0Blq5CdU_kfQjtqeUtiJiwORkO_R9IyU4ghAuW2niYWggIvp_z7Xrnl18Msao1wTUwOx8v-FK9qx7qHsv- -k0QR6BACqHuQKwWDBWffj_Cys2Ch-mFYG0HzOduN8WP7Yw5h1frhOF8k3drLC6lROTf6JNIPkBfFs32xtmcOT7iAuQxXa89i5CPh6hQxSlAyoDdz0g3XX56QK7OdR6rbDkNc63tQvfZIAHRdBkjTDltR1UQ4YxIw1qcRTtszHDne22_gUH0dxmnUVyUeP7StIvYWibKldDYiOXcol-w-FlwLqyWJxB-VnmZcDjyaXsfLeHqwqdJvorKUg-ibK3eaQLfxuRGwId_pISoUoaqzok8862qfUCRcTaDoLYEGH46q8VHXU6swX2tar8OSUvDQ2t3gGNmFkPFxddFstd_j3pdnjy3mVOfRdc-DQpZ5z-n5DdaNyAqDBtZRwwEXtlJajGcG-Yr0qbtcCcy4opAPkybhIHxrocaq6IJuPZ392bCj97cszvnPVY0oIfMKmMXgYtD8g0ok8Fk5WFH96SafOb1A0e9XxElzY0eockYIYK3vuQwR6y4uzCH5FAKqeut0rQCzC2jtIj93eDAsCm_MWFJCjT4lJWbD8iqemN0sOCtC2hpGb-GAv5w5maB542n0Tw098D9P7bE89ke3NIUamuxGII1DBC4aDCMLoeHz0Ul5Gu_GIIDDBC4aFCMLweIz0Uk5qu-mYHfEBACaD86Lgs1qWS_nnSmzRwJEEnGECMtOV0QXyzv0Ecxjd05joeH2nvDgWsX2x8gYC0uTEjfCWxSeAE04NTvnAjZoROiO46M5C2hZCfQ9tEJO5QyAdZ2QCgZV7E5MRXvYh_Tm4PZFguRYLTv-oAu_Wc4L1IHcx0Ywpg_WqENO5QyAkZ2RigZV7s5MRXv2FVcu2kndrSEpAkq_PbQGc9X5U6HYt49QfbKSFnomq9iHAOCAhSbkCLgLri3xsyH8uLHV2KIhjEsMqDsBPVshWJIUvnFCOkxOhHn2zeWiNbsGLYB9rnFj6uWrHvftHG3Gll4Ka2m6GhQCcZIv3ME7_FwIufpC2WGay7bItOHOc644WlEnofly1]--></g></svg>