<?xml version="1.0" encoding="us-ascii" standalone="no"?><svg xmlns="http://www.w3.org/2000/svg" xmlns:xlink="http://www.w3.org/1999/xlink" contentStyleType="text/css" height="508px" preserveAspectRatio="none" style="width:494px;height:508px;background:#FFFFFF;" version="1.1" viewBox="0 0 494 508" width="494px" zoomAndPan="magnify"><defs/><g><text fill="#000000" font-family="sans-serif" font-size="14" font-weight="bold" lengthAdjust="spacing" textLength="135" x="172.5" y="26.0439">&#29992;&#25143;&#20449;&#24687;&#25805;&#20316;&#29992;&#20363;&#22270;</text><!--cluster ????--><g id="cluster_&#29992;&#25143;&#20449;&#24687;"><rect fill="none" height="360" rx="2.5" ry="2.5" style="stroke:#181818;stroke-width:1.0;" width="378" x="110" y="47.1201"/><text fill="#000000" font-family="sans-serif" font-size="14" font-weight="bold" lengthAdjust="spacing" textLength="60" x="269" y="65.1641">&#29992;&#25143;&#20449;&#24687;</text></g><g id="elem_signUp"><ellipse cx="197.2843" cy="374.1401" fill="#F1F1F1" rx="31.2843" ry="16.52" style="stroke:#181818;stroke-width:0.5;"/><text fill="#000000" font-family="sans-serif" font-size="14" lengthAdjust="spacing" textLength="28" x="183.2843" y="378.624">&#27880;&#20876;</text></g><g id="elem_signIn"><ellipse cx="197.2843" cy="306.1401" fill="#F1F1F1" rx="31.2843" ry="16.52" style="stroke:#181818;stroke-width:0.5;"/><text fill="#000000" font-family="sans-serif" font-size="14" lengthAdjust="spacing" textLength="28" x="183.2843" y="310.624">&#30331;&#24405;</text></g><g id="elem_signOut"><ellipse cx="197.2843" cy="238.1401" fill="#F1F1F1" rx="31.2843" ry="16.52" style="stroke:#181818;stroke-width:0.5;"/><text fill="#000000" font-family="sans-serif" font-size="14" lengthAdjust="spacing" textLength="28" x="183.2843" y="242.624">&#30331;&#20986;</text></g><g id="elem_manageInfo"><ellipse cx="197.5719" cy="170.3345" fill="#F1F1F1" rx="71.5719" ry="16.7144" style="stroke:#181818;stroke-width:0.5;"/><text fill="#000000" font-family="sans-serif" font-size="14" lengthAdjust="spacing" textLength="84" x="152.5719" y="175.6065">&#31649;&#29702;&#20010;&#20154;&#36164;&#26009;</text></g><g id="elem_manageAccount"><ellipse cx="197.6469" cy="102.158" fill="#F1F1F1" rx="51.1469" ry="16.5378" style="stroke:#181818;stroke-width:0.5;"/><text fill="#000000" font-family="sans-serif" font-size="14" lengthAdjust="spacing" textLength="56" x="167.8976" y="107.1337">&#31649;&#29702;&#29992;&#25143;</text></g><g id="elem_setRight"><ellipse cx="400.5719" cy="170.3345" fill="#F1F1F1" rx="71.5719" ry="16.7144" style="stroke:#181818;stroke-width:0.5;"/><text fill="#000000" font-family="sans-serif" font-size="14" lengthAdjust="spacing" textLength="84" x="355.5719" y="175.6065">&#35774;&#32622;&#29992;&#25143;&#26435;&#38480;</text></g><g id="elem_closeAccount"><ellipse cx="400.6469" cy="102.158" fill="#F1F1F1" rx="51.1469" ry="16.5378" style="stroke:#181818;stroke-width:0.5;"/><text fill="#000000" font-family="sans-serif" font-size="14" lengthAdjust="spacing" textLength="56" x="370.8976" y="107.1337">&#27880;&#38144;&#36134;&#21495;</text></g><!--entity teacherAndStudent--><g id="elem_teacherAndStudent"><ellipse cx="36" cy="207.1201" fill="#F1F1F1" rx="8" ry="8" style="stroke:#181818;stroke-width:0.5;"/><path d="M36,215.1201 L36,242.1201 M23,223.1201 L49,223.1201 M36,242.1201 L23,257.1201 M36,242.1201 L49,257.1201 " fill="none" style="stroke:#181818;stroke-width:0.5;"/><text fill="#000000" font-family="sans-serif" font-size="14" lengthAdjust="spacing" textLength="60" x="6" y="274.6641">&#25945;&#24072;/&#21161;&#25945;</text></g><!--entity assistantAndExpert--><g id="elem_assistantAndExpert"><ellipse cx="400.5" cy="432.1201" fill="#F1F1F1" rx="8" ry="8" style="stroke:#181818;stroke-width:0.5;"/><path d="M400.5,440.1201 L400.5,467.1201 M387.5,448.1201 L413.5,448.1201 M400.5,467.1201 L387.5,482.1201 M400.5,467.1201 L413.5,482.1201 " fill="none" style="stroke:#181818;stroke-width:0.5;"/><text fill="#000000" font-family="sans-serif" font-size="14" lengthAdjust="spacing" textLength="88" x="356.5" y="499.6641">&#23398;&#29983;/&#30740;&#31350;&#20154;&#21592;</text></g><!--link teacherAndStudent to signUp--><g id="link_teacherAndStudent_signUp"><path d="M54.41,277.7901 C65.39,298.8301 81.42,323.6601 102,340.1201 C121.07,355.3601 141.7038,362.7079 161.7838,367.4979 " fill="none" id="teacherAndStudent-to-signUp" style="stroke:#181818;stroke-width:1.0;"/><polygon fill="#181818" points="167.62,368.8901,159.7938,362.911,162.7565,367.7299,157.9375,370.6926,167.62,368.8901" style="stroke:#181818;stroke-width:1.0;"/></g><!--link teacherAndStudent to signIn--><g id="link_teacherAndStudent_signIn"><path d="M66.03,254.3901 C77.12,260.3101 89.99,266.8501 102,272.1201 C124.51,282.0001 145.1964,289.4172 164.3564,295.7872 " fill="none" id="teacherAndStudent-to-signIn" style="stroke:#181818;stroke-width:1.0;"/><polygon fill="#181818" points="170.05,297.6801,162.7716,291.045,165.3053,296.1027,160.2477,298.6365,170.05,297.6801" style="stroke:#181818;stroke-width:1.0;"/></g><!--link teacherAndStudent to signOut--><g id="link_teacherAndStudent_signOut"><path d="M66.25,238.1201 C94.49,238.1201 131.08,238.1201 159.8,238.1201 " fill="none" id="teacherAndStudent-to-signOut" style="stroke:#181818;stroke-width:1.0;"/><polygon fill="#181818" points="165.8,238.1201,156.8,234.1201,160.8,238.1201,156.8,242.1201,165.8,238.1201" style="stroke:#181818;stroke-width:1.0;"/></g><!--link teacherAndStudent to manageInfo--><g id="link_teacherAndStudent_manageInfo"><path d="M66.03,221.8501 C77.12,215.9301 89.99,209.3901 102,204.1201 C119.24,196.5501 133.093,191.2912 149.883,185.4512 " fill="none" id="teacherAndStudent-to-manageInfo" style="stroke:#181818;stroke-width:1.0;"/><polygon fill="#181818" points="155.55,183.4801,145.7354,182.6588,150.8275,185.1227,148.3636,190.2148,155.55,183.4801" style="stroke:#181818;stroke-width:1.0;"/></g><!--link teacherAndStudent to manageAccount--><g id="link_teacherAndStudent_manageAccount"><path d="M54.41,198.4501 C65.39,177.4101 81.42,152.5801 102,136.1201 C116.98,124.1401 130.7783,117.8885 148.2183,112.7085 " fill="none" id="teacherAndStudent-to-manageAccount" style="stroke:#181818;stroke-width:1.0;"/><polygon fill="#181818" points="153.97,111.0001,144.2036,109.7282,149.177,112.4237,146.4814,117.3971,153.97,111.0001" style="stroke:#181818;stroke-width:1.0;"/></g><!--reverse link signUp to assistantAndExpert--><g id="link_signUp_assistantAndExpert"><path d="M227.8359,387.1102 C260.7959,401.7102 315.37,425.8701 356.33,444.0001 " fill="none" id="signUp-backto-assistantAndExpert" style="stroke:#181818;stroke-width:1.0;"/><polygon fill="#181818" points="222.35,384.6801,228.9588,391.9824,226.9216,386.7051,232.1989,384.6679,222.35,384.6801" style="stroke:#181818;stroke-width:1.0;"/></g><!--reverse link signIn to assistantAndExpert--><g id="link_signIn_assistantAndExpert"><path d="M229.1972,317.7309 C243.2872,323.6109 255.21,329.7501 269,340.1201 C300.94,364.1501 299.91,379.7001 329,407.1201 C337.53,415.1601 347.11,423.3001 356.4,430.7801 " fill="none" id="signIn-backto-assistantAndExpert" style="stroke:#181818;stroke-width:1.0;"/><polygon fill="#181818" points="223.66,315.4201,230.4253,322.5777,228.2743,317.3458,233.5063,315.1948,223.66,315.4201" style="stroke:#181818;stroke-width:1.0;"/></g><!--reverse link signOut to assistantAndExpert--><g id="link_signOut_assistantAndExpert"><path d="M230.9821,248.1058 C245.4421,253.4958 257.08,259.8301 269,272.1201 C314.7,319.2701 288.8,355.2001 329,407.1201 C336.66,417.0101 346.41,426.1801 356.21,434.1301 " fill="none" id="signOut-backto-assistantAndExpert" style="stroke:#181818;stroke-width:1.0;"/><polygon fill="#181818" points="225.36,246.0101,232.3961,252.9017,230.0451,247.7565,235.1903,245.4055,225.36,246.0101" style="stroke:#181818;stroke-width:1.0;"/></g><!--reverse link manageInfo to assistantAndExpert--><g id="link_manageInfo_assistantAndExpert"><path d="M245.8791,186.0067 C256.3991,191.0567 261.43,195.2201 269,204.1201 C329.93,275.8101 276.39,329.1301 329,407.1201 C336.26,417.8801 346.22,427.5401 356.37,435.7001 " fill="none" id="manageInfo-backto-assistantAndExpert" style="stroke:#181818;stroke-width:1.0;"/><polygon fill="#181818" points="240.47,183.4101,246.8526,190.911,244.9775,185.5739,250.3146,183.6989,240.47,183.4101" style="stroke:#181818;stroke-width:1.0;"/></g><!--reverse link manageAccount to setRight--><g id="link_manageAccount_setRight"><path d="M250.5594,119.7323 C285.6494,131.6123 322.57,144.0901 359.37,156.5401 " fill="none" id="manageAccount-backto-setRight" style="stroke:#181818;stroke-width:1.0;"/><polygon fill="none" points="233.51,113.9601,248.6353,125.4155,252.4835,114.0492,233.51,113.9601" style="stroke:#181818;stroke-width:1.0;"/></g><!--reverse link manageAccount to closeAccount--><g id="link_manageAccount_closeAccount"><path d="M266.7,102.1201 C297.4,102.1201 318.53,102.1201 349.24,102.1201 " fill="none" id="manageAccount-backto-closeAccount" style="stroke:#181818;stroke-width:1.0;"/><polygon fill="none" points="248.7,102.1201,266.7,108.1201,266.7,96.1201,248.7,102.1201" style="stroke:#181818;stroke-width:1.0;"/></g><!--SRC=[VP9DIiD068RtSueXArs4Na24Bbnq9IWUO4YdQQ1EIkOB22eeIYt-OCLKB2hQJMa5wyA_KcczJ2PfR-6aeMdQjCqgv7ddoplF31XGe5ZndQPN_d7_wjxnktTxvVOUvHUtVo4U-Wf21Pe332Qs33qFE6jOL0F3P0WXee5fOSMhraIdd1BdBVccOC8nKABbgPLcsMsmivJ1E2hU6hxpdF9V7B_rxNQxukP-j81mRd0W3EIIZRqYjG2Xu3-4wRC55RoFi7niJZN2ALxnFfgYTBaQZE66pdQAqzYl_OfUDS8PbiHdtGXlsZ33stM_Kd8xhxBjuElKkwkDihk44PrcMCwS5m_xne9fJJDjgM4wF6Zt_Lux37jF9yDQ9Un1OIjmdTZcq3aQV3R4TJXPAvWy6do8K48wLjNriPB5K0fP30CTysbCmB90j75vMn9dZ5MxEAcubCkMItbGT64WrXLDrS9h1wewyJs7nIN_0m00]--></g></svg>