<?xml version="1.0" encoding="us-ascii" standalone="no"?><svg xmlns="http://www.w3.org/2000/svg" xmlns:xlink="http://www.w3.org/1999/xlink" contentStyleType="text/css" height="244px" preserveAspectRatio="none" style="width:157px;height:244px;background:#FFFFFF;" version="1.1" viewBox="0 0 157 244" width="157px" zoomAndPan="magnify"><defs/><g><text fill="#000000" font-family="sans-serif" font-size="14" font-weight="bold" lengthAdjust="spacing" textLength="60" x="41.5" y="26.0439">&#35282;&#33394;&#27010;&#35272;</text><!--entity teacher--><g id="elem_teacher"><ellipse cx="20" cy="54.1201" fill="#F1F1F1" rx="8" ry="8" style="stroke:#181818;stroke-width:0.5;"/><path d="M20,62.1201 L20,89.1201 M7,70.1201 L33,70.1201 M20,89.1201 L7,104.1201 M20,89.1201 L33,104.1201 " fill="none" style="stroke:#181818;stroke-width:0.5;"/><text fill="#000000" font-family="sans-serif" font-size="14" lengthAdjust="spacing" textLength="28" x="6" y="121.6641">&#25945;&#24072;</text></g><!--entity student--><g id="elem_student"><ellipse cx="20" cy="168.1201" fill="#F1F1F1" rx="8" ry="8" style="stroke:#181818;stroke-width:0.5;"/><path d="M20,176.1201 L20,203.1201 M7,184.1201 L33,184.1201 M20,203.1201 L7,218.1201 M20,203.1201 L33,218.1201 " fill="none" style="stroke:#181818;stroke-width:0.5;"/><text fill="#000000" font-family="sans-serif" font-size="14" lengthAdjust="spacing" textLength="28" x="6" y="235.6641">&#23398;&#29983;</text></g><!--entity assistant--><g id="elem_assistant"><ellipse cx="122" cy="54.1201" fill="#F1F1F1" rx="8" ry="8" style="stroke:#181818;stroke-width:0.5;"/><path d="M122,62.1201 L122,89.1201 M109,70.1201 L135,70.1201 M122,89.1201 L109,104.1201 M122,89.1201 L135,104.1201 " fill="none" style="stroke:#181818;stroke-width:0.5;"/><text fill="#000000" font-family="sans-serif" font-size="14" lengthAdjust="spacing" textLength="28" x="108" y="121.6641">&#21161;&#25945;</text></g><!--entity expert--><g id="elem_expert"><ellipse cx="122" cy="168.1201" fill="#F1F1F1" rx="8" ry="8" style="stroke:#181818;stroke-width:0.5;"/><path d="M122,176.1201 L122,203.1201 M109,184.1201 L135,184.1201 M122,203.1201 L109,218.1201 M122,203.1201 L135,218.1201 " fill="none" style="stroke:#181818;stroke-width:0.5;"/><text fill="#000000" font-family="sans-serif" font-size="14" lengthAdjust="spacing" textLength="56" x="94" y="235.6641">&#30740;&#31350;&#20154;&#21592;</text></g><!--SRC=[HSkn2i8m54RXFKznoPk5z6e3fP7a5voTgfjIGISxjNHmSH3fyvWcZw44rFax1mOLaqp3CUtkSxzDGoE5g7W1WYLdbYMeC8urZAs5K1hMaPnFb_1i92bFOALBTby9jpwsromUwu9h_6G_VhOiodlZeVuMkpQEZzSqXSCv5xnPiSCR]--></g></svg>